<svg width="74" height="74" viewBox="0 0 74 74" fill="none" xmlns="http://www.w3.org/2000/svg">
<path d="M40.7 40.7H33.3V18.5H40.7M40.7 55.5H33.3V48.1H40.7M37 0C32.1411 0 27.3298 0.957033 22.8407 2.81646C18.3517 4.67588 14.2728 7.40128 10.837 10.837C3.8982 17.7759 0 27.187 0 37C0 46.813 3.8982 56.2241 10.837 63.163C14.2728 66.5987 18.3517 69.3241 22.8407 71.1835C27.3298 73.043 32.1411 74 37 74C46.813 74 56.2241 70.1018 63.163 63.163C70.1018 56.2241 74 46.813 74 37C74 32.1411 73.043 27.3298 71.1835 22.8407C69.3241 18.3517 66.5987 14.2728 63.163 10.837C59.7272 7.40128 55.6483 4.67588 51.1593 2.81646C46.6702 0.957033 41.8589 0 37 0V0Z" fill="#FF5454"/>
</svg>
