<svg width="22" height="22" viewBox="0 0 22 22" fill="none" xmlns="http://www.w3.org/2000/svg">
<path d="M7.33333 12.8333C7.07361 12.8333 6.85575 12.7453 6.67975 12.5693C6.50436 12.3939 6.41667 12.1764 6.41667 11.9166C6.41667 11.6569 6.50436 11.4391 6.67975 11.2631C6.85575 11.0877 7.07361 11 7.33333 11C7.59306 11 7.81092 11.0877 7.98692 11.2631C8.16231 11.4391 8.25 11.6569 8.25 11.9166C8.25 12.1764 8.16231 12.3939 7.98692 12.5693C7.81092 12.7453 7.59306 12.8333 7.33333 12.8333ZM11 12.8333C10.7403 12.8333 10.5227 12.7453 10.3473 12.5693C10.1713 12.3939 10.0833 12.1764 10.0833 11.9166C10.0833 11.6569 10.1713 11.4391 10.3473 11.2631C10.5227 11.0877 10.7403 11 11 11C11.2597 11 11.4776 11.0877 11.6536 11.2631C11.829 11.4391 11.9167 11.6569 11.9167 11.9166C11.9167 12.1764 11.829 12.3939 11.6536 12.5693C11.4776 12.7453 11.2597 12.8333 11 12.8333ZM14.6667 12.8333C14.4069 12.8333 14.1894 12.7453 14.014 12.5693C13.838 12.3939 13.75 12.1764 13.75 11.9166C13.75 11.6569 13.838 11.4391 14.014 11.2631C14.1894 11.0877 14.4069 11 14.6667 11C14.9264 11 15.1439 11.0877 15.3193 11.2631C15.4953 11.4391 15.5833 11.6569 15.5833 11.9166C15.5833 12.1764 15.4953 12.3939 15.3193 12.5693C15.1439 12.7453 14.9264 12.8333 14.6667 12.8333ZM2.75 3.66665H5.5V1.83331H7.33333V3.66665H14.6667V1.83331H16.5V3.66665H19.25V20.1666H2.75V3.66665ZM4.58333 18.3333H17.4167V9.16665H4.58333V18.3333Z" fill="black"/>
</svg>
