<svg width="51" height="51" viewBox="0 0 51 51" fill="none" xmlns="http://www.w3.org/2000/svg">
<path d="M47.8125 28.688V37.4536C47.8125 39.8442 46.3781 41.9161 44.1469 43.0317L41.4375 44.3067L38.7281 43.0317C36.4969 42.0755 35.0625 39.8442 35.0625 37.4536V28.688H47.8125ZM51 25.5005H31.875V37.4536C31.875 40.9599 33.9469 44.3067 37.2937 45.9005L41.4375 47.813L45.5813 45.9005C48.9281 44.3067 51 41.1192 51 37.4536V25.5005Z" fill="black"/>
<path d="M25.5 39.8442H11.9531C5.41875 39.8442 0 34.4255 0 27.8911C0 21.9942 4.30312 17.213 9.88125 16.0974C11.3156 8.60674 17.85 3.18799 25.5 3.18799C34.2656 3.18799 41.4375 10.3599 41.4375 19.1255H38.25C38.25 12.113 32.5125 6.37549 25.5 6.37549C18.9656 6.37549 13.5469 11.3161 12.75 17.6911V19.1255H11.3156C6.69375 19.4442 3.1875 23.2692 3.1875 27.8911C3.1875 32.6724 7.17188 36.6567 11.9531 36.6567H25.5V39.8442Z" fill="black"/>
</svg>
