<svg width="86" height="55" viewBox="0 0 86 55" fill="none" xmlns="http://www.w3.org/2000/svg">
<path d="M21.5 55C15.5712 55 10.505 53.1953 6.30146 49.5859C2.09788 45.9766 -0.00260364 41.5651 2.42199e-06 36.3516C2.42199e-06 31.8828 1.53106 27.901 4.59318 24.4063C7.6553 20.9115 11.6621 18.6771 16.6136 17.7031C18.2424 12.4323 21.5 8.16406 26.3864 4.89844C31.2727 1.63281 36.8106 0 43 0C50.6227 0 57.0897 2.33521 62.4008 7.00563C67.712 11.676 70.3662 17.3617 70.3636 24.0625C74.8591 24.5208 78.5897 26.2258 81.5554 29.1775C84.5211 32.1292 86.0026 35.5804 86 39.5312C86 43.8281 84.2891 47.481 80.8674 50.49C77.4456 53.499 73.2928 55.0023 68.4091 55H21.5Z" fill="#00D1FF"/>
</svg>
