<svg width="48" height="48" viewBox="0 0 48 48" fill="none" xmlns="http://www.w3.org/2000/svg">
<path d="M24 33.0005C22.22 33.0005 20.4799 32.4726 18.9999 31.4837C17.5198 30.4948 16.3663 29.0892 15.6851 27.4446C15.0039 25.8001 14.8257 23.9905 15.1729 22.2447C15.5202 20.4988 16.3774 18.8952 17.636 17.6365C18.8947 16.3779 20.4984 15.5207 22.2442 15.1734C23.99 14.8262 25.7996 15.0044 27.4442 15.6856C29.0887 16.3668 30.4943 17.5203 31.4832 19.0004C32.4722 20.4804 33 22.2205 33 24.0005C33.0129 25.186 32.7888 26.3621 32.3411 27.4598C31.8934 28.5575 31.2309 29.5548 30.3926 30.3931C29.5543 31.2314 28.557 31.8938 27.4593 32.3416C26.3616 32.7893 25.1855 33.0133 24 33.0005V33.0005ZM24 18.0005C23.2071 17.9824 22.4188 18.1253 21.6827 18.4204C20.9466 18.7156 20.278 19.1569 19.7172 19.7177C19.1564 20.2785 18.7151 20.9471 18.42 21.6832C18.1248 22.4193 17.982 23.2076 18 24.0005C17.982 24.7934 18.1248 25.5817 18.42 26.3178C18.7151 27.0539 19.1564 27.7225 19.7172 28.2833C20.278 28.8441 20.9466 29.2854 21.6827 29.5805C22.4188 29.8757 23.2071 30.0185 24 30.0005C24.7929 30.0185 25.5812 29.8757 26.3173 29.5805C27.0534 29.2854 27.722 28.8441 28.2828 28.2833C28.8436 27.7225 29.2849 27.0539 29.58 26.3178C29.8752 25.5817 30.018 24.7934 30 24.0005C30.018 23.2076 29.8752 22.4193 29.58 21.6832C29.2849 20.9471 28.8436 20.2785 28.2828 19.7177C27.722 19.1569 27.0534 18.7156 26.3173 18.4204C25.5812 18.1253 24.7929 17.9824 24 18.0005V18.0005Z" fill="black"/>
<path d="M43.9575 16.5665L40.4175 10.4345C40.071 9.83326 39.5265 9.37092 38.8771 9.12636C38.2277 8.8818 37.5135 8.87018 36.8565 9.09349L33.2055 10.328C32.5763 9.90437 31.9188 9.52448 31.2375 9.19099L30.483 5.41249C30.347 4.73215 29.9794 4.11998 29.4428 3.6802C28.9062 3.24042 28.2338 3.00021 27.54 3.00049H20.46C19.7662 3.00021 19.0938 3.24042 18.5572 3.6802C18.0206 4.11998 17.653 4.73215 17.517 5.41249L16.7625 9.19099C16.0736 9.52082 15.4085 9.89824 14.772 10.3205L11.142 9.09349C10.4854 8.87096 9.77188 8.88298 9.12311 9.1275C8.47434 9.37202 7.93042 9.83391 7.584 10.4345L4.044 16.5665C3.69722 17.1669 3.56913 17.869 3.68153 18.5532C3.79392 19.2374 4.13986 19.8615 4.6605 20.3195L7.557 22.865C7.5315 23.243 7.5 23.618 7.5 24.0005C7.5 24.3875 7.515 24.77 7.542 25.1495L4.662 27.6815C4.14087 28.139 3.79436 28.763 3.68142 29.4473C3.56847 30.1315 3.69607 30.8337 4.0425 31.4345L7.5825 37.5665C7.9288 38.168 8.47313 38.6306 9.12257 38.8755C9.77201 39.1203 10.4863 39.1322 11.1435 38.909L14.7945 37.673C15.4235 38.0974 16.081 38.4778 16.7625 38.8115L17.517 42.5885C17.653 43.2688 18.0206 43.881 18.5572 44.3208C19.0938 44.7606 19.7662 45.0008 20.46 45.0005H27V42.0005H20.46L19.395 36.6755C17.9217 36.1282 16.5541 35.3305 15.3525 34.3175L10.182 36.0665L6.642 29.9345L10.7295 26.342C10.4499 24.7908 10.4463 23.2024 10.719 21.65L6.642 18.0665L10.182 11.9345L15.3225 13.6745C16.5327 12.6601 17.911 11.8651 19.395 11.3255L20.46 6.00049H27.54L28.605 11.3255C30.0782 11.8729 31.4458 12.6706 32.6475 13.6835L37.818 11.9345L41.358 18.0665L37.161 21.7445L39.138 24.0005L43.338 20.3195C43.8591 19.8619 44.2056 19.238 44.3186 18.5537C44.4315 17.8695 44.3039 17.1673 43.9575 16.5665Z" fill="black"/>
<path d="M34.5 39.2705L30.615 35.3855L28.5 37.5005L34.5 43.5005L45 33.0005L42.885 30.8855L34.5 39.2705Z" fill="black"/>
</svg>
