<svg width="64" height="65" viewBox="0 0 64 65" fill="none" xmlns="http://www.w3.org/2000/svg">
<g clip-path="url(#clip0_282_6315)">
<path d="M53.8118 20.3993H41.8663C40.2828 20.4009 38.7645 21.0296 37.6447 22.1476C36.525 23.2655 35.8952 24.7812 35.8936 26.3622V38.288C35.8947 39.342 36.3145 40.3525 37.061 41.0978C37.8075 41.8431 38.8197 42.2622 39.8754 42.2633V56.1767C39.8765 57.2307 40.2963 58.2412 41.0428 58.9865C41.7894 59.7318 42.8015 60.1509 43.8573 60.152H51.8209C52.8766 60.1509 53.8888 59.7318 54.6353 58.9865C55.3818 58.2412 55.8017 57.2307 55.8027 56.1767V42.2633C56.8585 42.2622 57.8707 41.8431 58.6172 41.0978C59.3637 40.3525 59.7835 39.342 59.7846 38.288V26.3622C59.783 24.7812 59.1532 23.2655 58.0335 22.1476C56.9137 21.0296 55.3954 20.4009 53.8118 20.3993ZM55.8027 38.288H51.8209V56.1767H43.8573V38.288H39.8754V26.3622C39.8754 25.8351 40.0852 25.3295 40.4586 24.9567C40.8319 24.584 41.3383 24.3746 41.8663 24.3746H53.8118C54.3399 24.3746 54.8463 24.584 55.2196 24.9567C55.593 25.3295 55.8027 25.8351 55.8027 26.3622V38.288ZM39.8754 10.4612C39.8754 8.88869 40.3425 7.35153 41.2175 6.04408C42.0926 4.73662 43.3364 3.71758 44.7915 3.11582C46.2467 2.51406 47.8479 2.35662 49.3927 2.66339C50.9375 2.97016 52.3565 3.72738 53.4702 4.83928C54.584 5.95118 55.3425 7.36783 55.6497 8.91008C55.957 10.4523 55.7993 12.0509 55.1966 13.5037C54.5938 14.9565 53.5731 16.1982 52.2635 17.0718C50.9538 17.9454 49.4142 18.4117 47.8391 18.4117C45.7276 18.4096 43.7033 17.5713 42.2103 16.0807C40.7172 14.5901 39.8775 12.5691 39.8754 10.4612ZM43.8573 10.4612C43.8573 11.2474 44.0908 12.016 44.5283 12.6697C44.9659 13.3234 45.5877 13.8329 46.3153 14.1338C47.0429 14.4347 47.8435 14.5134 48.6159 14.36C49.3883 14.2066 50.0978 13.828 50.6547 13.2721C51.2115 12.7161 51.5908 12.0078 51.7444 11.2367C51.8981 10.4656 51.8192 9.66627 51.5178 8.93989C51.2164 8.2135 50.7061 7.59265 50.0513 7.15584C49.3965 6.71903 48.6266 6.48589 47.8391 6.48589C46.7834 6.48694 45.7712 6.9061 45.0247 7.65138C44.2782 8.39666 43.8583 9.40717 43.8573 10.4612ZM27.9299 32.3251V26.3622C27.9284 24.7812 27.2986 23.2655 26.1788 22.1476C25.0591 21.0296 23.5408 20.4009 21.9572 20.3993H10.0117C8.42812 20.4009 6.90985 21.0296 5.79008 22.1476C4.67032 23.2655 4.04054 24.7812 4.03896 26.3622V32.3251H0.0571289V36.3004H31.9118V32.3251H27.9299ZM8.02079 26.3622C8.02079 25.8351 8.23055 25.3295 8.60392 24.9567C8.97728 24.584 9.48368 24.3746 10.0117 24.3746H21.9572C22.4852 24.3746 22.9916 24.584 23.365 24.9567C23.7384 25.3295 23.9481 25.8351 23.9481 26.3622V32.3251H8.02079V26.3622ZM8.02079 10.4612C8.02079 8.88869 8.48785 7.35153 9.36291 6.04408C10.238 4.73662 11.4817 3.71758 12.9369 3.11582C14.3921 2.51406 15.9933 2.35662 17.5381 2.66339C19.0829 2.97016 20.5019 3.72738 21.6156 4.83928C22.7293 5.95118 23.4878 7.36783 23.7951 8.91008C24.1024 10.4523 23.9447 12.0509 23.3419 13.5037C22.7392 14.9565 21.7184 16.1982 20.4088 17.0718C19.0992 17.9454 17.5595 18.4117 15.9844 18.4117C13.873 18.4096 11.8486 17.5713 10.3556 16.0807C8.8626 14.5901 8.0229 12.5691 8.02079 10.4612ZM12.0026 10.4612C12.0026 11.2474 12.2361 12.016 12.6737 12.6697C13.1112 13.3234 13.7331 13.8329 14.4607 14.1338C15.1883 14.4347 15.9889 14.5134 16.7613 14.36C17.5337 14.2066 18.2432 13.828 18.8 13.2721C19.3569 12.7161 19.7361 12.0078 19.8898 11.2367C20.0434 10.4656 19.9646 9.66627 19.6632 8.93989C19.3618 8.2135 18.8514 7.59265 18.1966 7.15584C17.5418 6.71903 16.772 6.48589 15.9844 6.48589C14.9287 6.48694 13.9165 6.9061 13.17 7.65138C12.4235 8.39666 12.0037 9.40717 12.0026 10.4612Z" fill="black"/>
</g>
<defs>
<clipPath id="clip0_282_6315">
<rect width="63.7093" height="63.6042" fill="white" transform="translate(0.0571289 0.522949)"/>
</clipPath>
</defs>
</svg>
