<svg width="55" height="55" viewBox="0 0 55 55" fill="none" xmlns="http://www.w3.org/2000/svg">
<path d="M27.5 0C31.1467 0 34.6441 1.44866 37.2227 4.02728C39.8013 6.60591 41.25 10.1033 41.25 13.75C41.25 17.3967 39.8013 20.8941 37.2227 23.4727C34.6441 26.0513 31.1467 27.5 27.5 27.5C23.8533 27.5 20.3559 26.0513 17.7773 23.4727C15.1987 20.8941 13.75 17.3967 13.75 13.75C13.75 10.1033 15.1987 6.60591 17.7773 4.02728C20.3559 1.44866 23.8533 0 27.5 0ZM27.5 34.375C42.6938 34.375 55 40.5281 55 48.125V55H0V48.125C0 40.5281 12.3062 34.375 27.5 34.375Z" fill="#FFCD6B"/>
</svg>
