<svg width="351" height="78" viewBox="0 0 351 78" fill="none" xmlns="http://www.w3.org/2000/svg">
<mask id="mask0_820_7607" style="mask-type:luminance" maskUnits="userSpaceOnUse" x="0" y="0" width="351" height="78">
<path d="M23.8845 0C19.3324 0 15.2328 1.04202 11.5857 2.98897C7.93863 5.01134 5.1416 7.73981 3.05753 11.2567C0.973471 14.7735 0 18.7429 0 23.1029C0 27.5316 0.973471 31.4323 3.05753 34.9492C5.1416 38.466 7.93863 41.2631 11.5857 43.2169C15.2328 45.2324 19.2639 46.2127 23.8228 46.2127C26.9488 46.2127 29.9378 45.7534 32.8034 44.7114C35.669 43.7379 38.0753 42.3051 40.0908 40.3513V23.3017H36.903V38.987C33.4547 41.7841 29.1563 43.1483 23.953 43.1483C20.0454 43.1483 16.5354 42.3051 13.4093 40.5501C10.2832 38.7882 7.80839 36.382 5.98483 33.3244C4.16813 30.2669 3.31804 26.8803 3.31804 23.1029C3.31804 19.3324 4.16813 15.9458 5.98483 12.8883C7.74669 9.82388 10.2215 7.41762 13.3407 5.66262C16.4668 3.96932 20.0454 3.05753 23.953 3.05753C26.8186 3.05753 29.4168 3.50999 31.7614 4.36007C34.1059 5.20329 36.2517 6.57439 38.2055 8.45965L40.2896 6.24532C38.2741 4.22981 35.861 2.66677 33.0639 1.62474C30.2669 0.582712 27.2094 0 23.8845 0ZM68.0474 0.322208L47.0902 45.8836H50.6688L69.6721 3.96932L88.7441 45.8836H92.3226L71.3654 0.322208H68.0474ZM99.1849 0.322208V26.5512C99.1849 32.9954 100.748 37.8765 103.943 41.2014C107.13 44.5811 111.621 46.2127 117.414 46.2127C123.138 46.2127 127.628 44.5811 130.885 41.2014C134.072 37.8765 135.704 32.9954 135.704 26.5512V0.322208H132.386V26.421C132.386 32.0219 131.083 36.2517 128.54 38.987C125.942 41.7841 122.295 43.1483 117.475 43.1483C112.594 43.1483 108.885 41.7841 106.349 38.987C103.744 36.2517 102.51 32.0219 102.51 26.421V0.322208H99.1849ZM151.191 0.322208V45.8836H154.509V6.31388L185.557 45.8836H188.292V0.322208H184.974V39.8988L153.988 0.322208H151.191ZM196.519 0.322208V3.31804H212.924V45.8836H216.242V3.31804H232.647V0.322208H196.519ZM240.812 0.322208V45.8836H270.366V42.8878H244.137V0.322208H240.812ZM278.949 0.322208V3.31804H308.434V0.322208H278.949ZM314.879 0.322208V3.31804H331.277V45.8836H334.595V3.31804H351V0.322208H314.879ZM278.949 21.2794V24.2135H308.434V21.2794H278.949ZM278.949 42.8878V45.8836H308.434V42.8878H278.949ZM295.258 60.5269L289.788 74.0048H291.652L293.051 70.5291H298.309L299.755 74.0048H301.723L296.239 60.5269H295.258ZM114.116 60.5475C113.506 60.5475 112.889 60.5749 112.251 60.6229C111.634 60.664 111.059 60.7394 110.531 60.856V74.0048H112.423V69.0346C112.498 69.0483 112.615 69.0551 112.766 69.0688L113.259 69.11C113.437 69.11 113.602 69.11 113.753 69.1237H114.116C114.836 69.1237 115.528 69.0414 116.2 68.8769C116.886 68.7124 117.489 68.4587 118.003 68.1022C118.538 67.7457 118.956 67.2933 119.278 66.738C119.594 66.169 119.751 65.4834 119.751 64.6882C119.751 63.8381 119.573 63.1457 119.217 62.6178C118.881 62.0763 118.435 61.6512 117.893 61.3496C117.345 61.0411 116.742 60.8354 116.07 60.7189C115.412 60.6092 114.761 60.5475 114.116 60.5475ZM237.604 60.5475C237.309 60.5475 236.987 60.5544 236.637 60.5681C236.294 60.5681 235.938 60.5749 235.574 60.5886C235.218 60.6023 234.868 60.616 234.526 60.6435C234.197 60.6572 233.909 60.6846 233.655 60.7189V74.0254C233.792 74.0459 234.018 74.0665 234.34 74.0802C234.67 74.1076 235.019 74.1213 235.403 74.135C235.78 74.1487 236.15 74.1625 236.5 74.1762C236.87 74.1899 237.158 74.1967 237.377 74.1967C238.639 74.1967 239.715 73.9979 240.6 73.6072C241.498 73.2095 242.231 72.6954 242.8 72.051C243.369 71.4066 243.78 70.673 244.034 69.8504C244.301 69.014 244.432 68.1502 244.432 67.2659C244.432 66.2924 244.295 65.3943 244.014 64.5717C243.739 63.749 243.314 63.0429 242.745 62.4465C242.19 61.85 241.484 61.3907 240.62 61.0617C239.77 60.7189 238.769 60.5475 237.604 60.5475ZM192.769 60.7189V64.1946C192.577 64.1398 192.392 64.0918 192.214 64.0438C192.049 63.9889 191.871 63.9547 191.686 63.9272C191.508 63.8998 191.309 63.8861 191.096 63.8724C190.891 63.845 190.657 63.8313 190.39 63.8313C188.827 63.8313 187.607 64.2906 186.729 65.1955C185.872 66.1004 185.44 67.3961 185.44 69.0894C185.44 70.8444 185.79 72.1538 186.482 72.997C187.189 73.8471 188.265 74.2721 189.691 74.2721C190.438 74.2721 191.089 74.1076 191.645 73.7786C192.214 73.4495 192.646 73.0313 192.933 72.524H193.125L193.564 74.0391H194.723C194.62 73.4975 194.558 72.949 194.531 72.3938C194.517 71.8179 194.51 71.2146 194.51 70.5702V60.7189H192.769ZM204.615 60.7189V73.47C204.944 73.662 205.445 73.8265 206.117 73.9636C206.795 74.1076 207.556 74.1762 208.393 74.1762C210.086 74.1762 211.402 73.7169 212.341 72.8051C213.274 71.9002 213.747 70.577 213.747 68.8426C213.747 67.1493 213.383 65.8811 212.664 65.0447C211.951 64.2015 210.909 63.7764 209.531 63.7764C208.92 63.7764 208.345 63.8998 207.803 64.1535C207.261 64.3934 206.843 64.7705 206.548 65.2709H206.363V60.7189H204.615ZM114.171 62.1791C114.589 62.1791 115.007 62.2202 115.426 62.2956C115.851 62.3573 116.241 62.4876 116.584 62.6727C116.92 62.8646 117.201 63.1252 117.414 63.4542C117.633 63.7833 117.736 64.2015 117.736 64.7019C117.736 65.2846 117.626 65.7645 117.4 66.1278C117.181 66.498 116.893 66.7791 116.522 66.9848C116.173 67.1836 115.768 67.3276 115.33 67.403C114.884 67.4647 114.438 67.4921 113.979 67.4921H113.643C113.499 67.4921 113.348 67.4852 113.184 67.4784C113.033 67.4647 112.882 67.4578 112.731 67.4578C112.587 67.4441 112.491 67.4235 112.423 67.403V62.2956C112.601 62.2408 112.848 62.2134 113.163 62.1997C113.492 62.186 113.828 62.1791 114.171 62.1791ZM237.09 62.2202H237.659C238.584 62.2202 239.345 62.3779 239.955 62.6933C240.565 63.0086 241.052 63.4131 241.415 63.9067C241.786 64.3866 242.046 64.9281 242.197 65.5246C242.348 66.1141 242.423 66.6969 242.423 67.2659C242.423 67.9377 242.341 68.589 242.176 69.2197C242.025 69.8435 241.751 70.3988 241.36 70.8924C240.977 71.386 240.469 71.7836 239.825 72.0852C239.187 72.38 238.399 72.524 237.453 72.524H237.069C236.891 72.5103 236.706 72.5034 236.5 72.5034C236.301 72.4897 236.102 72.4829 235.91 72.4829C235.739 72.476 235.616 72.4623 235.554 72.4486V62.3162C235.643 62.3025 235.766 62.2888 235.931 62.2751C236.096 62.2614 236.281 62.2477 236.486 62.2408C236.685 62.2271 236.884 62.2202 237.09 62.2202ZM295.669 63.132H295.711L296.225 65.1612L297.76 68.9386H293.62L295.162 65.1955L295.669 63.132ZM126.991 63.7559C126.223 63.7559 125.53 63.8793 124.92 64.1192C124.331 64.3591 123.823 64.7019 123.405 65.1612C122.987 65.6137 122.672 66.169 122.459 66.8271C122.24 67.4715 122.137 68.2119 122.137 69.0346C122.137 69.7818 122.233 70.4742 122.418 71.1186C122.624 71.7493 122.919 72.3046 123.309 72.7708C123.714 73.237 124.221 73.6072 124.831 73.8745C125.435 74.135 126.154 74.2721 126.991 74.2721C127.752 74.2721 128.43 74.1487 129.027 73.9088C129.63 73.6689 130.137 73.3192 130.542 72.8668C130.96 72.4075 131.275 71.859 131.488 71.2146C131.714 70.5702 131.831 69.8435 131.831 69.0346C131.831 68.2736 131.728 67.5744 131.529 66.9436C131.337 66.2992 131.042 65.7439 130.638 65.2709C130.233 64.791 129.726 64.4208 129.116 64.1535C128.513 63.8861 127.8 63.7559 126.991 63.7559ZM156.833 63.7559C155.276 63.7559 154.07 64.2083 153.227 65.1201C152.39 66.0182 151.972 67.3276 151.972 69.0346C151.972 69.8298 152.068 70.5496 152.253 71.194C152.445 71.8385 152.74 72.3869 153.131 72.8462C153.521 73.2987 154.022 73.6552 154.625 73.9088C155.249 74.1487 155.976 74.2721 156.812 74.2721C157.58 74.2721 158.3 74.1762 158.958 73.9842C159.609 73.7854 160.164 73.5181 160.603 73.189L159.938 71.859C159.678 72.1127 159.301 72.3321 158.821 72.524C158.341 72.7023 157.833 72.7914 157.306 72.7914C156.024 72.7914 155.119 72.4897 154.591 71.9002C154.056 71.3037 153.782 70.4262 153.754 69.2608H160.87C160.912 69.0071 160.932 68.7466 160.946 68.4793C160.96 68.2188 160.966 67.9788 160.966 67.78C160.966 66.9436 160.843 66.265 160.589 65.7508C160.349 65.2298 160.027 64.8253 159.636 64.5374C159.246 64.2289 158.8 64.0301 158.306 63.9272C157.813 63.8107 157.326 63.7559 156.833 63.7559ZM177.769 63.7559C176.213 63.7559 175.013 64.2083 174.163 65.1201C173.327 66.0182 172.915 67.3276 172.915 69.0346C172.915 69.8298 173.005 70.5496 173.197 71.194C173.389 71.8385 173.676 72.3869 174.067 72.8462C174.465 73.2987 174.965 73.6552 175.569 73.9088C176.192 74.1487 176.919 74.2721 177.755 74.2721C178.523 74.2721 179.236 74.1762 179.894 73.9842C180.552 73.7854 181.101 73.5181 181.547 73.189L180.882 71.859C180.614 72.1127 180.244 72.3321 179.764 72.524C179.284 72.7023 178.777 72.7914 178.242 72.7914C176.967 72.7914 176.062 72.4897 175.527 71.9002C175 71.3037 174.725 70.4262 174.698 69.2608H181.814C181.848 69.0071 181.876 68.7466 181.889 68.4793C181.903 68.2188 181.91 67.9788 181.91 67.78C181.91 66.9436 181.78 66.265 181.526 65.7508C181.286 65.2298 180.971 64.8253 180.58 64.5374C180.189 64.2289 179.744 64.0301 179.25 63.9272C178.756 63.8107 178.263 63.7559 177.769 63.7559ZM252.713 63.7559C251.157 63.7559 249.957 64.2083 249.107 65.1201C248.278 66.0182 247.853 67.3276 247.853 69.0346C247.853 69.8298 247.949 70.5496 248.141 71.194C248.333 71.8385 248.62 72.3869 249.011 72.8462C249.409 73.2987 249.902 73.6552 250.513 73.9088C251.13 74.1487 251.863 74.2721 252.693 74.2721C253.467 74.2721 254.18 74.1762 254.838 73.9842C255.496 73.7854 256.045 73.5181 256.491 73.189L255.826 71.859C255.558 72.1127 255.188 72.3321 254.708 72.524C254.228 72.7023 253.721 72.7914 253.186 72.7914C251.911 72.7914 251.006 72.4897 250.478 71.9002C249.944 71.3037 249.662 70.4262 249.642 69.2608H256.758C256.792 69.0071 256.82 68.7466 256.833 68.4793C256.847 68.2188 256.854 67.9788 256.854 67.78C256.854 66.9436 256.724 66.265 256.47 65.7508C256.23 65.2298 255.915 64.8253 255.524 64.5374C255.133 64.2289 254.688 64.0301 254.194 63.9272C253.7 63.8107 253.207 63.7559 252.713 63.7559ZM265.019 63.7559C263.463 63.7559 262.263 64.2083 261.413 65.1201C260.576 66.0182 260.158 67.3276 260.158 69.0346C260.158 69.8298 260.254 70.5496 260.446 71.194C260.638 71.8385 260.926 72.3869 261.317 72.8462C261.714 73.2987 262.215 73.6552 262.818 73.9088C263.442 74.1487 264.169 74.2721 264.998 74.2721C265.773 74.2721 266.486 74.1762 267.144 73.9842C267.802 73.7854 268.35 73.5181 268.796 73.189L268.131 71.859C267.864 72.1127 267.494 72.3321 267.014 72.524C266.534 72.7023 266.026 72.7914 265.492 72.7914C264.217 72.7914 263.312 72.4897 262.777 71.9002C262.249 71.3037 261.968 70.4262 261.947 69.2608H269.063C269.098 69.0071 269.125 68.7466 269.139 68.4793C269.153 68.2188 269.159 67.9788 269.159 67.78C269.159 66.9436 269.029 66.265 268.776 65.7508C268.536 65.2298 268.22 64.8253 267.829 64.5374C267.439 64.2289 266.993 64.0301 266.499 63.9272C266.006 63.8107 265.512 63.7559 265.019 63.7559ZM278.078 63.7559C277.393 63.7559 276.783 63.893 276.241 64.174C275.693 64.4414 275.254 64.8184 274.911 65.312H274.74L274.397 64.0438H273.218V77.7959H274.966V73.7923C275.158 73.8677 275.336 73.9431 275.514 74.0048C275.693 74.0528 275.871 74.1008 276.049 74.135C276.227 74.1899 276.412 74.2173 276.618 74.231C276.831 74.2584 277.064 74.2721 277.317 74.2721C278.092 74.2721 278.784 74.1419 279.408 73.8882C280.039 73.6346 280.574 73.2781 280.999 72.8051C281.444 72.3252 281.78 71.7493 282.007 71.0844C282.246 70.3988 282.37 69.6378 282.37 68.8015C282.37 67.0465 282.013 65.7714 281.307 64.9693C280.594 64.1603 279.518 63.7559 278.078 63.7559ZM318.265 63.7559C317.456 63.7559 316.784 63.9135 316.25 64.2289C315.735 64.5374 315.269 64.9144 314.865 65.3669H314.673L314.337 64.0438H313.137V74.0048H314.885V67.307C315.077 66.7243 315.393 66.2513 315.831 65.8811C316.291 65.504 316.853 65.312 317.525 65.312C317.95 65.312 318.299 65.3806 318.567 65.5246C318.848 65.648 319.06 65.8468 319.211 66.1278C319.362 66.3952 319.465 66.7311 319.513 67.1356C319.568 67.5401 319.588 68.0063 319.588 68.541V74.0048H321.336V67.5881C321.515 66.8271 321.809 66.2581 322.228 65.8811C322.646 65.504 323.215 65.312 323.935 65.312C324.38 65.312 324.73 65.3737 324.997 65.504C325.278 65.6137 325.491 65.7988 325.642 66.0524C325.799 66.2924 325.895 66.594 325.95 66.9642C326.012 67.3276 326.046 67.7663 326.046 68.2736V74.0048H327.787V68.2736C327.787 67.3893 327.726 66.6557 327.602 66.073C327.472 65.4903 327.28 65.031 327.013 64.6882C326.745 64.3454 326.396 64.1055 325.964 63.9615C325.552 63.8244 325.038 63.7559 324.428 63.7559C323.708 63.7559 323.057 63.9272 322.474 64.27C321.892 64.6128 321.412 65.0721 321.035 65.6548C320.795 64.9693 320.438 64.4825 319.972 64.1946C319.513 63.8998 318.944 63.7559 318.265 63.7559ZM336.631 63.7559C335.856 63.7559 335.164 63.8793 334.561 64.1192C333.964 64.3591 333.457 64.7019 333.039 65.1612C332.62 65.6137 332.305 66.169 332.093 66.8271C331.88 67.4715 331.77 68.2119 331.77 69.0346C331.77 69.7818 331.866 70.4742 332.051 71.1186C332.257 71.7493 332.552 72.3046 332.95 72.7708C333.354 73.237 333.854 73.6072 334.465 73.8745C335.068 74.135 335.795 74.2721 336.631 74.2721C337.385 74.2721 338.064 74.1487 338.66 73.9088C339.263 73.6689 339.771 73.3192 340.175 72.8668C340.593 72.4075 340.909 71.859 341.128 71.2146C341.354 70.5702 341.464 69.8435 341.464 69.0346C341.464 68.2736 341.368 67.5744 341.162 66.9436C340.97 66.2992 340.676 65.7439 340.271 65.2709C339.867 64.791 339.359 64.4208 338.749 64.1535C338.146 63.8861 337.44 63.7559 336.631 63.7559ZM169.227 63.8107C168.645 63.8107 168.158 63.9547 167.76 64.2289C167.383 64.4963 167.047 64.8733 166.759 65.3669H166.588L166.245 64.0438H165.032V74.0048H166.78V67.2453C166.862 66.7311 167.095 66.2992 167.459 65.9565C167.842 65.6137 168.363 65.4423 169.035 65.4423C169.214 65.4423 169.399 65.4697 169.604 65.5246C169.803 65.5725 170.016 65.6274 170.228 65.6891L170.571 64.0232C170.331 63.9478 170.091 63.893 169.851 63.8724C169.611 63.8313 169.399 63.8107 169.227 63.8107ZM308.921 63.8107C308.338 63.8107 307.852 63.9547 307.461 64.2289C307.077 64.4963 306.741 64.8733 306.453 65.3669H306.282L305.939 64.0438H304.726V74.0048H306.474V67.2453C306.563 66.7311 306.789 66.2992 307.152 65.9565C307.536 65.6137 308.057 65.4423 308.729 65.4423C308.907 65.4423 309.093 65.4697 309.298 65.5246C309.504 65.5725 309.71 65.6274 309.922 65.6891L310.265 64.0232C310.025 63.9478 309.785 63.893 309.545 63.8724C309.305 63.8313 309.099 63.8107 308.921 63.8107ZM349.656 63.8107C349.074 63.8107 348.58 63.9547 348.189 64.2289C347.812 64.4963 347.476 64.8733 347.188 65.3669H347.017L346.674 64.0438H345.461V74.0048H347.202V67.2453C347.291 66.7311 347.524 66.2992 347.888 65.9565C348.265 65.6137 348.793 65.4423 349.464 65.4423C349.643 65.4423 349.828 65.4697 350.033 65.5246C350.232 65.5725 350.445 65.6274 350.657 65.6891L351 64.0232C350.76 63.9478 350.52 63.893 350.28 63.8724C350.04 63.8313 349.828 63.8107 349.656 63.8107ZM134.086 64.0438L137.857 74.2104H138.768L141.449 67.8006V67.8143L142.018 65.9565L142.511 67.8006V67.78L145.302 74.2104H146.248L149.874 64.0438H148.202L146.344 69.679L145.905 71.6534H145.775L145.261 69.7338L144.445 67.8143L142.813 64.0438H141.463L139.166 69.6378L138.638 71.6671H138.467L138.11 69.679L135.999 64.0438H134.086ZM215.995 64.0438L220.451 74.0596C220.328 74.5258 220.191 74.9097 220.033 75.1976C219.896 75.5061 219.738 75.7392 219.56 75.9038C219.389 76.0683 219.19 76.178 218.977 76.2397C218.772 76.3082 218.545 76.3356 218.292 76.3356C218.1 76.3356 217.908 76.3082 217.723 76.2397L217.435 77.7204C217.791 77.837 218.223 77.8918 218.731 77.8918C219.197 77.8918 219.608 77.7547 219.965 77.4737C220.328 77.2132 220.657 76.8498 220.945 76.3973C221.253 75.9517 221.521 75.4376 221.761 74.8549C222.014 74.279 222.261 73.6757 222.501 73.0519L225.771 64.0438H223.982L221.918 70.3234L221.439 72.2566H221.192L220.609 70.3371L218.066 64.0438H215.995ZM127.011 65.2366C127.546 65.2366 127.998 65.3463 128.376 65.5589C128.759 65.7714 129.061 66.0593 129.287 66.4158C129.527 66.7517 129.699 67.1562 129.801 67.6086C129.918 68.0611 129.973 68.541 129.973 69.0346C129.973 71.5368 128.986 72.7914 127.011 72.7914C126.456 72.7914 125.99 72.6817 125.606 72.4692C125.229 72.2498 124.92 71.9687 124.68 71.6122C124.434 71.2557 124.262 70.8581 124.146 70.4194C124.043 69.9601 123.995 69.5008 123.995 69.0346C123.995 67.7526 124.249 66.8065 124.756 66.1827C125.27 65.552 126.024 65.2366 127.011 65.2366ZM156.846 65.2366C157.635 65.2366 158.238 65.4423 158.67 65.8605C159.115 66.2787 159.321 66.9916 159.294 68.0063H153.83C153.919 66.9916 154.221 66.2787 154.742 65.8605C155.263 65.4423 155.962 65.2366 156.846 65.2366ZM177.79 65.2366C178.571 65.2366 179.181 65.4423 179.613 65.8605C180.052 66.2787 180.265 66.9916 180.237 68.0063H174.773C174.862 66.9916 175.164 66.2787 175.685 65.8605C176.199 65.4423 176.905 65.2366 177.79 65.2366ZM252.734 65.2366C253.515 65.2366 254.125 65.4423 254.557 65.8605C254.996 66.2787 255.209 66.9916 255.181 68.0063H249.717C249.806 66.9916 250.108 66.2787 250.629 65.8605C251.143 65.4423 251.849 65.2366 252.734 65.2366ZM265.039 65.2366C265.821 65.2366 266.431 65.4423 266.863 65.8605C267.302 66.2787 267.514 66.9916 267.487 68.0063H262.023C262.112 66.9916 262.414 66.2787 262.935 65.8605C263.449 65.4423 264.155 65.2366 265.039 65.2366ZM277.681 65.2366C278.702 65.2366 279.429 65.5589 279.861 66.2033C280.293 66.8477 280.505 67.7115 280.505 68.7878C280.505 70.1109 280.217 71.1118 279.635 71.7836C279.052 72.4554 278.25 72.7914 277.221 72.7914C276.694 72.7914 276.255 72.7297 275.912 72.62C275.576 72.5034 275.254 72.3458 274.966 72.1469V67.5538C275.158 66.7654 275.466 66.1827 275.898 65.8056C276.323 65.4286 276.92 65.2366 277.681 65.2366ZM336.645 65.2366C337.179 65.2366 337.632 65.3463 338.016 65.5589C338.393 65.7714 338.694 66.0593 338.921 66.4158C339.167 66.7517 339.339 67.1562 339.435 67.6086C339.551 68.0611 339.606 68.541 339.606 69.0346C339.606 71.5368 338.619 72.7914 336.645 72.7914C336.089 72.7914 335.623 72.6817 335.239 72.4692C334.862 72.2498 334.554 71.9687 334.314 71.6122C334.074 71.2557 333.896 70.8581 333.779 70.4194C333.683 69.9601 333.628 69.5008 333.628 69.0346C333.628 67.7526 333.882 66.8065 334.389 66.1827C334.91 65.552 335.657 65.2366 336.645 65.2366ZM209.284 65.2572C209.736 65.2572 210.127 65.3532 210.442 65.5383C210.771 65.7165 211.039 65.9633 211.258 66.2787C211.471 66.594 211.628 66.9779 211.731 67.4167C211.834 67.8486 211.882 68.3147 211.882 68.822C211.882 70.1794 211.587 71.1666 210.991 71.7836C210.408 72.3937 209.62 72.6954 208.619 72.6954C207.734 72.6954 206.98 72.572 206.363 72.3321V67.6086C206.459 67.307 206.596 67.0122 206.761 66.738C206.939 66.4432 207.145 66.1895 207.385 65.977C207.625 65.7508 207.899 65.5726 208.201 65.4423C208.516 65.3189 208.879 65.2572 209.284 65.2572ZM190.486 65.312C191.048 65.312 191.487 65.36 191.816 65.4423C192.159 65.5246 192.474 65.6685 192.769 65.8811V70.4948C192.591 71.2489 192.282 71.8316 191.857 72.2224C191.425 72.5994 190.822 72.7914 190.054 72.7914C189.533 72.7914 189.094 72.7023 188.745 72.524C188.388 72.3321 188.1 72.0715 187.888 71.7425C187.675 71.4134 187.518 71.0295 187.415 70.5908C187.312 70.1314 187.264 69.6378 187.264 69.11C187.264 67.7663 187.538 66.7997 188.1 66.2033C188.669 65.6068 189.465 65.312 190.486 65.312Z" fill="white"/>
</mask>
<g mask="url(#mask0_820_7607)">
<rect x="-175.5" y="-224.304" width="702" height="526.5" fill="url(#paint0_linear_820_7607)"/>
</g>
<defs>
<linearGradient id="paint0_linear_820_7607" x1="-231.003" y1="91.2223" x2="737.948" y2="82.3812" gradientUnits="userSpaceOnUse">
<stop offset="0.153024" stop-color="#ACF8FF"/>
<stop offset="1" stop-color="#FFF27A"/>
</linearGradient>
</defs>
</svg>
