<svg width="190" height="43" viewBox="0 0 190 43" fill="none" xmlns="http://www.w3.org/2000/svg">
<mask id="mask0_830_8310" style="mask-type:luminance" maskUnits="userSpaceOnUse" x="0" y="0" width="190" height="43">
<path d="M12.9289 0C10.4648 0 8.2457 0.564057 6.27148 1.61796C4.29726 2.71269 2.7832 4.18964 1.65507 6.09335C0.52695 7.99706 0 10.1457 0 12.5059C0 14.9031 0.52695 17.0147 1.65507 18.9184C2.7832 20.8221 4.29726 22.3361 6.27148 23.3938C8.2457 24.4848 10.4277 25.0154 12.8955 25.0154C14.5877 25.0154 16.2057 24.7668 17.7568 24.2027C19.308 23.6758 20.6106 22.9002 21.7016 21.8426V12.6135H19.976V21.1041C18.1094 22.6182 15.7826 23.3566 12.966 23.3566C10.8508 23.3566 8.95078 22.9002 7.25859 21.9502C5.56641 20.9965 4.22676 19.6939 3.23965 18.0389C2.25625 16.3838 1.79609 14.5506 1.79609 12.5059C1.79609 10.4648 2.25625 8.63164 3.23965 6.97656C4.19336 5.31777 5.533 4.01524 7.22148 3.06524C8.91367 2.14864 10.8508 1.65508 12.966 1.65508C14.5172 1.65508 15.9236 1.89999 17.1928 2.36015C18.4619 2.8166 19.6234 3.55879 20.6811 4.5793L21.8092 3.38066C20.7182 2.28964 19.4119 1.44355 17.8979 0.87949C16.3838 0.315428 14.7287 0 12.9289 0ZM36.8348 0.174415L25.4904 24.8373H27.4275L37.7143 2.14864L48.0381 24.8373H49.9752L38.6309 0.174415H36.8348ZM53.6898 0.174415V14.3725C53.6898 17.8607 54.5359 20.5029 56.2652 22.3027C57.9908 24.1322 60.4215 25.0154 63.5572 25.0154C66.6559 25.0154 69.0865 24.1322 70.8492 22.3027C72.5748 20.5029 73.458 17.8607 73.458 14.3725V0.174415H71.6619V14.302C71.6619 17.3338 70.9568 19.6234 69.5801 21.1041C68.1736 22.6182 66.1994 23.3566 63.5906 23.3566C60.9484 23.3566 58.9408 22.6182 57.5678 21.1041C56.1576 19.6234 55.4896 17.3338 55.4896 14.302V0.174415H53.6898ZM81.841 0.174415V24.8373H83.6371V3.41777L100.444 24.8373H101.925V0.174415H100.129V21.5977L83.3551 0.174415H81.841ZM106.378 0.174415V1.79609H115.258V24.8373H117.054V1.79609H125.934V0.174415H106.378ZM130.354 0.174415V24.8373H146.352V23.2156H132.154V0.174415H130.354ZM150.998 0.174415V1.79609H166.959V0.174415H150.998ZM170.447 0.174415V1.79609H179.324V24.8373H181.12V1.79609H190V0.174415H170.447ZM150.998 11.5188V13.107H166.959V11.5188H150.998ZM150.998 23.2156V24.8373H166.959V23.2156H150.998ZM159.826 32.7639L156.865 40.0596H157.874L158.631 38.1781H161.478L162.261 40.0596H163.326L160.357 32.7639H159.826ZM61.7723 32.775C61.442 32.775 61.108 32.7898 60.7629 32.8158C60.4289 32.8381 60.1172 32.8789 59.8314 32.942V40.0596H60.8557V37.3691C60.8965 37.3766 60.9596 37.3803 61.0412 37.3877L61.3084 37.41C61.4049 37.41 61.4939 37.41 61.5756 37.4174H61.7723C62.1619 37.4174 62.5367 37.3729 62.9004 37.2838C63.2715 37.1947 63.598 37.0574 63.8764 36.8645C64.1658 36.6715 64.3922 36.4266 64.5666 36.126C64.7373 35.818 64.8227 35.4469 64.8227 35.0164C64.8227 34.5562 64.7262 34.1814 64.5332 33.8957C64.3514 33.6025 64.1102 33.3725 63.817 33.2092C63.5201 33.0422 63.1936 32.9309 62.8299 32.8678C62.4736 32.8084 62.1211 32.775 61.7723 32.775ZM128.617 32.775C128.458 32.775 128.283 32.7787 128.094 32.7861C127.909 32.7861 127.716 32.7898 127.519 32.7973C127.326 32.8047 127.137 32.8121 126.951 32.827C126.773 32.8344 126.617 32.8492 126.48 32.8678V40.0707C126.554 40.0818 126.677 40.093 126.851 40.1004C127.029 40.1152 127.218 40.1227 127.426 40.1301C127.63 40.1375 127.831 40.1449 128.02 40.1524C128.22 40.1598 128.376 40.1635 128.495 40.1635C129.178 40.1635 129.76 40.0559 130.239 39.8443C130.725 39.6291 131.122 39.3508 131.43 39.002C131.738 38.6531 131.961 38.2561 132.098 37.8107C132.243 37.358 132.313 36.8904 132.313 36.4117C132.313 35.8848 132.239 35.3986 132.087 34.9533C131.939 34.508 131.709 34.1258 131.401 33.8029C131.1 33.4801 130.718 33.2315 130.25 33.0533C129.79 32.8678 129.248 32.775 128.617 32.775ZM104.348 32.8678V34.7492C104.244 34.7195 104.144 34.6936 104.047 34.6676C103.958 34.6379 103.862 34.6193 103.762 34.6045C103.665 34.5897 103.557 34.5822 103.442 34.5748C103.331 34.56 103.205 34.5525 103.06 34.5525C102.214 34.5525 101.554 34.8012 101.079 35.291C100.615 35.7809 100.381 36.4822 100.381 37.3988C100.381 38.3488 100.57 39.0576 100.945 39.5141C101.327 39.9742 101.91 40.2043 102.682 40.2043C103.086 40.2043 103.439 40.1152 103.739 39.9371C104.047 39.759 104.281 39.5326 104.437 39.258H104.541L104.778 40.0781H105.405C105.35 39.785 105.316 39.4881 105.302 39.1875C105.294 38.8758 105.29 38.5492 105.29 38.2004V32.8678H104.348ZM110.76 32.8678V39.7701C110.938 39.874 111.209 39.9631 111.573 40.0373C111.94 40.1152 112.352 40.1524 112.805 40.1524C113.722 40.1524 114.434 39.9037 114.943 39.4102C115.447 38.9203 115.703 38.2041 115.703 37.2652C115.703 36.3486 115.507 35.6621 115.117 35.2094C114.731 34.7529 114.167 34.5229 113.421 34.5229C113.091 34.5229 112.779 34.5896 112.486 34.727C112.193 34.8568 111.966 35.0609 111.807 35.3318H111.707V32.8678H110.76ZM61.802 33.6582C62.0283 33.6582 62.2547 33.6805 62.4811 33.7213C62.7111 33.7547 62.9227 33.8252 63.1082 33.9254C63.29 34.0293 63.4422 34.1703 63.5572 34.3484C63.676 34.5266 63.7316 34.7529 63.7316 35.0238C63.7316 35.3393 63.6723 35.599 63.5498 35.7957C63.4311 35.9961 63.2752 36.1482 63.0748 36.2596C62.8855 36.3672 62.6666 36.4451 62.4291 36.4859C62.1879 36.5193 61.9467 36.5342 61.6981 36.5342H61.5162C61.4383 36.5342 61.3566 36.5305 61.2676 36.5268C61.1859 36.5193 61.1043 36.5156 61.0227 36.5156C60.9447 36.5082 60.8928 36.4971 60.8557 36.4859V33.7213C60.9521 33.6916 61.0857 33.6768 61.2564 33.6693C61.4346 33.6619 61.6164 33.6582 61.802 33.6582ZM128.339 33.6805H128.647C129.148 33.6805 129.56 33.7658 129.89 33.9365C130.221 34.1072 130.484 34.3262 130.681 34.5934C130.881 34.8531 131.022 35.1463 131.104 35.4691C131.185 35.7883 131.226 36.1037 131.226 36.4117C131.226 36.7754 131.182 37.1279 131.093 37.4693C131.011 37.807 130.863 38.1076 130.651 38.3748C130.443 38.642 130.169 38.8572 129.82 39.0205C129.475 39.1801 129.048 39.258 128.536 39.258H128.328C128.231 39.2506 128.131 39.2469 128.02 39.2469C127.912 39.2395 127.805 39.2357 127.701 39.2357C127.608 39.232 127.541 39.2246 127.508 39.2172V33.7324C127.556 33.725 127.623 33.7176 127.712 33.7102C127.801 33.7027 127.901 33.6953 128.013 33.6916C128.12 33.6842 128.228 33.6805 128.339 33.6805ZM160.049 34.174H160.071L160.35 35.2725L161.181 37.3172H158.939L159.774 35.291L160.049 34.174ZM68.7414 34.5117C68.3258 34.5117 67.951 34.5785 67.6207 34.7084C67.3016 34.8383 67.027 35.0238 66.8006 35.2725C66.5742 35.5174 66.4035 35.818 66.2885 36.1742C66.1697 36.5231 66.1141 36.9238 66.1141 37.3691C66.1141 37.7736 66.166 38.1484 66.2662 38.4973C66.3775 38.8387 66.5371 39.1393 66.7486 39.3916C66.9676 39.6439 67.2422 39.8443 67.5725 39.9891C67.899 40.1301 68.2887 40.2043 68.7414 40.2043C69.1533 40.2043 69.5207 40.1375 69.8436 40.0076C70.1701 39.8777 70.4447 39.6885 70.6637 39.4436C70.89 39.1949 71.0607 38.8981 71.1758 38.5492C71.2982 38.2004 71.3613 37.807 71.3613 37.3691C71.3613 36.9572 71.3057 36.5787 71.198 36.2373C71.0941 35.8885 70.9346 35.5879 70.7156 35.3318C70.4967 35.0721 70.2221 34.8717 69.8918 34.727C69.5652 34.5822 69.1793 34.5117 68.7414 34.5117ZM84.8951 34.5117C84.0527 34.5117 83.3996 34.7566 82.9432 35.2502C82.4904 35.7363 82.2641 36.4451 82.2641 37.3691C82.2641 37.7996 82.316 38.1893 82.4162 38.5381C82.5201 38.8869 82.6797 39.1838 82.8912 39.4324C83.1027 39.6774 83.3736 39.8703 83.7002 40.0076C84.0379 40.1375 84.4312 40.2043 84.884 40.2043C85.2996 40.2043 85.6893 40.1523 86.0455 40.0484C86.398 39.9408 86.6986 39.7961 86.9361 39.618L86.5762 38.8981C86.4352 39.0354 86.2311 39.1541 85.9713 39.258C85.7115 39.3545 85.4369 39.4027 85.1512 39.4027C84.4572 39.4027 83.9674 39.2395 83.6816 38.9203C83.3922 38.5975 83.2437 38.1225 83.2289 37.4916H87.0809C87.1031 37.3543 87.1143 37.2133 87.1217 37.0686C87.1291 36.9275 87.1328 36.7977 87.1328 36.69C87.1328 36.2373 87.066 35.8699 86.9287 35.5916C86.7988 35.3096 86.6244 35.0906 86.4129 34.9348C86.2014 34.7678 85.9602 34.6602 85.693 34.6045C85.4258 34.5414 85.1623 34.5117 84.8951 34.5117ZM96.2283 34.5117C95.3859 34.5117 94.7365 34.7566 94.2764 35.2502C93.8236 35.7363 93.601 36.4451 93.601 37.3691C93.601 37.7996 93.6492 38.1893 93.7531 38.5381C93.857 38.8869 94.0129 39.1838 94.2244 39.4324C94.4396 39.6774 94.7105 39.8703 95.0371 40.0076C95.3748 40.1375 95.7682 40.2043 96.2209 40.2043C96.6365 40.2043 97.0225 40.1523 97.3787 40.0484C97.735 39.9408 98.0318 39.7961 98.273 39.618L97.9131 38.8981C97.7684 39.0354 97.568 39.1541 97.3082 39.258C97.0484 39.3545 96.7738 39.4027 96.4844 39.4027C95.7941 39.4027 95.3043 39.2395 95.0148 38.9203C94.7291 38.5975 94.5807 38.1225 94.5658 37.4916H98.4178C98.4363 37.3543 98.4512 37.2133 98.4586 37.0686C98.466 36.9275 98.4697 36.7977 98.4697 36.69C98.4697 36.2373 98.3992 35.8699 98.2619 35.5916C98.132 35.3096 97.9613 35.0906 97.7498 34.9348C97.5383 34.7678 97.2971 34.6602 97.0299 34.6045C96.7627 34.5414 96.4955 34.5117 96.2283 34.5117ZM136.796 34.5117C135.954 34.5117 135.304 34.7566 134.844 35.2502C134.395 35.7363 134.165 36.4451 134.165 37.3691C134.165 37.7996 134.217 38.1893 134.321 38.5381C134.425 38.8869 134.581 39.1838 134.792 39.4324C135.008 39.6774 135.275 39.8703 135.605 40.0076C135.939 40.1375 136.336 40.2043 136.785 40.2043C137.204 40.2043 137.59 40.1523 137.947 40.0484C138.303 39.9408 138.6 39.7961 138.841 39.618L138.481 38.8981C138.336 39.0354 138.136 39.1541 137.876 39.258C137.616 39.3545 137.342 39.4027 137.052 39.4027C136.362 39.4027 135.872 39.2395 135.587 38.9203C135.297 38.5975 135.145 38.1225 135.134 37.4916H138.986C139.004 37.3543 139.019 37.2133 139.027 37.0686C139.034 36.9275 139.038 36.7977 139.038 36.69C139.038 36.2373 138.967 35.8699 138.83 35.5916C138.7 35.3096 138.529 35.0906 138.318 34.9348C138.106 34.7678 137.865 34.6602 137.598 34.6045C137.331 34.5414 137.063 34.5117 136.796 34.5117ZM143.457 34.5117C142.615 34.5117 141.966 34.7566 141.505 35.2502C141.053 35.7363 140.826 36.4451 140.826 37.3691C140.826 37.7996 140.878 38.1893 140.982 38.5381C141.086 38.8869 141.242 39.1838 141.454 39.4324C141.669 39.6774 141.94 39.8703 142.266 40.0076C142.604 40.1375 142.997 40.2043 143.446 40.2043C143.866 40.2043 144.252 40.1523 144.608 40.0484C144.964 39.9408 145.261 39.7961 145.502 39.618L145.142 38.8981C144.997 39.0354 144.797 39.1541 144.537 39.258C144.278 39.3545 144.003 39.4027 143.713 39.4027C143.023 39.4027 142.533 39.2395 142.244 38.9203C141.958 38.5975 141.806 38.1225 141.795 37.4916H145.647C145.665 37.3543 145.68 37.2133 145.688 37.0686C145.695 36.9275 145.699 36.7977 145.699 36.69C145.699 36.2373 145.628 35.8699 145.491 35.5916C145.361 35.3096 145.19 35.0906 144.979 34.9348C144.767 34.7678 144.526 34.6602 144.259 34.6045C143.992 34.5414 143.725 34.5117 143.457 34.5117ZM150.527 34.5117C150.156 34.5117 149.825 34.5859 149.532 34.7381C149.235 34.8828 148.998 35.0869 148.812 35.3541H148.72L148.534 34.6676H147.896V42.1117H148.842V39.9445C148.946 39.9853 149.042 40.0262 149.139 40.0596C149.235 40.0856 149.332 40.1115 149.428 40.1301C149.525 40.1598 149.625 40.1746 149.736 40.182C149.851 40.1969 149.978 40.2043 150.115 40.2043C150.534 40.2043 150.909 40.1338 151.247 39.9965C151.588 39.8592 151.878 39.6662 152.108 39.4102C152.349 39.1504 152.531 38.8387 152.653 38.4787C152.783 38.1076 152.85 37.6957 152.85 37.243C152.85 36.293 152.657 35.6027 152.275 35.1686C151.889 34.7307 151.306 34.5117 150.527 34.5117ZM172.28 34.5117C171.842 34.5117 171.479 34.5971 171.189 34.7678C170.911 34.9348 170.659 35.1389 170.44 35.3838H170.336L170.154 34.6676H169.504V40.0596H170.451V36.434C170.555 36.1186 170.725 35.8625 170.963 35.6621C171.212 35.458 171.516 35.3541 171.879 35.3541C172.11 35.3541 172.299 35.3912 172.444 35.4691C172.596 35.5359 172.711 35.6436 172.792 35.7957C172.874 35.9404 172.93 36.1223 172.956 36.3412C172.985 36.5602 172.996 36.8125 172.996 37.102V40.0596H173.943V36.5861C174.039 36.1742 174.199 35.8662 174.425 35.6621C174.652 35.458 174.96 35.3541 175.349 35.3541C175.59 35.3541 175.78 35.3875 175.924 35.458C176.077 35.5174 176.192 35.6176 176.273 35.7549C176.359 35.8848 176.411 36.048 176.44 36.2484C176.474 36.4451 176.492 36.6826 176.492 36.9572V40.0596H177.435V36.9572C177.435 36.4785 177.401 36.0815 177.335 35.766C177.264 35.4506 177.16 35.202 177.015 35.0164C176.871 34.8309 176.681 34.701 176.448 34.623C176.225 34.5488 175.947 34.5117 175.616 34.5117C175.227 34.5117 174.874 34.6045 174.559 34.79C174.243 34.9756 173.984 35.2242 173.779 35.5396C173.65 35.1686 173.457 34.9051 173.204 34.7492C172.956 34.5896 172.648 34.5117 172.28 34.5117ZM182.222 34.5117C181.803 34.5117 181.428 34.5785 181.101 34.7084C180.778 34.8383 180.504 35.0238 180.277 35.2725C180.051 35.5174 179.88 35.818 179.765 36.1742C179.65 36.5231 179.591 36.9238 179.591 37.3691C179.591 37.7736 179.643 38.1484 179.743 38.4973C179.854 38.8387 180.014 39.1393 180.229 39.3916C180.448 39.6439 180.719 39.8443 181.049 39.9891C181.376 40.1301 181.769 40.2043 182.222 40.2043C182.63 40.2043 182.997 40.1375 183.32 40.0076C183.647 39.8777 183.921 39.6885 184.14 39.4436C184.367 39.1949 184.537 38.8981 184.656 38.5492C184.779 38.2004 184.838 37.807 184.838 37.3691C184.838 36.9572 184.786 36.5787 184.675 36.2373C184.571 35.8885 184.411 35.5879 184.192 35.3318C183.973 35.0721 183.699 34.8717 183.369 34.727C183.042 34.5822 182.66 34.5117 182.222 34.5117ZM91.6045 34.5414C91.2891 34.5414 91.0256 34.6193 90.8103 34.7678C90.6062 34.9125 90.4244 35.1166 90.2686 35.3838H90.1758L89.9902 34.6676H89.3334V40.0596H90.2797V36.4006C90.3242 36.1223 90.4504 35.8885 90.6471 35.7029C90.8549 35.5174 91.1369 35.4246 91.5006 35.4246C91.5971 35.4246 91.6973 35.4395 91.8086 35.4691C91.9162 35.4951 92.0312 35.5248 92.1463 35.5582L92.3318 34.6564C92.202 34.6156 92.0721 34.5859 91.9422 34.5748C91.8123 34.5525 91.6973 34.5414 91.6045 34.5414ZM167.222 34.5414C166.907 34.5414 166.643 34.6193 166.432 34.7678C166.224 34.9125 166.042 35.1166 165.886 35.3838H165.794L165.608 34.6676H164.951V40.0596H165.897V36.4006C165.946 36.1223 166.068 35.8885 166.265 35.7029C166.473 35.5174 166.755 35.4246 167.118 35.4246C167.215 35.4246 167.315 35.4395 167.426 35.4691C167.538 35.4951 167.649 35.5248 167.764 35.5582L167.95 34.6564C167.82 34.6156 167.69 34.5859 167.56 34.5748C167.43 34.5525 167.319 34.5414 167.222 34.5414ZM189.273 34.5414C188.957 34.5414 188.69 34.6193 188.479 34.7678C188.274 34.9125 188.093 35.1166 187.937 35.3838H187.844L187.658 34.6676H187.002V40.0596H187.944V36.4006C187.992 36.1223 188.119 35.8885 188.315 35.7029C188.519 35.5174 188.805 35.4246 189.169 35.4246C189.265 35.4246 189.365 35.4395 189.477 35.4691C189.584 35.4951 189.699 35.5248 189.814 35.5582L190 34.6564C189.87 34.6156 189.74 34.5859 189.61 34.5748C189.48 34.5525 189.365 34.5414 189.273 34.5414ZM72.5822 34.6676L74.6232 40.1709H75.1168L76.5678 36.7012V36.7086L76.8758 35.7029L77.143 36.7012V36.69L78.6533 40.1709H79.1654L81.1285 34.6676H80.223L79.2174 37.718L78.9799 38.7867H78.9094L78.6311 37.7477L78.1895 36.7086L77.3063 34.6676H76.5752L75.332 37.6957L75.0463 38.7941H74.9535L74.7605 37.718L73.6176 34.6676H72.5822ZM116.921 34.6676L119.333 40.0893C119.266 40.3416 119.192 40.5494 119.106 40.7053C119.032 40.8723 118.947 40.9984 118.85 41.0875C118.757 41.1766 118.65 41.2359 118.535 41.2693C118.423 41.3064 118.301 41.3213 118.164 41.3213C118.06 41.3213 117.956 41.3064 117.856 41.2693L117.7 42.0709C117.893 42.134 118.127 42.1637 118.401 42.1637C118.654 42.1637 118.876 42.0895 119.069 41.9373C119.266 41.7963 119.444 41.5996 119.6 41.3547C119.767 41.1135 119.912 40.8352 120.041 40.5197C120.179 40.208 120.312 39.8814 120.442 39.5438L122.212 34.6676H121.244L120.127 38.0668L119.867 39.1133H119.733L119.418 38.0742L118.041 34.6676H116.921ZM68.7525 35.3133C69.042 35.3133 69.2869 35.3727 69.491 35.4877C69.6988 35.6027 69.8621 35.7586 69.9846 35.9516C70.1145 36.1334 70.2072 36.3523 70.2629 36.5973C70.326 36.8422 70.3557 37.102 70.3557 37.3691C70.3557 38.7236 69.8213 39.4027 68.7525 39.4027C68.4519 39.4027 68.1996 39.3434 67.9918 39.2283C67.7877 39.1096 67.6207 38.9574 67.4908 38.7645C67.3572 38.5715 67.2645 38.3563 67.2014 38.1188C67.1457 37.8701 67.1197 37.6215 67.1197 37.3691C67.1197 36.6752 67.257 36.1631 67.5316 35.8254C67.81 35.484 68.2182 35.3133 68.7525 35.3133ZM84.9025 35.3133C85.3293 35.3133 85.6559 35.4246 85.8897 35.651C86.1309 35.8773 86.2422 36.2633 86.2273 36.8125H83.2697C83.318 36.2633 83.4813 35.8773 83.7633 35.651C84.0453 35.4246 84.4238 35.3133 84.9025 35.3133ZM96.2395 35.3133C96.6625 35.3133 96.9928 35.4246 97.2266 35.651C97.4641 35.8773 97.5791 36.2633 97.5642 36.8125H94.6066C94.6549 36.2633 94.8182 35.8773 95.1002 35.651C95.3785 35.4246 95.7608 35.3133 96.2395 35.3133ZM136.807 35.3133C137.23 35.3133 137.561 35.4246 137.795 35.651C138.032 35.8773 138.147 36.2633 138.132 36.8125H135.175C135.223 36.2633 135.386 35.8773 135.668 35.651C135.946 35.4246 136.329 35.3133 136.807 35.3133ZM143.469 35.3133C143.892 35.3133 144.222 35.4246 144.456 35.651C144.693 35.8773 144.808 36.2633 144.793 36.8125H141.836C141.884 36.2633 142.047 35.8773 142.329 35.651C142.608 35.4246 142.99 35.3133 143.469 35.3133ZM150.312 35.3133C150.864 35.3133 151.258 35.4877 151.492 35.8365C151.725 36.1854 151.84 36.6529 151.84 37.2355C151.84 37.9518 151.685 38.4936 151.369 38.8572C151.054 39.2209 150.62 39.4027 150.063 39.4027C149.777 39.4027 149.54 39.3693 149.354 39.31C149.172 39.2469 148.998 39.1615 148.842 39.0539V36.5676C148.946 36.1408 149.113 35.8254 149.347 35.6213C149.577 35.4172 149.9 35.3133 150.312 35.3133ZM182.229 35.3133C182.519 35.3133 182.764 35.3727 182.971 35.4877C183.176 35.6027 183.339 35.7586 183.461 35.9516C183.595 36.1334 183.688 36.3523 183.74 36.5973C183.803 36.8422 183.832 37.102 183.832 37.3691C183.832 38.7236 183.298 39.4027 182.229 39.4027C181.929 39.4027 181.676 39.3434 181.469 39.2283C181.264 39.1096 181.097 38.9574 180.968 38.7645C180.838 38.5715 180.741 38.3563 180.678 38.1188C180.626 37.8701 180.596 37.6215 180.596 37.3691C180.596 36.6752 180.734 36.1631 181.008 35.8254C181.29 35.484 181.695 35.3133 182.229 35.3133ZM113.288 35.3244C113.532 35.3244 113.744 35.3764 113.915 35.4766C114.093 35.5731 114.237 35.7066 114.356 35.8773C114.471 36.048 114.557 36.2559 114.612 36.4934C114.668 36.7272 114.694 36.9795 114.694 37.2541C114.694 37.9889 114.534 38.5232 114.212 38.8572C113.896 39.1875 113.469 39.3508 112.928 39.3508C112.449 39.3508 112.041 39.284 111.707 39.1541V36.5973C111.759 36.434 111.833 36.2744 111.922 36.126C112.018 35.9664 112.13 35.8291 112.26 35.7141C112.389 35.5916 112.538 35.4951 112.701 35.4246C112.872 35.3578 113.069 35.3244 113.288 35.3244ZM103.112 35.3541C103.416 35.3541 103.654 35.3801 103.832 35.4246C104.018 35.4691 104.188 35.5471 104.348 35.6621V38.1596C104.251 38.5678 104.084 38.8832 103.854 39.0947C103.621 39.2988 103.294 39.4027 102.878 39.4027C102.596 39.4027 102.359 39.3545 102.17 39.258C101.977 39.1541 101.821 39.0131 101.706 38.835C101.591 38.6568 101.505 38.449 101.45 38.2115C101.394 37.9629 101.368 37.6957 101.368 37.41C101.368 36.6826 101.516 36.1594 101.821 35.8365C102.129 35.5137 102.559 35.3541 103.112 35.3541Z" fill="white"/>
</mask>
<g mask="url(#mask0_830_8310)">
<rect x="-95" y="-121.418" width="380" height="285" fill="url(#paint0_linear_830_8310)"/>
</g>
<defs>
<linearGradient id="paint0_linear_830_8310" x1="-125.045" y1="49.3796" x2="399.459" y2="44.5938" gradientUnits="userSpaceOnUse">
<stop offset="0.153024" stop-color="#ACF8FF"/>
<stop offset="1" stop-color="#FFF27A"/>
</linearGradient>
</defs>
</svg>
