<svg width="75" height="76" viewBox="0 0 75 76" fill="none" xmlns="http://www.w3.org/2000/svg">
<path fill-rule="evenodd" clip-rule="evenodd" d="M37.4249 40.7453H37.5499C46.1796 40.7453 53.175 33.7399 53.175 25.0977C53.175 16.4556 46.1796 9.4502 37.5499 9.4502H37.4249C28.8531 9.51748 21.9249 16.4978 21.9249 25.0977C21.9249 33.6976 28.8531 40.678 37.4249 40.7453V40.7453ZM49.9531 26.6625H46.8281C46.7437 28.0911 46.5437 29.4634 46.2437 30.7543H48.7031C49.3527 29.473 49.7757 28.0885 49.9531 26.6625V26.6625ZM46.4531 33.8838H45.2578C45.0281 34.4518 44.7734 34.9917 44.5015 35.5033C45.2054 35.0309 45.8598 34.4882 46.4546 33.8838H46.4531ZM43.0203 30.7543C43.3609 29.5072 43.5984 28.1318 43.6968 26.6625H39.1124V30.7543H43.0203ZM39.1124 33.8838H41.8218C41.7015 34.1154 41.5781 34.3376 41.4499 34.552C40.6687 35.8523 39.8609 36.6566 39.1124 37.1119V33.8838V33.8838ZM35.9874 30.7543V26.6625H31.3031C31.4015 28.1318 31.639 29.5072 31.9796 30.7543H35.9874ZM33.1781 33.8838H35.9874V37.1698C35.2124 36.727 34.3656 35.9117 33.5499 34.552C33.4191 34.3331 33.2951 34.1103 33.1781 33.8838V33.8838ZM28.7562 30.7543C28.4469 29.4092 28.2514 28.0405 28.1718 26.6625H25.1468C25.3281 28.1177 25.7593 29.4978 26.3968 30.7543H28.7562ZM28.6468 33.8838H29.7406C29.9562 34.4127 30.1906 34.9166 30.4421 35.3954C29.7974 34.9487 29.1959 34.4427 28.6453 33.8838H28.6468ZM46.8281 23.533C46.7487 22.155 46.5532 20.7862 46.2437 19.4411H48.7031C49.3532 20.7223 49.7762 22.1068 49.9531 23.533H46.8281V23.533ZM46.4531 16.3116H45.2578C45.0281 15.7436 44.7734 15.2038 44.5015 14.6921C45.2062 15.1662 45.8609 15.7092 46.4546 16.3116H46.4531ZM39.1124 16.3116H41.8218C41.7048 16.0851 41.5808 15.8623 41.4499 15.6435C40.6687 14.3416 39.8609 13.5389 39.1124 13.0836V16.3116V16.3116ZM43.0203 19.4411H39.1124V23.533H43.6968C43.6073 22.15 43.3806 20.7793 43.0203 19.4411V19.4411ZM35.9874 13.0257V16.3116H33.1781C33.2984 16.0801 33.4234 15.8579 33.5499 15.6435C34.364 14.2837 35.2124 13.4685 35.9874 13.0241V13.0257ZM35.9874 19.4411H31.9796C31.639 20.6883 31.4015 22.0637 31.3031 23.533H35.9874V19.4411ZM30.4406 14.8001C30.1906 15.2789 29.9562 15.7828 29.7421 16.3116H28.6468C29.1953 15.753 29.7968 15.2476 30.4421 14.8001H30.4406ZM28.7562 19.4411H26.3968C25.7472 20.7225 25.3242 22.1069 25.1468 23.533H28.1718C28.2562 22.1028 28.4562 20.7321 28.7562 19.4411V19.4411ZM13.6406 26.6625C12.0187 26.6249 10.3906 27.6217 9.86401 29.1739C9.73276 29.562 9.66088 30.069 9.60932 30.5306C9.55463 31.0344 9.51245 31.64 9.47963 32.2987C9.41191 33.8072 9.377 35.3171 9.37495 36.8271C9.36245 39.9848 9.44213 43.2708 9.5562 44.2894C9.7562 46.0732 10.7812 47.735 11.6718 49.1809L11.7718 49.342C12.0421 49.7801 12.3093 50.2167 12.5718 50.6658C13.7499 52.6859 15.0312 54.0472 16.1921 55.2818L16.2187 55.3084C16.8718 56.0016 17.4765 56.6463 18.0468 57.3645C17.4936 57.9461 17.1857 58.719 17.1874 59.5223V62.6518C17.1874 63.4818 17.5167 64.2778 18.1027 64.8647C18.6888 65.4516 19.4836 65.7813 20.3124 65.7813H32.8124C33.6412 65.7813 34.4361 65.4516 35.0222 64.8647C35.6082 64.2778 35.9374 63.4818 35.9374 62.6518V59.5223C35.9374 58.7303 35.6375 57.9677 35.0981 57.3884C34.5588 56.809 33.8202 56.4561 33.0312 56.4006C32.8203 54.6231 32.5468 52.2227 32.5218 51.5389C32.4999 50.9506 32.3031 50.3763 32.1187 49.9398C31.9252 49.4898 31.7028 49.0529 31.4531 48.6316C31.1963 48.194 30.921 47.7675 30.6281 47.3532L30.5671 47.2687L30.5515 47.2452L30.5453 47.2374L30.5421 47.2327L30.5265 47.2108L25.4578 40.811L25.4109 40.764V40.7609L25.4046 40.7547L25.3671 40.714C25.1341 40.4558 24.91 40.1896 24.6953 39.9159C24.2171 39.3179 23.8004 38.6731 23.4515 37.9913C23.0953 37.259 22.4203 36.5564 21.3843 36.5048C20.5015 36.4578 19.8093 36.9273 19.4062 37.2887C19.1842 37.4891 18.9817 37.7102 18.8015 37.949L18.7312 37.0071L18.7234 36.9038C18.5703 34.8414 18.3843 32.3457 17.7796 30.3475C17.0703 28.0097 15.4937 26.7079 13.639 26.664L13.6406 26.6625ZM29.2843 48.1622L30.5421 47.2327L29.2843 48.1606V48.1622ZM29.8828 56.3928C29.6796 54.6716 29.4265 52.423 29.3984 51.6532C29.3927 51.607 29.3828 51.5614 29.3687 51.517C29.3331 51.3929 29.2898 51.2711 29.239 51.1524C29.0981 50.8295 28.9369 50.516 28.7562 50.2136C28.5456 49.8547 28.3199 49.5049 28.0796 49.1652L28.039 49.1073L23.089 42.8577L23.0609 42.8264C22.7751 42.5095 22.5005 42.1828 22.2374 41.8469C21.8164 41.3123 21.4297 40.7515 21.0796 40.1679L21.0687 40.1851C20.9281 40.4464 20.8499 40.6858 20.8265 40.8423C20.7406 41.3962 20.7843 41.778 20.8281 41.9845C20.8413 42.0505 20.8595 42.1154 20.8828 42.1786V42.1833L23.7453 47.8758L21.0874 49.5016L21.0484 49.4484L20.9406 49.2998C20.3828 48.5293 19.8307 47.7548 19.2843 46.9761C18.3359 45.6242 17.2015 43.9655 16.6421 42.9703C16.2234 42.2271 16.0296 41.2429 15.9062 40.3525C15.7789 39.3292 15.6825 38.3022 15.6171 37.2731L15.614 37.2387C15.4515 35.0511 15.2828 32.8886 14.789 31.2566C14.5734 30.5446 14.2953 30.1863 14.0953 30.0126C13.9515 29.8779 13.7639 29.8001 13.5671 29.7936C13.1406 29.7826 12.8578 30.0783 12.8218 30.1847C12.8187 30.1941 12.8046 30.2473 12.7843 30.3631C12.7561 30.5308 12.7332 30.6994 12.7156 30.8685C12.6703 31.2879 12.6312 31.8262 12.5999 32.4552C12.5354 33.9158 12.5026 35.3776 12.5015 36.8396C12.4874 40.0302 12.5734 43.1331 12.664 43.9405C12.7765 44.9498 13.4046 46.0279 14.4328 47.699L14.4374 47.7069C14.7031 48.1387 14.989 48.6035 15.2718 49.0885C16.2609 50.7847 17.3265 51.9223 18.4937 53.1616L18.5203 53.1897C19.389 54.113 20.3328 55.1144 21.2234 56.3928H29.8828V56.3928ZM21.5624 39.5654C21.5624 39.5654 21.5562 39.567 21.5453 39.5764C21.5514 39.5735 21.5572 39.5698 21.5624 39.5654ZM32.8124 62.6518V59.5223H20.3124V62.6518H32.8124ZM65.1359 29.1739C64.6078 27.6217 62.9812 26.6249 61.3593 26.664C59.5062 26.7079 57.9296 28.0097 57.2203 30.3475C56.6156 32.3457 56.4296 34.8414 56.2765 36.9038L56.2687 37.0071L56.1984 37.949C56.0109 37.7034 55.8078 37.4796 55.5937 37.2887C55.1906 36.9288 54.4999 36.4594 53.6156 36.5032C52.5796 36.5564 51.9046 37.259 51.5484 37.9897C51.1989 38.6715 50.7816 39.3163 50.3031 39.9144C50.0884 40.1886 49.8643 40.4553 49.6312 40.714L49.5953 40.7547L49.589 40.7625L49.5421 40.811L44.4749 47.2108L44.4578 47.2327L44.4546 47.2374L44.4499 47.2452L44.4328 47.2687C44.1168 47.7087 43.8212 48.163 43.5468 48.6301C43.2965 49.0518 43.0737 49.4893 42.8796 49.9398C42.6968 50.3763 42.4999 50.9506 42.4781 51.5389C42.4531 52.2227 42.1812 54.6231 41.9687 56.4006C41.1797 56.4561 40.4411 56.809 39.9018 57.3884C39.3624 57.9677 39.0625 58.7303 39.0624 59.5223V62.6518C39.0624 63.4818 39.3917 64.2778 39.9777 64.8647C40.5638 65.4516 41.3586 65.7813 42.1874 65.7813H54.6874C55.5162 65.7813 56.3111 65.4516 56.8972 64.8647C57.4832 64.2778 57.8124 63.4818 57.8124 62.6518V59.5223C57.813 58.7185 57.5048 57.9453 56.9515 57.3629C57.5234 56.6463 58.1265 56.0016 58.7796 55.3084L58.8062 55.2803C59.9671 54.0472 61.2484 52.6859 62.4265 50.6658C62.689 50.2167 62.9578 49.7817 63.2265 49.342L63.3265 49.1809C64.2171 47.735 65.2421 46.0732 65.4421 44.2894C65.5562 43.2708 65.6359 39.9848 65.6234 36.8271C65.6218 35.3171 65.5874 33.8073 65.5203 32.2987C65.4937 31.7082 65.4504 31.1186 65.3906 30.5306C65.3406 30.069 65.2687 29.5604 65.1359 29.1739V29.1739ZM45.7156 48.1622L44.4578 47.2343L45.7156 48.1622ZM53.7781 56.3928C54.6687 55.1144 55.6109 54.113 56.4812 53.1897L56.5062 53.1616C57.6734 51.9223 58.7406 50.7832 59.7281 49.0885C60.0093 48.6035 60.2953 48.1403 60.5624 47.7069L60.5671 47.699C61.5968 46.0279 62.2234 44.9498 62.3359 43.9405C62.4265 43.1331 62.5109 40.0302 62.4984 36.8396C62.4921 35.2655 62.4624 33.7101 62.3999 32.4552C62.3687 31.8262 62.3296 31.2879 62.2843 30.8685C62.2667 30.6994 62.2438 30.5308 62.2156 30.3631C62.2059 30.3031 62.1934 30.2436 62.1781 30.1847C62.1421 30.0783 61.8593 29.7826 61.4343 29.7936C61.2371 29.7997 61.0488 29.8776 60.9046 30.0126C60.7046 30.1847 60.4265 30.5446 60.2109 31.2566C59.7171 32.8871 59.5484 35.0511 59.3859 37.2387L59.3828 37.2731C59.3046 38.3434 59.2234 39.423 59.0937 40.3525C58.9718 41.2429 58.7765 42.2271 58.3593 42.9719C57.7984 43.9655 56.664 45.6242 55.7156 46.9777C55.1692 47.7558 54.6171 48.5298 54.0593 49.2998L53.9499 49.4484L53.9125 49.5016L51.2546 47.8743L54.1156 42.1833L54.1171 42.1786C54.1403 42.1154 54.1586 42.0505 54.1718 41.9845C54.2156 41.778 54.2593 41.3962 54.1734 40.8423C54.1289 40.6115 54.0471 40.3895 53.9312 40.1851L53.9203 40.1679C53.5359 40.8172 53.1124 41.3993 52.764 41.8453C52.5006 42.1819 52.2254 42.5091 51.939 42.8264L51.9093 42.8577L46.9609 49.1073L46.9203 49.1652C46.6801 49.505 46.4544 49.8548 46.2437 50.2136C46.0562 50.5328 45.8843 50.8598 45.7609 51.1524C45.6999 51.298 45.6578 51.4184 45.6312 51.5155C45.6172 51.5604 45.6072 51.6065 45.6015 51.6532C45.5734 52.423 45.3203 54.6731 45.1171 56.3928H53.7765H53.7781ZM53.4374 39.5654C53.4374 39.5654 53.4437 39.567 53.4546 39.5764C53.4485 39.5734 53.4427 39.5697 53.4374 39.5654V39.5654ZM42.1874 62.6518V59.5223H54.6874V62.6518H42.1874Z" fill="#9CDBFF"/>
</svg>
