<svg width="67" height="67" viewBox="0 0 67 67" fill="none" xmlns="http://www.w3.org/2000/svg">
<path d="M11.429 14.9243C11.8784 13.0578 12.9428 11.3969 14.4508 10.2089C15.9589 9.0209 17.8228 8.37494 19.7426 8.375H47.2628C51.213 8.375 54.6496 11.0829 55.5764 14.9243L61.1374 38.0197C61.4883 39.477 61.504 40.9949 61.1835 42.4591C60.8629 43.9234 60.2143 45.2958 59.2866 46.4732C58.3589 47.6506 57.1763 48.6021 55.8276 49.2563C54.479 49.9105 52.9995 50.2503 51.5006 50.25H29.3124V46.0625H51.4978C52.3633 46.0625 53.2176 45.8662 53.9962 45.4883C54.7749 45.1104 55.4578 44.5609 55.9933 43.881C56.5289 43.2011 56.9033 42.4085 57.0884 41.563C57.2734 40.7175 57.2642 39.841 57.0616 38.9996L51.5062 15.9041C51.2767 14.9516 50.7334 14.104 49.9637 13.4978C49.1939 12.8917 48.2426 12.5622 47.2628 12.5625H19.7454C17.7298 12.5625 15.9766 13.9444 15.502 15.9041L13.6205 23.7292H10.4687C10.0667 23.7292 9.67304 23.7599 9.28779 23.8185L11.429 14.9243ZM29.2845 57.2292H48.1618C48.717 57.2292 49.2496 57.0086 49.6423 56.6159C50.0349 56.2233 50.2555 55.6907 50.2555 55.1354C50.2555 54.5801 50.0349 54.0476 49.6423 53.6549C49.2496 53.2623 48.717 53.0417 48.1618 53.0417H29.318V56.5313C29.318 56.7658 29.304 57.0003 29.2845 57.2292V57.2292ZM16.052 40.4792C16.9775 40.4792 17.8651 40.1115 18.5195 39.4571C19.1739 38.8027 19.5416 37.9151 19.5416 36.9896C19.5416 36.0641 19.1739 35.1765 18.5195 34.5221C17.8651 33.8677 16.9775 33.5 16.052 33.5C15.1265 33.5 14.2389 33.8677 13.5845 34.5221C12.9301 35.1765 12.5624 36.0641 12.5624 36.9896C12.5624 37.9151 12.9301 38.8027 13.5845 39.4571C14.2389 40.1115 15.1265 40.4792 16.052 40.4792V40.4792ZM5.58325 31.4063C5.58325 28.7095 7.77192 26.5208 10.4687 26.5208H21.6353C22.2771 26.5205 22.9127 26.6466 23.5058 26.8919C24.0988 27.1373 24.6377 27.4971 25.0917 27.9508C25.5456 28.4044 25.9057 28.9431 26.1514 29.536C26.3971 30.1289 26.5235 30.7645 26.5235 31.4063V56.5313C26.5235 57.8269 26.0088 59.0696 25.0926 59.9858C24.1764 60.902 22.9338 61.4167 21.6381 61.4167H10.4715C9.82966 61.417 9.19408 61.2909 8.60104 61.0456C8.00799 60.8002 7.46909 60.4404 7.01514 59.9868C6.5612 59.5331 6.20109 58.9944 5.9554 58.4015C5.70971 57.8086 5.58325 57.173 5.58325 56.5313V31.4063ZM10.4687 30.7083C10.2836 30.7083 10.1061 30.7819 9.97517 30.9127C9.84428 31.0436 9.77075 31.2212 9.77075 31.4063V56.5313C9.77075 56.9165 10.0834 57.2292 10.4687 57.2292H21.6353C21.8204 57.2292 21.998 57.1556 22.1288 57.0248C22.2597 56.8939 22.3333 56.7164 22.3333 56.5313V31.4063C22.3333 31.2212 22.2597 31.0436 22.1288 30.9127C21.998 30.7819 21.8204 30.7083 21.6353 30.7083H10.4687Z" fill="black"/>
</svg>
