<svg width="63" height="51" viewBox="0 0 63 51" fill="none" xmlns="http://www.w3.org/2000/svg">
<path d="M48.2344 29.3028C47.3003 23.6902 44.3471 6.52588 38.6171 6.52588C37.239 6.52588 36.0095 7.10582 34.9749 7.89504C33.9767 8.65105 32.7562 9.06051 31.501 9.06051C30.2459 9.06051 29.0254 8.65105 28.0272 7.89504C26.9926 7.11266 25.7631 6.52588 24.385 6.52588C18.6559 6.52588 15.7028 23.6863 14.7667 29.3009C18.586 30.5321 23.9922 31.5619 31.5001 31.5619C39.0079 31.5619 44.418 30.5341 48.2344 29.3028ZM62.3012 25.6667C62.0076 25.4708 61.6562 25.3787 61.3035 25.4053C60.9508 25.4319 60.6174 25.5757 60.357 25.8134C60.2586 25.9014 50.3882 34.6914 31.4991 34.6914C12.7152 34.6914 2.73366 25.8956 2.63326 25.8076C2.37214 25.5733 2.0396 25.4326 1.68866 25.408C1.33771 25.3834 0.988572 25.4762 0.696908 25.6717C0.405244 25.8671 0.187851 26.154 0.0793933 26.4865C-0.0290644 26.819 -0.0223416 27.178 0.0984897 27.5063C0.170349 27.7038 7.70968 47.2095 31.5001 47.2095C55.2904 47.2095 62.8298 27.7038 62.9016 27.5063C63.0236 27.1773 63.0308 26.8171 62.9221 26.4835C62.8134 26.1499 62.5951 25.8623 62.3021 25.6667H62.3012Z" fill="#9CDBFF"/>
</svg>
