<svg width="21" height="21" viewBox="0 0 21 21" fill="none" xmlns="http://www.w3.org/2000/svg">
<path d="M10.5 11.375C11.9497 11.375 13.125 10.1997 13.125 8.75C13.125 7.30025 11.9497 6.125 10.5 6.125C9.05025 6.125 7.875 7.30025 7.875 8.75C7.875 10.1997 9.05025 11.375 10.5 11.375Z" stroke="black" stroke-width="2" stroke-linecap="round" stroke-linejoin="round"/>
<path d="M10.5 1.75C8.64348 1.75 6.86301 2.4875 5.55025 3.80025C4.2375 5.11301 3.5 6.89348 3.5 8.75C3.5 10.4055 3.85175 11.4887 4.8125 12.6875L10.5 19.25L16.1875 12.6875C17.1483 11.4887 17.5 10.4055 17.5 8.75C17.5 6.89348 16.7625 5.11301 15.4497 3.80025C14.137 2.4875 12.3565 1.75 10.5 1.75V1.75Z" stroke="black" stroke-width="2" stroke-linecap="round" stroke-linejoin="round"/>
</svg>
