<svg width="138" height="69" viewBox="0 0 138 69" fill="none" xmlns="http://www.w3.org/2000/svg">
<g clip-path="url(#clip0_774_5256)">
<path d="M38.3664 0.0649416C39.3471 1.33088 40.3052 2.59114 41.2389 3.86916C41.3718 4.05118 41.4295 4.31623 41.4463 4.54831C41.4783 4.98948 41.4397 5.43549 41.4644 5.8776C41.4728 6.0291 41.5465 6.21124 41.6526 6.31747C42.3394 7.00467 43.0376 7.68074 43.7458 8.34597C43.9097 8.49992 43.9478 8.66095 43.9273 8.86252C43.9037 9.09574 43.8792 9.3291 43.8647 9.56299C43.8388 9.98034 43.8236 10.3984 43.7974 10.8157C43.7741 11.186 43.8512 11.5242 44.0042 11.8686C44.1387 12.1714 44.2281 12.5156 44.2433 12.8458C44.292 13.9003 44.3802 14.9641 44.2888 16.0101C44.23 16.6846 43.9199 17.3491 43.6573 17.9917C43.1368 19.2655 42.5771 20.5235 42.0224 21.7832C41.5527 22.8501 41.0645 23.9088 40.5894 24.9734C40.0023 26.2889 39.4185 27.6058 38.8377 28.9241C38.7132 29.2067 38.5335 29.2437 38.1266 29.2133C37.4044 29.1595 36.6776 29.1407 35.9532 29.1501C35.3975 29.1573 34.8339 29.1833 34.2893 29.2844C33.301 29.4679 32.306 29.654 31.3467 29.9463C29.6673 30.4579 28.1236 31.2773 26.7549 32.3708C25.5019 33.3718 24.4498 34.5666 23.6429 35.97C22.8624 37.3275 22.3363 38.7754 22.0784 40.3088C21.9025 41.3543 21.8835 42.4142 21.9851 43.4813C22.1261 44.9624 22.53 46.3555 23.245 47.6511C23.5457 48.196 23.9152 48.7126 24.3161 49.1897C24.5872 49.5125 24.4617 49.8171 24.3909 50.1079C24.0102 51.6703 23.3688 53.1094 22.3299 54.3628C21.4492 55.4254 20.3814 56.2419 19.1622 56.8687C18.041 57.4452 16.847 57.8521 15.6038 58.0064C14.4749 58.1465 13.3214 58.1898 12.1847 58.1405C10.7807 58.0795 9.40956 57.7496 8.09286 57.2461C6.94745 56.8081 5.85002 56.2565 4.9137 55.4633C4.51038 55.1216 4.22901 54.6263 3.92769 54.1771C2.78557 52.4746 1.94176 50.6267 1.33478 48.6747C0.904073 47.2896 0.54831 45.8835 0.389201 44.4361C0.296073 43.589 0.205909 42.7415 0.0897657 41.8808C0.06512 40.5245 0.06512 39.1817 0.0898269 37.795C0.207356 36.7306 0.236241 35.6993 0.408432 34.6924C0.648773 33.287 0.968392 31.8931 1.30382 30.5062C1.90563 28.018 2.84984 25.6511 3.9536 23.3457C5.00998 21.1393 6.24 19.0314 7.67928 17.0532C8.45513 15.9869 9.29089 14.9616 10.1381 13.9499C10.7786 13.1851 11.4499 12.4404 12.1625 11.7427C12.9509 10.9707 13.7803 10.2363 14.6316 9.53342C15.5334 8.78896 16.4613 8.07193 17.4144 7.39422C19.3669 6.00594 21.4331 4.80388 23.6272 3.8347C24.8194 3.30809 26.0201 2.79355 27.2437 2.34622C28.9754 1.71312 30.74 1.17322 32.5586 0.839174C33.8116 0.609002 35.0701 0.407851 36.3261 0.193998C36.5824 0.150366 36.8389 0.107929 37.0953 0.0649414C37.5088 0.0649415 37.9224 0.0649415 38.3664 0.0649416Z" fill="#3B80AD"/>
<path d="M26.9733 69.0651C26.6555 69.0219 26.3684 68.9435 26.0808 68.9417C24.9126 68.9345 23.7859 68.6471 22.664 68.3942C21.644 68.1643 20.6539 67.7897 19.6659 67.4363C18.9395 67.1765 18.2378 66.848 17.5251 66.5502C17.5338 66.5162 17.5424 66.4822 17.551 66.4482C18.2276 66.497 18.9037 66.5673 19.5812 66.5877C20.0849 66.603 20.6005 66.609 21.0932 66.521C21.9307 66.3713 22.7701 66.1939 23.5797 65.9371C24.5621 65.6254 25.4585 65.1071 26.2218 64.414C26.9796 63.726 27.6797 62.9747 28.4184 62.2379C28.6285 62.548 28.9275 62.8118 29.419 62.5106C29.726 62.3225 29.7197 62.0383 29.6608 61.7706C29.5856 61.4286 29.2931 61.3279 28.9144 61.3312C30.6116 58.3451 30.5922 55.3957 28.8375 52.4326C29.3274 52.5835 29.786 52.7674 30.2624 52.8623C31.1718 53.0434 32.0897 53.2106 33.0239 53.0331C33.5582 52.9315 33.9681 53.1624 34.3452 53.5013C35.393 54.4429 36.2023 55.5475 36.5866 56.9132C36.7456 57.4779 36.8137 58.0702 36.8971 58.6536C37.1018 60.0843 36.798 61.4625 36.3674 62.8072C36.0085 63.9278 35.4097 64.9305 34.6443 65.8388C33.587 67.0935 32.3209 68.0814 30.8899 68.8657C30.6968 68.9715 30.4436 68.9681 30.2075 69.0402C29.1324 69.0651 28.0681 69.0651 26.9733 69.0651Z" fill="#1B3E6E"/>
<path d="M6.38241 57.2459C7.31637 57.7265 8.25062 58.1999 9.26728 58.4986C10.1919 58.7702 11.1179 59.0208 12.0843 59.0657C12.892 59.1032 13.7082 59.1903 14.5078 59.117C16.1405 58.9673 17.7413 58.6404 19.1955 57.827C19.2787 58.0073 19.3192 58.2076 19.4402 58.3261C19.5628 58.4462 19.7601 58.5317 19.9334 58.55C20.2316 58.5814 20.4423 58.4064 20.5453 58.1285C20.6641 57.8081 20.5444 57.5366 20.1885 57.2795C22.8427 55.5395 24.6881 53.2511 25.1723 50.0815C25.7561 50.5156 26.3893 50.9883 27.0254 51.457C27.1265 51.5315 27.2342 51.6059 27.3505 51.6499C28.2233 51.98 28.503 52.7889 28.8069 53.5336C29.0982 54.2473 29.3412 55.0016 29.4547 55.7605C29.5641 56.4916 29.5038 57.2521 29.476 57.9982C29.4421 58.9068 29.1351 59.7572 28.7266 60.5514C28.1198 61.7309 27.2891 62.7424 26.2719 63.6133C24.9267 64.7649 23.3613 65.4156 21.6495 65.7468C20.5175 65.9658 19.3642 66.0017 18.2154 65.9403C17.485 65.9013 16.7429 65.8405 16.0371 65.6649C15.5851 65.5524 15.1627 65.25 14.7741 64.9682C13.584 64.1051 12.3894 63.2444 11.2493 62.318C10.3679 61.6018 9.53085 60.8224 8.73853 60.0086C7.90512 59.1526 7.14837 58.2224 6.35742 57.2971C6.36529 57.2617 6.37385 57.2538 6.38241 57.2459Z" fill="#1C3966"/>
<path d="M42.6451 53.2772C43.4982 54.2672 44.0745 55.3854 44.4405 56.6051C44.765 57.6862 44.9549 58.7958 44.9027 59.9315C44.8467 61.1518 44.5582 62.3168 44.1464 63.4708C43.8851 64.2028 43.3034 64.5252 42.7376 64.8786C41.792 65.4693 40.8373 66.0587 39.8353 66.5435C38.1589 67.3547 36.4036 67.9702 34.5735 68.3527C33.7486 68.5251 32.9236 68.6969 32.0975 68.8637C32.0039 68.8825 31.9032 68.8662 31.6936 68.8662C35.058 67.3013 36.7045 64.5838 37.3589 61.172C37.5425 61.2304 37.7179 61.3353 37.8873 61.3264C38.0532 61.3176 38.2474 61.2284 38.3679 61.1116C38.6036 60.8829 38.5807 60.584 38.4403 60.3104C38.3068 60.05 37.9738 59.9831 37.5254 60.0893C37.7157 57.1452 36.7035 54.7364 34.3121 52.9229C34.7182 52.7858 35.1399 52.696 35.5102 52.5064C36.1066 52.201 36.6773 51.8425 37.242 51.4804C37.4734 51.332 37.6392 51.0771 37.8763 50.9441C38.0239 50.8613 38.2559 50.88 38.4383 50.9147C40.0957 51.2297 41.4977 52.0064 42.6451 53.2772Z" fill="#183F6E"/>
<path d="M45.0825 57.2112C44.9304 56.705 44.7922 56.2227 44.6477 55.7187C45.0139 55.7119 45.3368 55.6021 45.4159 55.1994C45.4697 54.9255 45.3998 54.6585 45.141 54.4953C44.8491 54.3114 44.5574 54.3706 44.1735 54.6858C42.9375 52.3213 41.0072 50.9063 38.3389 50.4845C39.0109 49.6471 39.5792 48.7598 39.8339 47.7256C39.9388 47.2997 40.2005 47.1345 40.5463 46.9972C41.651 46.5589 42.811 46.4334 43.9736 46.5554C45.4724 46.7127 46.8162 47.2973 47.9806 48.2742C48.8733 49.0232 49.6632 49.8568 50.2956 50.8406C50.7951 51.6175 51.1177 52.4669 51.4019 53.3353C51.4227 53.3987 51.4028 53.4847 51.3786 53.5518C50.8838 54.9265 50.3417 56.2833 49.5462 57.5158C48.8385 58.6121 48.1435 59.7263 47.3279 60.7406C46.599 61.647 45.7132 62.4279 44.8948 63.2624C44.8765 63.281 44.8354 63.2775 44.789 63.2879C44.9503 62.7166 45.1507 62.1654 45.2556 61.5967C45.4061 60.7805 45.512 59.955 45.3667 59.1182C45.2582 58.4937 45.1852 57.8631 45.0825 57.2112Z" fill="#0A4876"/>
<path d="M49.5751 48.9597C49.0544 48.4992 48.5498 48.0552 48.0452 47.6114C48.5412 47.2774 48.6621 47.0416 48.5236 46.6782C48.4136 46.3894 48.1443 46.2422 47.7974 46.2813C47.4715 46.3181 47.2943 46.5526 47.2113 47.088C44.9049 45.7523 42.5395 45.5657 40.0982 46.7446C40.316 45.5752 40.2846 44.4437 39.9031 43.3543C39.7651 42.9602 39.9582 42.7404 40.1397 42.5096C41.0477 41.3552 42.1945 40.5314 43.6154 40.1118C44.6068 39.819 45.6085 39.7405 46.6459 39.842C48.0355 39.9779 49.3363 40.3521 50.5542 41.0234C50.8119 41.1654 51.0821 41.3011 51.3001 41.4925C51.4275 41.6043 51.4935 41.8135 51.5346 41.9909C51.7413 42.8818 51.9545 43.7724 52.1171 44.6718C52.2114 45.1938 52.2247 45.7316 52.2559 46.2633C52.2898 46.8419 52.3252 47.422 52.3191 48.0011C52.3044 49.3947 52.1948 50.7791 51.8068 52.128C51.7923 52.1782 51.799 52.2345 51.7665 52.304C51.2855 51.0318 50.4897 49.9701 49.5751 48.9597Z" fill="#0C4D7D"/>
<path d="M48.2059 35.7803C48.7838 36.5764 49.4071 37.3202 49.8885 38.1462C50.3727 38.9769 50.716 39.8893 51.1198 40.7665C51.135 40.7996 51.138 40.8384 51.1652 40.9518C49.5686 39.7026 47.7654 39.2657 45.8348 39.1271C45.7649 38.8296 45.9566 38.4081 45.5255 38.2453C45.3633 38.1841 45.1606 38.1515 44.996 38.1899C44.5913 38.2843 44.4533 38.6881 44.6333 39.1796C42.4036 39.4687 40.7421 40.5911 39.656 42.5677C39.264 41.7296 38.6987 41.0287 38.0176 40.4089C37.6933 40.1138 37.7135 39.6894 37.7558 39.3014C37.8071 38.8317 37.8855 38.3589 38.0139 37.9048C38.2453 37.0856 38.6511 36.3534 39.2071 35.6986C40.3615 34.3387 41.8988 33.6677 43.5775 33.2515C43.9258 33.1651 44.2947 33.1654 44.6496 33.101C45.1913 33.0027 45.5625 33.2921 45.9227 33.6203C46.6305 34.2651 47.3388 34.9096 48.0436 35.5576C48.1042 35.6133 48.1411 35.6946 48.2059 35.7803Z" fill="#0C5086"/>
<path d="M33.4956 33.605C33.7739 32.7717 34.1993 32.0467 34.7069 31.3667C34.8655 31.1542 35.0405 30.9539 35.2003 30.7423C35.5905 30.2256 36.0996 30.0181 36.7433 30.1165C37.237 30.192 37.7396 30.219 38.228 30.3178C39.0847 30.4911 39.9445 30.6653 40.7831 30.9074C42.0213 31.265 43.1772 31.8243 44.2109 32.4343C43.4631 32.6732 42.6444 32.8691 41.8824 33.1963C41.1125 33.5269 40.3987 33.9874 39.6359 34.4044C39.5824 33.9155 39.1886 33.7736 38.7265 33.907C38.5388 33.9612 38.3065 34.2399 38.2915 34.4318C38.2617 34.8137 38.5449 35.0633 38.9004 35.2037C37.5483 36.6705 37.1437 38.583 37.3489 39.8839C36.8562 39.6725 36.3822 39.4265 35.8806 39.2663C35.4016 39.1132 34.8929 39.0535 34.3995 38.9427C34.3036 38.9212 34.1831 38.8767 34.1332 38.8029C33.5791 37.9837 33.2728 37.0849 33.1791 36.0927C33.0984 35.2387 33.2434 34.4318 33.4956 33.605Z" fill="#125D95"/>
<path d="M31.1978 39.8712C31.0231 40.0153 30.8773 40.1596 30.7099 40.2717C30.6504 40.3115 30.5217 40.3038 30.4528 40.2662C29.0297 39.4893 28.2614 38.2537 27.9093 36.7045C27.7608 36.051 27.6921 35.3993 27.7273 34.7367C27.7662 34.0052 27.9236 33.2943 28.2404 32.631C28.3044 32.497 28.4726 32.402 28.6094 32.315C29.5939 31.6888 30.646 31.2027 31.7528 30.8345C32.8008 30.4859 33.8751 30.2635 34.978 30.1843C35.0191 30.1814 35.061 30.1882 35.048 30.1875C34.6542 30.659 34.2258 31.1371 33.8374 31.6455C33.3176 32.3258 33.022 33.1224 32.8207 33.9404C32.745 34.2485 32.6178 34.2445 32.3987 34.2039C32.0874 34.1462 31.8312 34.2779 31.6966 34.5378C31.5634 34.795 31.6249 35.0429 31.7898 35.2209C31.9798 35.426 32.223 35.6292 32.5892 35.397C32.6576 36.6934 32.9875 37.8765 33.6453 38.9923C32.7473 39.0871 31.9591 39.4094 31.1978 39.8712Z" fill="#1F608F"/>
<path d="M26.9031 43.279C25.0356 42.4398 24.0382 40.9726 23.6103 39.0435C23.5056 38.5715 23.6414 38.1916 23.8169 37.7949C24.3384 36.6159 24.9881 35.517 25.8878 34.5819C26.379 34.0713 26.889 33.5787 27.4393 33.0293C27.329 33.7042 27.202 34.271 27.1548 34.8444C27.1229 35.2327 27.1797 35.6339 27.2396 36.0228C27.3117 36.4904 27.437 36.9496 27.5189 37.416C27.5315 37.488 27.4544 37.6055 27.3851 37.6566C27.1225 37.8504 26.994 38.1256 27.0897 38.3448C27.2009 38.5995 27.4823 38.7256 27.797 38.6845C27.8845 38.6731 28.0291 38.6909 28.0641 38.747C28.5797 39.5741 29.3251 40.1394 30.15 40.622C30.199 40.6507 30.2423 40.8 30.2166 40.8282C29.5179 41.5949 29.339 42.5419 29.2669 43.5434C28.4681 43.5735 27.6795 43.605 26.9031 43.279Z" fill="#20669C"/>
<path d="M29.1926 47.5638C28.3732 47.9268 27.5281 47.9499 26.6837 47.8974C25.713 47.8369 24.7802 47.5534 24.0645 46.9008C23.73 46.5957 23.5651 46.0488 23.4436 45.5805C23.219 44.7148 23.0408 43.8318 22.9263 42.9453C22.8585 42.4208 22.9346 41.8747 22.9736 41.3403C23.012 40.8138 23.0853 40.2899 23.1745 39.7622C23.4699 41.2196 24.3278 42.2744 25.5103 43.1357C25.4647 43.2007 25.4175 43.2656 25.3727 43.3322C25.1567 43.6539 25.2278 43.9204 25.5865 44.136C25.8333 44.2844 26.181 44.1806 26.3108 43.8822C26.3941 43.6909 26.4558 43.6811 26.6605 43.7295C27.1944 43.8557 27.7408 43.9392 28.2865 44.0021C28.6193 44.0405 28.9602 44.0092 29.3148 44.0092C29.5093 44.9529 29.8768 45.8048 30.7326 46.4928C30.2014 46.8636 29.7083 47.2078 29.1926 47.5638Z" fill="#22689B"/>
<path d="M26.8775 50.2406C25.9087 49.5159 25.0732 48.6938 24.4775 47.6339C24.711 47.7667 24.9404 47.9073 25.1786 48.0309C26.0626 48.4896 26.9995 48.5851 27.9747 48.4361C28.0484 48.4249 28.1727 48.498 28.2145 48.5673C28.3622 48.8127 28.5746 48.9294 28.8408 48.8611C29.0999 48.7946 29.2613 48.623 29.23 48.3133C29.221 48.2242 29.2954 48.0929 29.3724 48.0343C29.9219 47.6157 30.4819 47.2109 31.0705 46.7783C31.3869 46.9168 31.7571 47.1283 32.1555 47.2393C32.5607 47.3522 32.9936 47.3659 33.4393 47.4264C33.5197 48.2848 33.2608 49.0514 32.7473 49.7576C32.2266 50.4736 31.5781 51.015 30.734 51.2947C30.3446 51.4237 29.942 51.534 29.5368 51.5855C29.3479 51.6095 29.122 51.5035 28.9413 51.4047C28.2548 51.0296 27.58 50.6333 26.8775 50.2406Z" fill="#2973A9"/>
<path d="M33.3724 52.1234C32.9179 52.1234 32.4914 52.1496 32.0694 52.1174C31.4263 52.0684 30.7863 51.9789 30.1321 51.8387C31.3893 51.709 32.3412 51.0978 33.0894 50.1359C33.5545 50.3185 33.8416 50.2674 33.9932 49.9752C34.1446 49.6834 34.0279 49.3943 33.7088 49.1803C33.7546 48.6134 33.7915 48.0759 33.8473 47.5403C33.8572 47.4458 33.9291 47.2996 34.0015 47.2789C34.626 47.1006 35.1499 46.7743 35.5701 46.2661C36.1434 46.6662 36.5018 47.207 36.626 47.8577C36.7765 48.6465 36.816 49.4563 36.4374 50.2044C36.2241 50.6258 36.0115 51.0933 35.6684 51.3905C35.3449 51.6706 34.8585 51.779 34.4289 51.9168C34.0987 52.0228 33.7454 52.0571 33.3724 52.1234Z" fill="#31719D"/>
<path d="M37.6831 47.4746C37.4857 47.0183 37.2245 46.9379 36.78 47.1376C36.4979 46.7788 36.2202 46.4318 35.9514 46.0779C35.9062 46.0183 35.8627 45.9193 35.8806 45.856C36.0312 45.3237 36.1964 44.7955 36.3749 44.208C37.157 44.1208 37.8973 44.4429 38.5598 44.9884C38.7262 45.1253 38.8611 45.2997 39.0218 45.4442C39.48 45.8563 39.3281 46.3549 39.2215 46.8406C38.9421 48.1137 38.3136 49.208 37.45 50.1705C37.2519 50.3914 36.9936 50.5586 36.7062 50.7977C36.8373 50.3433 36.9766 49.988 37.0357 49.6199C37.0968 49.2396 37.0886 48.8469 37.0932 48.4595C37.0953 48.2882 37.0965 48.1527 37.3021 48.0945C37.5946 48.0119 37.7117 47.7975 37.6831 47.4746Z" fill="#3780AC"/>
<path d="M36.8899 43.8795C36.6321 43.8795 36.4051 43.8795 36.1594 43.8795C35.9338 43.2299 35.5278 42.7318 34.8914 42.4191C35.3943 41.8507 36.0301 41.5715 36.764 41.4767C37.6267 41.3652 38.2497 41.6145 38.6569 42.4594C39.0885 43.3547 39.3516 44.2644 39.3791 45.2222C38.9456 44.855 38.5148 44.49 38.1211 44.1566C38.1211 43.9735 38.1616 43.7585 38.1028 43.5752C38.0763 43.4925 37.8072 43.3952 37.727 43.4412C37.5674 43.5327 37.4623 43.7188 37.3002 43.9057C37.2331 43.901 37.0769 43.8903 36.8899 43.8795Z" fill="#548EB9"/>
<path d="M30.588 41.8472C30.7713 42.3041 30.9359 42.7466 31.0996 43.1869C31.0497 43.2919 30.9659 43.4293 30.9264 43.5785C30.9165 43.6159 31.0562 43.7456 31.1145 43.7378C31.2614 43.7184 31.4011 43.6447 31.5437 43.5928C31.5369 43.5675 31.5302 43.5423 31.5235 43.517C31.588 43.5535 31.6494 43.5981 31.7177 43.6252C32.0656 43.7631 32.2924 43.9663 32.4235 44.3583C32.5269 44.6673 32.8406 44.9062 33.0624 45.178C32.4915 45.6791 31.2072 45.6345 30.7309 45.1764C30.4253 44.8826 30.233 44.3858 30.1638 43.9524C30.0471 43.2215 30.0786 42.4707 30.588 41.8472Z" fill="#5EB1D4"/>
<path d="M33.6917 40.6225C33.9093 40.3826 34.1086 40.1584 34.3127 39.9387C34.3466 39.9022 34.4038 39.8586 34.4461 39.8626C35.6006 39.9693 36.6598 40.3089 37.5812 41.1934C36.95 40.9512 36.394 41.03 35.8147 41.2404C35.8147 40.9311 35.769 40.64 35.4149 40.6626C35.2774 40.6713 35.0332 40.8606 35.0428 40.9443C35.0644 41.1327 35.2141 41.3065 35.326 41.5126C35.1157 41.7322 34.8492 42.0104 34.5839 42.2875C34.2167 42.2875 33.8371 42.2875 33.409 42.2875C33.1836 41.7114 33.4055 41.1725 33.6917 40.6225Z" fill="#4492C5"/>
<path d="M31.5792 43.0184C31.1568 42.4925 31.0655 41.9007 31.1109 41.2756C31.1166 41.1959 31.1386 41.0978 31.1904 41.0442C31.8647 40.3468 32.6905 39.9772 33.6731 39.9048C33.4333 40.3091 33.2084 40.6885 33.0206 41.0052C32.7959 41.0664 32.5796 41.0812 32.4248 41.1862C32.3475 41.2386 32.3183 41.5064 32.3818 41.5874C32.4848 41.7186 32.6821 41.7762 32.8396 41.8649C32.8614 41.8408 32.8832 41.8168 32.9049 41.7927C32.9539 42.0068 33.0111 42.2196 33.0455 42.4359C33.0533 42.4851 32.9862 42.5496 32.9469 42.6022C32.71 42.9196 32.4712 43.2355 32.1985 43.5978C32.0367 43.4468 31.8163 43.2412 31.5792 43.0184Z" fill="#56A7CB"/>
<path d="M31.3075 45.7567C31.6785 45.7604 32.0496 45.7608 32.4204 45.7716C32.4733 45.7731 32.5537 45.8125 32.5717 45.8553C32.6596 46.0636 32.8047 46.1588 33.0027 46.0358C33.2232 45.8989 33.141 45.7078 33.0254 45.5331C33.1657 45.333 33.3069 45.1908 33.5972 45.2288C33.7715 45.2517 33.9636 45.14 34.2229 45.0679C34.2063 45.2398 34.2122 45.4013 34.1728 45.551C33.8593 46.743 33.664 46.5962 32.6804 46.5184C32.162 46.4775 31.6862 46.2054 31.2945 45.8039C31.2936 45.7743 31.3075 45.7567 31.3075 45.7567Z" fill="#75C0E0"/>
<path d="M34.4887 46.2173C34.3443 46.2862 34.2221 46.3476 34.0454 46.4364C34.2018 46.12 34.3307 45.8591 34.4633 45.5909C34.6713 45.646 34.902 45.6946 34.9437 45.4017C34.9996 45.0089 34.6636 45.1519 34.4466 45.0895C34.4404 45.0052 34.4177 44.9095 34.4299 44.8185C34.4604 44.5929 34.3683 44.2865 34.755 44.2692C35.1025 44.2538 35.3893 44.5031 35.4016 44.8459C35.4194 45.3423 35.135 45.6879 34.7947 45.9987C34.7081 46.0778 34.6059 46.1399 34.4887 46.2173Z" fill="#7FCBE8"/>
<path d="M31.2879 45.7846C31.2576 45.7695 31.2341 45.7451 31.2107 45.7207C31.2374 45.7224 31.2642 45.7241 31.2999 45.7416C31.3088 45.7574 31.2947 45.7754 31.2879 45.7846Z" fill="#75C0E0"/>
<path d="M24.3679 47.6239C24.3657 47.5913 24.3821 47.5723 24.3986 47.5532C24.3946 47.5813 24.3906 47.6094 24.3679 47.6239Z" fill="#2973A9"/>
<path d="M36.6051 50.7808C36.6232 50.8001 36.6221 50.8318 36.6211 50.8636C36.6094 50.8401 36.5977 50.8167 36.6051 50.7808Z" fill="#3780AC"/>
<path d="M6.34278 57.2801C6.31228 57.2597 6.29579 57.2287 6.2793 57.1978C6.30908 57.2018 6.33886 57.2059 6.37555 57.2279C6.3739 57.2538 6.36534 57.2617 6.34278 57.2801Z" fill="#1C3966"/>
</g>
<path d="M73.5244 52H70.4307L69.5342 49.1963H65.0518L64.1641 52H61.0879L65.6758 39.3965H69.042L73.5244 52ZM68.8838 47.0166L67.5303 42.7803C67.4307 42.4639 67.3604 42.0859 67.3193 41.6465H67.249C67.2197 42.0156 67.1465 42.3818 67.0293 42.7451L65.6582 47.0166H68.8838ZM85.6709 52H82.4102L80.4502 48.7568C80.3037 48.5107 80.1631 48.291 80.0283 48.0977C79.8936 47.9043 79.7559 47.7402 79.6152 47.6055C79.4805 47.4648 79.3369 47.3594 79.1846 47.2891C79.0381 47.2129 78.877 47.1748 78.7012 47.1748H77.9365V52H75.0977V39.3965H79.5977C82.6562 39.3965 84.1855 40.5391 84.1855 42.8242C84.1855 43.2637 84.1182 43.6709 83.9834 44.0459C83.8486 44.415 83.6582 44.749 83.4121 45.0479C83.166 45.3467 82.8672 45.6045 82.5156 45.8213C82.1699 46.0381 81.7832 46.208 81.3555 46.3311V46.3662C81.543 46.4248 81.7246 46.5215 81.9004 46.6562C82.0762 46.7852 82.2461 46.9375 82.4102 47.1133C82.5742 47.2891 82.7295 47.4795 82.876 47.6846C83.0283 47.8838 83.166 48.0801 83.2891 48.2734L85.6709 52ZM77.9365 41.5234V45.0303H79.167C79.7764 45.0303 80.2656 44.8545 80.6348 44.5029C81.0098 44.1455 81.1973 43.7031 81.1973 43.1758C81.1973 42.0742 80.5381 41.5234 79.2197 41.5234H77.9365ZM101.219 52H98.415V44.459C98.415 43.6445 98.4502 42.7451 98.5205 41.7607H98.4502C98.3037 42.5342 98.1719 43.0908 98.0547 43.4307L95.1016 52H92.7812L89.7754 43.5186C89.6934 43.29 89.5615 42.7041 89.3799 41.7607H89.3008C89.377 43.0029 89.415 44.0928 89.415 45.0303V52H86.8574V39.3965H91.0146L93.5898 46.8672C93.7949 47.4648 93.9443 48.0654 94.0381 48.6689H94.0908C94.249 47.9717 94.416 47.3652 94.5918 46.8496L97.167 39.3965H101.219V52ZM109.41 52.2197C107.605 52.2197 106.135 51.6338 104.998 50.4619C103.861 49.2842 103.293 47.752 103.293 45.8652C103.293 43.873 103.87 42.2617 105.024 41.0312C106.179 39.8008 107.708 39.1855 109.612 39.1855C111.411 39.1855 112.864 39.7744 113.972 40.9521C115.085 42.1299 115.642 43.6826 115.642 45.6104C115.642 47.5908 115.064 49.1875 113.91 50.4004C112.762 51.6133 111.262 52.2197 109.41 52.2197ZM109.533 41.6289C108.537 41.6289 107.746 42.0039 107.16 42.7539C106.574 43.498 106.281 44.4854 106.281 45.7158C106.281 46.9639 106.574 47.9512 107.16 48.6777C107.746 49.4043 108.514 49.7676 109.463 49.7676C110.441 49.7676 111.218 49.416 111.792 48.7129C112.366 48.0039 112.653 47.0225 112.653 45.7686C112.653 44.4619 112.375 43.4453 111.818 42.7188C111.262 41.9922 110.5 41.6289 109.533 41.6289ZM128.315 52H125.055L123.095 48.7568C122.948 48.5107 122.808 48.291 122.673 48.0977C122.538 47.9043 122.4 47.7402 122.26 47.6055C122.125 47.4648 121.981 47.3594 121.829 47.2891C121.683 47.2129 121.521 47.1748 121.346 47.1748H120.581V52H117.742V39.3965H122.242C125.301 39.3965 126.83 40.5391 126.83 42.8242C126.83 43.2637 126.763 43.6709 126.628 44.0459C126.493 44.415 126.303 44.749 126.057 45.0479C125.811 45.3467 125.512 45.6045 125.16 45.8213C124.814 46.0381 124.428 46.208 124 46.3311V46.3662C124.188 46.4248 124.369 46.5215 124.545 46.6562C124.721 46.7852 124.891 46.9375 125.055 47.1133C125.219 47.2891 125.374 47.4795 125.521 47.6846C125.673 47.8838 125.811 48.0801 125.934 48.2734L128.315 52ZM120.581 41.5234V45.0303H121.812C122.421 45.0303 122.91 44.8545 123.279 44.5029C123.654 44.1455 123.842 43.7031 123.842 43.1758C123.842 42.0742 123.183 41.5234 121.864 41.5234H120.581Z" fill="black"/>
<path d="M57.4414 31V18.3965H61.9062C66.3828 18.3965 68.6211 20.4443 68.6211 24.54C68.6211 26.5029 68.0088 28.0703 66.7842 29.2422C65.5654 30.4141 63.9395 31 61.9062 31H57.4414ZM60.2803 20.708V28.6973H61.6865C62.917 28.6973 63.8809 28.3281 64.5781 27.5898C65.2812 26.8516 65.6328 25.8467 65.6328 24.5752C65.6328 23.374 65.2842 22.4307 64.5869 21.7451C63.8955 21.0537 62.9229 20.708 61.6689 20.708H60.2803ZM78.2715 31H70.7129V18.3965H77.9814V20.708H73.5518V23.5117H77.6738V25.8145H73.5518V28.6973H78.2715V31ZM87.8516 31H80.293V18.3965H87.5615V20.708H83.1318V23.5117H87.2539V25.8145H83.1318V28.6973H87.8516V31ZM92.7119 26.6582V31H89.873V18.3965H94.3203C97.4961 18.3965 99.084 19.7354 99.084 22.4131C99.084 23.6787 98.627 24.7041 97.7129 25.4893C96.8047 26.2686 95.5889 26.6582 94.0654 26.6582H92.7119ZM92.7119 20.5762V24.5049H93.8281C95.3398 24.5049 96.0957 23.8428 96.0957 22.5186C96.0957 21.2236 95.3398 20.5762 93.8281 20.5762H92.7119Z" fill="black"/>
<defs>
<clipPath id="clip0_774_5256">
<rect width="123" height="69" fill="white"/>
</clipPath>
</defs>
</svg>
