<svg width="338" height="344" viewBox="0 0 338 344" fill="none" xmlns="http://www.w3.org/2000/svg">
<path d="M165.588 307.688L170.867 309.273C170.515 310.769 169.988 312.001 169.196 312.969C168.403 313.937 167.524 314.728 166.379 315.169C165.235 315.696 163.828 315.96 162.068 315.96C159.956 315.96 158.284 315.696 156.875 315.08C155.556 314.464 154.411 313.408 153.444 311.824C152.476 310.328 151.948 308.305 151.948 305.929C151.948 302.761 152.828 300.297 154.5 298.537C156.172 296.777 158.636 295.985 161.715 295.985C164.179 295.985 166.028 296.513 167.435 297.481C168.843 298.449 169.899 299.945 170.515 302.057L165.235 303.201C165.06 302.584 164.884 302.145 164.62 301.881C164.268 301.441 163.915 301.089 163.388 300.825C162.86 300.561 162.332 300.473 161.804 300.473C160.484 300.473 159.428 301.001 158.724 302.145C158.196 302.937 157.932 304.256 157.932 305.929C157.932 308.041 158.284 309.537 158.9 310.329C159.516 311.12 160.484 311.56 161.628 311.56C162.771 311.56 163.652 311.209 164.179 310.592C164.884 309.801 165.324 308.92 165.588 307.688Z" fill="#225E63"/>
<path d="M172.979 305.929C172.979 302.761 173.86 300.296 175.62 298.537C177.379 296.777 179.843 295.897 183.011 295.897C186.267 295.897 188.731 296.777 190.492 298.449C192.251 300.209 193.131 302.585 193.131 305.753C193.131 308.041 192.779 309.888 191.988 311.297C191.195 312.705 190.139 313.849 188.643 314.641C187.235 315.433 185.388 315.873 183.275 315.873C181.075 315.873 179.315 315.52 177.82 314.817C176.411 314.113 175.268 313.056 174.3 311.473C173.332 309.889 172.979 308.217 172.979 305.929ZM178.964 305.929C178.964 307.865 179.315 309.273 180.02 310.153C180.724 311.033 181.692 311.473 183.011 311.473C184.331 311.473 185.299 311.033 186.003 310.241C186.707 309.361 187.06 307.865 187.06 305.753C187.06 303.905 186.707 302.585 185.915 301.793C185.211 300.913 184.156 300.561 182.924 300.561C181.692 300.561 180.724 301.001 180.02 301.881C179.315 302.585 178.964 303.993 178.964 305.929Z" fill="#225E63"/>
<path d="M196.212 296.25H204.044L207.036 308.041L210.027 296.25H217.859V315.609H212.931V300.826L209.147 315.609H204.748L200.963 300.826V315.609H196.036V296.25H196.212Z" fill="#225E63"/>
<path d="M221.731 296.25H231.675C233.875 296.25 235.458 296.778 236.515 297.834C237.57 298.89 238.098 300.297 238.098 302.233C238.098 304.169 237.483 305.754 236.339 306.809C235.194 307.954 233.347 308.481 230.971 308.481H227.715V315.697H221.731V296.25ZM227.715 304.522H229.211C230.355 304.522 231.147 304.345 231.675 303.905C232.115 303.465 232.379 303.026 232.379 302.41C232.379 301.794 232.203 301.265 231.762 300.826C231.323 300.386 230.619 300.21 229.475 300.21H227.803V304.522H227.715Z" fill="#225E63"/>
<path d="M241.266 296.25H247.249V310.856H256.577V315.609H241.266V296.25Z" fill="#225E63"/>
<path d="M259.569 296.25H265.552V315.609H259.569V296.25Z" fill="#225E63"/>
<path d="M281.744 312.352H274.968L274 315.52H267.928L275.232 296.161H281.744L289.048 315.52H282.8L281.744 312.352ZM280.512 308.216L278.4 301.265L276.288 308.216H280.512Z" fill="#225E63"/>
<path d="M290.897 296.25H296.441L303.745 306.985V296.25H309.376V315.609H303.745L296.529 304.961V315.609H290.897V296.25Z" fill="#225E63"/>
<path d="M312.017 296.25H330.232V301.001H324.161V315.609H318.176V301.001H312.105V296.25H312.017Z" fill="#225E63"/>
<path d="M289.224 160.469L306.56 155.014L300.928 142.518C296.792 147.71 292.656 154.397 289.224 160.469ZM283.328 103.359L249.361 27.6812L0.681152 41.7607L69.5831 229.724L202.195 187.925C193.747 175.781 190.667 161.35 200.435 154.31C211.347 146.39 227.802 155.542 238.274 168.478C248.393 151.582 276.817 112.247 283.328 103.359Z" fill="#225E63"/>
<path d="M241.615 82.3714C251.998 82.3714 260.446 74.4516 260.446 64.5959C260.446 54.7402 251.998 46.8204 241.615 46.8204C231.231 46.8204 222.783 54.7402 222.783 64.5959C222.783 74.3636 231.231 82.3714 241.615 82.3714ZM226.215 90.0272H257.014V170.545H226.215V90.0272Z" fill="#FEFEFE"/>
<path d="M210.99 113.522C211.254 113.61 211.431 113.522 211.431 113.258V92.8426C211.431 92.5786 211.254 92.3147 210.99 92.1386C210.99 92.1386 206.943 89.4987 194.623 88.7947C194.007 88.4427 183.183 88.3548 180.279 88.7947C135.401 92.4026 133.729 124.874 133.729 126.282V134.201C133.729 135.169 133.729 168.345 180.279 171.249C184.855 171.6 193.743 171.249 194.623 171.249C205.359 171.249 212.75 167.992 212.75 167.992C213.014 167.904 213.19 167.64 213.19 167.377V148.281C213.19 148.017 213.014 147.929 212.839 148.105C212.839 148.105 209.495 150.745 194.887 152.241C190.751 152.681 188.728 152.505 187.232 152.241C166.464 148.721 165.496 133.585 165.496 133.585C165.496 133.321 165.408 132.882 165.408 132.706V126.897C165.408 126.633 165.408 126.193 165.496 126.018C165.496 126.018 166.904 109.738 187.232 107.978H194.887C203.775 109.122 210.99 113.522 210.99 113.522Z" fill="#FEFEFE"/>
<path d="M48.1958 170.281C48.1958 170.545 48.3719 170.721 48.6358 170.721H78.643C78.9069 170.721 79.0829 170.545 79.0829 170.281V146.874C79.0829 146.61 79.2589 146.434 79.5229 146.434C79.5229 146.434 127.481 149.865 127.481 117.747C127.481 92.3151 97.3866 89.5872 87.531 90.0272C87.3547 90.0272 48.6358 90.0272 48.6358 90.0272C48.3719 90.0272 48.1958 90.2032 48.1958 90.4671V170.281ZM78.5549 128.571V107.539H85.9466C85.9466 107.539 96.594 107.979 97.4743 115.283C97.6506 115.811 97.6506 119.418 97.4743 119.594C96.0661 128.13 86.8269 128.571 86.8269 128.571H78.5549Z" fill="#FEFEFE"/>
<path d="M242.498 209.396C244.962 209.396 246.898 209.396 250.066 207.989C260.978 202.268 297.849 112.247 336.743 84.5279C337.007 84.3519 337.271 84.088 337.448 83.824C337.712 83.472 337.711 83.12 337.711 83.12C337.711 83.12 337.711 81.272 331.992 81.272C297.409 80.3041 261.418 152.902 242.498 181.589C242.235 181.941 241.003 181.589 241.003 181.589C241.003 181.589 228.331 166.63 217.332 160.909C217.068 160.822 215.836 160.382 214.515 160.47C213.636 160.47 208.532 161.526 206.155 163.99C203.34 166.982 203.428 168.654 203.428 172.261C203.428 172.526 203.604 173.758 203.955 174.373C206.683 179.125 218.915 196.021 229.035 205.348C230.531 206.493 232.907 209.396 242.498 209.396Z" fill="#2BBC5D"/>
<path d="M151.332 222.597H180.107C185.828 222.597 190.403 223.389 193.835 224.884C197.355 226.468 200.259 228.668 202.459 231.484C204.746 234.388 206.418 237.732 207.387 241.515C208.443 245.3 208.971 249.347 208.971 253.66C208.971 260.347 208.178 265.539 206.682 269.235C205.187 272.931 203.075 276.011 200.347 278.563C197.619 281.027 194.715 282.699 191.635 283.578C187.411 284.723 183.539 285.251 180.107 285.251H151.332V222.597ZM170.692 236.764V270.995H175.443C179.492 270.995 182.396 270.556 184.067 269.675C185.739 268.795 187.147 267.211 188.115 265.011C189.083 262.811 189.611 259.115 189.611 254.1C189.611 247.411 188.556 242.924 186.356 240.46C184.156 237.996 180.635 236.764 175.532 236.764H170.692Z" fill="#225E63"/>
<path d="M214.338 264.571L232.817 263.427C233.257 266.419 234.049 268.707 235.281 270.291C237.305 272.843 240.121 274.075 243.817 274.075C246.545 274.075 248.745 273.459 250.241 272.139C251.737 270.819 252.528 269.323 252.528 267.651C252.528 266.067 251.824 264.571 250.417 263.252C249.009 261.931 245.665 260.787 240.473 259.643C231.937 257.707 225.953 255.156 222.257 251.988C218.562 248.82 216.802 244.771 216.802 239.843C216.802 236.588 217.77 233.596 219.617 230.692C221.466 227.788 224.281 225.588 228.066 223.916C231.849 222.244 236.953 221.453 243.465 221.453C251.473 221.453 257.632 222.948 261.768 225.94C265.992 228.932 268.456 233.684 269.248 240.196L250.945 241.252C250.417 238.436 249.449 236.411 247.865 235.092C246.281 233.772 244.169 233.156 241.441 233.156C239.153 233.156 237.481 233.596 236.337 234.564C235.193 235.532 234.666 236.675 234.666 238.084C234.666 239.052 235.105 240.02 236.073 240.811C236.953 241.603 239.153 242.396 242.585 243.1C251.032 244.947 257.105 246.796 260.8 248.643C264.496 250.492 267.136 252.867 268.808 255.595C270.48 258.323 271.272 261.491 271.272 264.923C271.272 268.971 270.128 272.667 267.928 276.011C265.728 279.442 262.56 281.995 258.6 283.755C254.641 285.515 249.537 286.395 243.465 286.395C232.817 286.395 225.425 284.37 221.289 280.235C217.242 276.099 214.953 270.907 214.338 264.571Z" fill="#225E63"/>
<path d="M276.201 264.57L294.68 263.426C295.121 266.419 295.912 268.706 297.144 270.29C299.168 272.842 301.984 274.074 305.68 274.074C308.408 274.074 310.608 273.458 312.104 272.138C313.6 270.818 314.392 269.322 314.392 267.651C314.392 266.066 313.688 264.57 312.28 263.251C310.872 261.93 307.528 260.787 302.336 259.642C293.801 257.706 287.817 255.155 284.121 251.987C280.513 248.819 278.665 244.771 278.665 239.843C278.665 236.587 279.633 233.595 281.481 230.691C283.329 227.787 286.144 225.587 289.929 223.916C293.712 222.243 298.816 221.452 305.328 221.452C313.336 221.452 319.496 222.948 323.632 225.939C327.855 228.931 330.319 233.683 331.111 240.195L312.808 241.251C312.28 238.435 311.312 236.411 309.728 235.091C308.144 233.771 306.032 233.155 303.304 233.155C301.016 233.155 299.344 233.595 298.201 234.563C297.057 235.531 296.529 236.675 296.529 238.083C296.529 239.051 296.969 240.019 297.936 240.811C298.816 241.603 301.016 242.395 304.448 243.099C312.896 244.947 318.968 246.795 322.664 248.642C326.36 250.491 329 252.866 330.672 255.595C332.343 258.323 333.136 261.49 333.136 264.922C333.136 268.97 331.991 272.666 329.791 276.01C327.591 279.441 324.424 281.994 320.464 283.754C316.504 285.514 311.4 286.394 305.328 286.394C294.68 286.394 287.289 284.37 283.153 280.234C279.017 276.098 276.729 270.906 276.201 264.57Z" fill="#225E63"/>
</svg>
