<svg width="65" height="65" viewBox="0 0 65 65" fill="none" xmlns="http://www.w3.org/2000/svg">
<path d="M61.4284 32.5001C61.4284 48.4769 48.4767 61.4287 32.4999 61.4287C16.5231 61.4287 3.57129 48.4769 3.57129 32.5001C3.57129 16.5233 16.5231 3.57153 32.4999 3.57153C48.4767 3.57153 61.4284 16.5233 61.4284 32.5001ZM8.52844 32.5001C8.52844 45.7391 19.2608 56.4715 32.4999 56.4715C45.7389 56.4715 56.4713 45.7391 56.4713 32.5001C56.4713 19.2611 45.7389 8.52869 32.4999 8.52869C19.2608 8.52869 8.52844 19.2611 8.52844 32.5001Z" fill="#9DFFAC"/>
<path fill-rule="evenodd" clip-rule="evenodd" d="M12.1428 32.5C12.1428 27.1009 14.2876 21.923 18.1053 18.1053C21.923 14.2876 27.1009 12.1428 32.5 12.1428C37.899 12.1428 43.0769 14.2876 46.8946 18.1053C50.7123 21.923 52.8571 27.1009 52.8571 32.5C52.8571 37.899 50.7123 43.0769 46.8946 46.8946C43.0769 50.7123 37.899 52.8571 32.5 52.8571C27.1009 52.8571 21.923 50.7123 18.1053 46.8946C14.2876 43.0769 12.1428 37.899 12.1428 32.5H12.1428ZM31.3383 41.2128L43.0585 26.5611L40.9414 24.8674L30.9474 37.3558L23.8685 31.4577L22.1314 33.5422L31.3383 41.2155V41.2128Z" fill="#8DCAF5"/>
</svg>
