<svg width="55" height="55" viewBox="0 0 55 55" fill="none" xmlns="http://www.w3.org/2000/svg">
<path d="M51.978 27.5C51.978 41.0188 41.0188 51.978 27.5 51.978C13.9812 51.978 3.02199 41.0188 3.02199 27.5C3.02199 13.9812 13.9812 3.02197 27.5 3.02197C41.0188 3.02197 51.978 13.9812 51.978 27.5ZM7.21651 27.5C7.21651 38.7023 16.2977 47.7835 27.5 47.7835C38.7023 47.7835 47.7835 38.7023 47.7835 27.5C47.7835 16.2977 38.7023 7.21649 27.5 7.21649C16.2977 7.21649 7.21651 16.2977 7.21651 27.5Z" fill="#9DFFAC"/>
<path fill-rule="evenodd" clip-rule="evenodd" d="M10.2747 27.5002C10.2747 22.9318 12.0895 18.5504 15.3199 15.3201C18.5503 12.0897 22.9316 10.2749 27.5 10.2749C32.0684 10.2749 36.4497 12.0897 39.6801 15.3201C42.9105 18.5504 44.7253 22.9318 44.7253 27.5002C44.7253 32.0686 42.9105 36.4499 39.6801 39.6803C36.4497 42.9107 32.0684 44.7255 27.5 44.7255C22.9316 44.7255 18.5503 42.9107 15.3199 39.6803C12.0895 36.4499 10.2747 32.0686 10.2747 27.5002H10.2747ZM26.517 34.8726L36.4342 22.475L34.6427 21.0418L26.1863 31.609L20.1965 26.6182L18.7266 28.3821L26.517 34.8749V34.8726Z" fill="#8DCAF5"/>
</svg>
