<svg width="77" height="77" viewBox="0 0 77 77" fill="none" xmlns="http://www.w3.org/2000/svg">
<path d="M64.9688 12.0312H12.0312C10.7549 12.0313 9.53082 12.5383 8.6283 13.4408C7.72578 14.3433 7.21875 15.5674 7.21875 16.8438V60.1562C7.21875 61.4326 7.72578 62.6567 8.6283 63.5592C9.53082 64.4617 10.7549 64.9688 12.0312 64.9688H16.0617C16.5174 64.97 16.9638 64.8403 17.3477 64.595C17.7317 64.3497 18.037 63.9991 18.2273 63.5852C19.4047 61.1212 21.2554 59.0407 23.5654 57.5843C25.8754 56.1279 28.5504 55.3551 31.2812 55.3551C34.0121 55.3551 36.6871 56.1279 38.9971 57.5843C41.3071 59.0407 43.1578 61.1212 44.3352 63.5852C44.5255 63.9991 44.8308 64.3497 45.2148 64.595C45.5987 64.8403 46.0451 64.97 46.5008 64.9688H64.9688C66.2451 64.9688 67.4692 64.4617 68.3717 63.5592C69.2742 62.6567 69.7812 61.4326 69.7812 60.1562V16.8438C69.7812 15.5674 69.2742 14.3433 68.3717 13.4408C67.4692 12.5383 66.2451 12.0313 64.9688 12.0312V12.0312ZM31.2812 50.5312C29.3776 50.5312 27.5167 49.9668 25.9339 48.9091C24.3511 47.8515 23.1174 46.3483 22.3889 44.5896C21.6604 42.8308 21.4698 40.8956 21.8412 39.0285C22.2126 37.1614 23.1293 35.4464 24.4753 34.1003C25.8214 32.7543 27.5364 31.8376 29.4035 31.4662C31.2706 31.0948 33.2058 31.2854 34.9646 32.0139C36.7233 32.7424 38.2265 33.9761 39.2841 35.5589C40.3418 37.1417 40.9062 39.0026 40.9062 40.9062C40.8983 43.4565 39.8817 45.9001 38.0784 47.7034C36.2751 49.5067 33.8315 50.5233 31.2812 50.5312ZM64.9688 60.1562H47.9445C46.902 58.3482 45.5711 56.7226 44.0043 55.3438H57.75C58.3882 55.3438 59.0002 55.0902 59.4515 54.639C59.9027 54.1877 60.1562 53.5757 60.1562 52.9375V24.0625C60.1562 23.4243 59.9027 22.8123 59.4515 22.361C59.0002 21.9098 58.3882 21.6562 57.75 21.6562H19.25C18.6118 21.6562 17.9998 21.9098 17.5485 22.361C17.0973 22.8123 16.8438 23.4243 16.8438 24.0625V52.9375C16.8468 53.4686 17.0255 53.9837 17.3519 54.4027C17.6783 54.8216 18.1342 55.1208 18.6484 55.2535C17.0437 56.6543 15.6819 58.3109 14.618 60.1562H12.0312V16.8438H64.9688V60.1562Z" fill="black"/>
</svg>
