<svg width="92" height="92" viewBox="0 0 92 92" fill="none" xmlns="http://www.w3.org/2000/svg">
<circle cx="46" cy="46" r="46" fill="white"/>
<path d="M58.3012 11C59.2819 12.2659 60.24 13.5262 61.1737 14.8042C61.3067 14.9862 61.3643 15.2513 61.3811 15.4834C61.4131 15.9245 61.3745 16.3705 61.3992 16.8127C61.4077 16.9642 61.4813 17.1463 61.5875 17.2525C62.2742 17.9397 62.9725 18.6158 63.6806 19.281C63.8445 19.435 63.8826 19.596 63.8621 19.7976C63.8385 20.0308 63.814 20.2642 63.7995 20.498C63.7736 20.9154 63.7584 21.3334 63.7322 21.7508C63.709 22.1211 63.7861 22.4593 63.939 22.8037C64.0735 23.1065 64.1629 23.4506 64.1781 23.7809C64.2268 24.8354 64.315 25.8992 64.2237 26.9451C64.1648 27.6197 63.8547 28.2842 63.5921 28.9268C63.0716 30.2006 62.5119 31.4586 61.9572 32.7183C61.4875 33.7851 60.9993 34.8439 60.5242 35.9084C59.9372 37.2239 59.3533 38.5409 58.7725 39.8592C58.648 40.1418 58.4683 40.1787 58.0615 40.1484C57.3392 40.0945 56.6124 40.0757 55.888 40.0851C55.3323 40.0923 54.7687 40.1184 54.2242 40.2195C53.2358 40.403 52.2408 40.589 51.2815 40.8813C49.6021 41.393 48.0584 42.2124 46.6897 43.3059C45.4367 44.3069 44.3846 45.5017 43.5777 46.905C42.7972 48.2626 42.2711 49.7105 42.0132 51.2439C41.8374 52.2894 41.8183 53.3492 41.9199 54.4164C42.0609 55.8974 42.4649 57.2906 43.1798 58.5861C43.4806 59.131 43.85 59.6477 44.2509 60.1248C44.522 60.4475 44.3966 60.7522 44.3257 61.043C43.945 62.6054 43.3036 64.0445 42.2647 65.2979C41.384 66.3605 40.3163 67.1769 39.097 67.8038C37.9758 68.3802 36.7818 68.7871 35.5386 68.9414C34.4097 69.0815 33.2562 69.1248 32.1195 69.0755C30.7155 69.0146 29.3444 68.6846 28.0277 68.1811C26.8823 67.7432 25.7848 67.1916 24.8485 66.3984C24.4452 66.0567 24.1638 65.5614 23.8625 65.1122C22.7204 63.4096 21.8766 61.5618 21.2696 59.6098C20.8389 58.2246 20.4831 56.8185 20.324 55.3712C20.2309 54.524 20.1407 53.6766 20.0246 52.8158C19.9999 51.4596 19.9999 50.1168 20.0246 48.73C20.1422 47.6657 20.1711 46.6344 20.3432 45.6275C20.5836 44.2221 20.9032 42.8282 21.2386 41.4413C21.8404 38.9531 22.7847 36.5861 23.8884 34.2808C24.9448 32.0744 26.1748 29.9665 27.6141 27.9883C28.3899 26.9219 29.2257 25.8967 30.0729 24.885C30.7134 24.1201 31.3847 23.3755 32.0973 22.6777C32.8857 21.9057 33.7151 21.1713 34.5665 20.4685C35.4682 19.724 36.3961 19.007 37.3492 18.3293C39.3017 16.941 41.3679 15.7389 43.562 14.7698C44.7542 14.2431 45.9549 13.7286 47.1785 13.2813C48.9102 12.6482 50.6748 12.1083 52.4934 11.7742C53.7465 11.5441 55.0049 11.3429 56.2609 11.1291C56.5172 11.0854 56.7737 11.043 57.0301 11C57.4436 11 57.8572 11 58.3012 11Z" fill="#3B80AD"/>
<path d="M46.9081 80.0002C46.5903 79.957 46.3032 79.8785 46.0156 79.8768C44.8475 79.8695 43.7208 79.5822 42.5988 79.3293C41.5788 79.0994 40.5887 78.7247 39.6007 78.3713C38.8744 78.1115 38.1727 77.7831 37.46 77.4852C37.4686 77.4512 37.4772 77.4172 37.4858 77.3832C38.1625 77.4321 38.8385 77.5023 39.516 77.5228C40.0197 77.538 40.5353 77.5441 41.028 77.456C41.8655 77.3063 42.7049 77.129 43.5145 76.8722C44.497 76.5605 45.3933 76.0422 46.1566 75.3491C46.9144 74.6611 47.6145 73.9098 48.3532 73.1729C48.5633 73.483 48.8623 73.7469 49.3538 73.4457C49.6608 73.2575 49.6545 72.9734 49.5956 72.7057C49.5205 72.3637 49.2279 72.263 48.8492 72.2663C50.5464 69.2801 50.527 66.3307 48.7724 63.3677C49.2622 63.5185 49.7208 63.7025 50.1972 63.7973C51.1067 63.9784 52.0246 64.1456 52.9587 63.9681C53.493 63.8666 53.9029 64.0974 54.28 64.4364C55.3278 65.378 56.1371 66.4826 56.5215 67.8483C56.6804 68.413 56.7485 69.0052 56.832 69.5887C57.0366 71.0193 56.7328 72.3975 56.3022 73.7422C55.9433 74.8628 55.3445 75.8656 54.5791 76.7739C53.5218 78.0285 52.2557 79.0164 50.8247 79.8007C50.6317 79.9065 50.3784 79.9032 50.1423 79.9753C49.0672 80.0002 48.0029 80.0002 46.9081 80.0002Z" fill="#1B3E6E"/>
<path d="M26.3172 68.1809C27.2512 68.6616 28.1854 69.135 29.2021 69.4337C30.1267 69.7053 31.0527 69.9558 32.0191 70.0007C32.8268 70.0382 33.643 70.1254 34.4427 70.052C36.0753 69.9023 37.6761 69.5754 39.1304 68.7621C39.2135 68.9424 39.254 69.1427 39.375 69.2612C39.4976 69.3813 39.6949 69.4668 39.8682 69.485C40.1665 69.5164 40.3771 69.3415 40.4801 69.0636C40.599 68.7431 40.4792 68.4716 40.1233 68.2146C42.7775 66.4745 44.623 64.1862 45.1071 61.0166C45.6909 61.4506 46.3241 61.9233 46.9602 62.392C47.0613 62.4666 47.1691 62.541 47.2853 62.585C48.1581 62.915 48.4378 63.724 48.7418 64.4687C49.033 65.1824 49.276 65.9367 49.3895 66.6956C49.4989 67.4266 49.4386 68.1872 49.4108 68.9332C49.3769 69.8418 49.0699 70.6923 48.6614 71.4864C48.0546 72.666 47.2239 73.6775 46.2067 74.5483C44.8615 75.6999 43.2961 76.3507 41.5843 76.6818C40.4523 76.9008 39.299 76.9367 38.1502 76.8753C37.4198 76.8363 36.6777 76.7756 35.972 76.6C35.5199 76.4875 35.0975 76.1851 34.7089 75.9032C33.5188 75.0402 32.3242 74.1794 31.1841 73.2531C30.3028 72.5369 29.4657 71.7574 28.6733 70.9437C27.8399 70.0877 27.0832 69.1574 26.2922 68.2322C26.3001 68.1968 26.3087 68.1889 26.3172 68.1809Z" fill="#1C3966"/>
<path d="M62.5799 64.2123C63.433 65.2022 64.0093 66.3205 64.3753 67.5401C64.6998 68.6213 64.8897 69.7309 64.8375 70.8666C64.7815 72.0869 64.493 73.2518 64.0812 74.4058C63.8199 75.1379 63.2382 75.4603 62.6725 75.8137C61.7268 76.4043 60.7721 76.9937 59.7701 77.4786C58.0938 78.2897 56.3384 78.9053 54.5083 79.2877C53.6834 79.4601 52.8584 79.632 52.0323 79.7987C51.9387 79.8176 51.838 79.8013 51.6284 79.8013C54.9928 78.2363 56.6394 75.5189 57.2937 72.107C57.4773 72.1655 57.6527 72.2704 57.8221 72.2614C57.988 72.2527 58.1822 72.1635 58.3027 72.0466C58.5385 71.818 58.5155 71.519 58.3752 71.2454C58.2416 70.985 57.9086 70.9182 57.4602 71.0244C57.6505 68.0803 56.6383 65.6715 54.2469 63.858C54.653 63.7208 55.0747 63.631 55.445 63.4414C56.0414 63.1361 56.6121 62.7776 57.1768 62.4154C57.4082 62.267 57.574 62.0121 57.8111 61.8792C57.9587 61.7964 58.1907 61.8151 58.3731 61.8497C60.0305 62.1648 61.4325 62.9414 62.5799 64.2123Z" fill="#183F6E"/>
<path d="M65.0173 68.1463C64.8652 67.6401 64.727 67.1578 64.5825 66.6538C64.9487 66.647 65.2716 66.5371 65.3507 66.1345C65.4045 65.8606 65.3346 65.5936 65.0758 65.4304C64.7839 65.2464 64.4922 65.3056 64.1083 65.6208C62.8723 63.2563 60.942 61.8414 58.2737 61.4196C58.9457 60.5821 59.5141 59.6949 59.7687 58.6607C59.8736 58.2348 60.1353 58.0695 60.4811 57.9323C61.5859 57.4939 62.7458 57.3684 63.9084 57.4905C65.4072 57.6478 66.7511 58.2324 67.9154 59.2093C68.8081 59.9582 69.598 60.7919 70.2304 61.7756C70.7299 62.5526 71.0525 63.4019 71.3368 64.2704C71.3575 64.3337 71.3376 64.4197 71.3135 64.4869C70.8186 65.8615 70.2765 67.2184 69.481 68.4508C68.7733 69.5472 68.0783 70.6614 67.2627 71.6757C66.5338 72.5821 65.648 73.363 64.8296 74.1974C64.8113 74.2161 64.7702 74.2125 64.7238 74.2229C64.8851 73.6517 65.0855 73.1005 65.1904 72.5317C65.341 71.7156 65.4468 70.8901 65.3015 70.0533C65.1931 69.4288 65.1201 68.7981 65.0173 68.1463Z" fill="#0A4876"/>
<path d="M69.5099 59.8948C68.9892 59.4343 68.4846 58.9903 67.98 58.5464C68.476 58.2125 68.5969 57.9767 68.4584 57.6132C68.3484 57.3244 68.0791 57.1773 67.7322 57.2164C67.4063 57.2531 67.2291 57.4876 67.1461 58.0231C64.8397 56.6873 62.4743 56.5008 60.033 57.6796C60.2508 56.5103 60.2194 55.3788 59.8379 54.2894C59.6999 53.8953 59.893 53.6755 60.0745 53.4447C60.9825 52.2902 62.1293 51.4665 63.5502 51.0468C64.5416 50.754 65.5433 50.6756 66.5807 50.7771C67.9703 50.913 69.2711 51.2872 70.489 51.9584C70.7467 52.1005 71.0169 52.2362 71.2349 52.4275C71.3624 52.5394 71.4283 52.7485 71.4694 52.926C71.6761 53.8169 71.8894 54.7075 72.0519 55.6069C72.1462 56.1289 72.1596 56.6666 72.1907 57.1984C72.2246 57.777 72.26 58.3571 72.2539 58.9361C72.2392 60.3297 72.1296 61.7142 71.7416 63.063C71.7271 63.1133 71.7338 63.1695 71.7013 63.239C71.2203 61.9669 70.4245 60.9052 69.5099 59.8948Z" fill="#0C4D7D"/>
<path d="M68.1407 46.7153C68.7187 47.5115 69.3419 48.2552 69.8234 49.0813C70.3075 49.912 70.6508 50.8244 71.0546 51.7015C71.0699 51.7347 71.0728 51.7734 71.1 51.8868C69.5034 50.6377 67.7002 50.2008 65.7696 50.0622C65.6997 49.7647 65.8914 49.3432 65.4603 49.1804C65.2981 49.1192 65.0954 49.0866 64.9308 49.125C64.5261 49.2193 64.3881 49.6232 64.5682 50.1146C62.3384 50.4038 60.6769 51.5262 59.5908 53.5027C59.1989 52.6647 58.6335 51.9638 57.9524 51.344C57.6281 51.0489 57.6483 50.6245 57.6906 50.2365C57.7419 49.7667 57.8203 49.294 57.9487 48.8399C58.1802 48.0207 58.586 47.2885 59.1419 46.6336C60.2963 45.2737 61.8336 44.6028 63.5123 44.1865C63.8606 44.1002 64.2295 44.1005 64.5844 44.0361C65.1261 43.9378 65.4973 44.2271 65.8575 44.5553C66.5654 45.2002 67.2736 45.8446 67.9784 46.4927C68.039 46.5484 68.0759 46.6297 68.1407 46.7153Z" fill="#0C5086"/>
<path d="M53.4304 44.54C53.7087 43.7067 54.1341 42.9817 54.6417 42.3017C54.8003 42.0893 54.9753 41.889 55.1351 41.6774C55.5253 41.1607 56.0344 40.9531 56.6782 41.0516C57.1719 41.1271 57.6744 41.154 58.1628 41.2528C59.0195 41.4261 59.8793 41.6003 60.7179 41.8425C61.9561 42.2001 63.112 42.7593 64.1458 43.3694C63.3979 43.6082 62.5792 43.8042 61.8172 44.1314C61.0473 44.4619 60.3335 44.9225 59.5708 45.3394C59.5172 44.8506 59.1234 44.7087 58.6614 44.8421C58.4736 44.8963 58.2413 45.175 58.2264 45.3668C58.1965 45.7488 58.4797 45.9983 58.8353 46.1388C57.4832 47.6056 57.0785 49.5181 57.2837 50.8189C56.7911 50.6076 56.317 50.3616 55.8155 50.2013C55.3364 50.0483 54.8277 49.9886 54.3343 49.8778C54.2384 49.8562 54.1179 49.8117 54.068 49.7379C53.5139 48.9188 53.2077 48.02 53.1139 47.0278C53.0332 46.1738 53.1783 45.3669 53.4304 44.54Z" fill="#125D95"/>
<path d="M51.1326 50.8062C50.9579 50.9504 50.8121 51.0946 50.6447 51.2068C50.5853 51.2466 50.4565 51.2388 50.3876 51.2013C48.9645 50.4243 48.1962 49.1888 47.8441 47.6396C47.6956 46.9861 47.627 46.3344 47.6621 45.6718C47.701 44.9403 47.8584 44.2294 48.1753 43.566C48.2392 43.4321 48.4074 43.337 48.5442 43.25C49.5287 42.6239 50.5809 42.1377 51.6876 41.7695C52.7356 41.4209 53.8099 41.1985 54.9128 41.1194C54.9539 41.1165 54.9958 41.1232 54.9828 41.1225C54.589 41.594 54.1607 42.0721 53.7722 42.5805C53.2524 43.2608 52.9569 44.0574 52.7556 44.8755C52.6798 45.1835 52.5526 45.1796 52.3335 45.139C52.0223 45.0813 51.766 45.2129 51.6314 45.4728C51.4983 45.7301 51.5597 45.978 51.7246 46.1559C51.9146 46.3611 52.1578 46.5643 52.524 46.3321C52.5924 47.6285 52.9223 48.8116 53.5801 49.9273C52.6821 50.0222 51.8939 50.3445 51.1326 50.8062Z" fill="#1F608F"/>
<path d="M46.8379 54.2141C44.9705 53.3749 43.973 51.9077 43.5451 49.9785C43.4405 49.5065 43.5762 49.1267 43.7517 48.7299C44.2732 47.551 44.923 46.4521 45.8226 45.517C46.3138 45.0064 46.8238 44.5138 47.3741 43.9644C47.2639 44.6392 47.1368 45.2061 47.0897 45.7795C47.0577 46.1678 47.1145 46.569 47.1745 46.9578C47.2465 47.4254 47.3718 47.8847 47.4537 48.3511C47.4663 48.4231 47.3892 48.5406 47.3199 48.5917C47.0574 48.7855 46.9288 49.0606 47.0245 49.2799C47.1357 49.5345 47.4171 49.6607 47.7318 49.6196C47.8193 49.6081 47.964 49.626 47.9989 49.6821C48.5145 50.5091 49.2599 51.0745 50.0849 51.5571C50.1338 51.5857 50.1771 51.735 50.1514 51.7632C49.4527 52.53 49.2738 53.4769 49.2017 54.4785C48.403 54.5086 47.6143 54.54 46.8379 54.2141Z" fill="#20669C"/>
<path d="M49.1274 58.4988C48.308 58.8619 47.4629 58.885 46.6186 58.8324C45.6478 58.772 44.715 58.4884 43.9993 57.8358C43.6648 57.5308 43.4999 56.9839 43.3784 56.5155C43.1539 55.6499 42.9756 54.7669 42.8611 53.8804C42.7933 53.3558 42.8694 52.8098 42.9084 52.2754C42.9468 51.7489 43.0201 51.2249 43.1093 50.6973C43.4048 52.1547 44.2626 53.2094 45.4451 54.0707C45.3995 54.1357 45.3523 54.2007 45.3076 54.2673C45.0915 54.589 45.1626 54.8554 45.5213 55.0711C45.7681 55.2195 46.1158 55.1156 46.2457 54.8173C46.3289 54.626 46.3906 54.6162 46.5954 54.6646C47.1293 54.7908 47.6756 54.8743 48.2214 54.9372C48.5542 54.9755 48.895 54.9442 49.2496 54.9442C49.4441 55.888 49.8116 56.7398 50.6674 57.4278C50.1362 57.7987 49.6431 58.1429 49.1274 58.4988Z" fill="#22689B"/>
<path d="M46.8123 61.1757C45.8435 60.451 45.008 59.6289 44.4124 58.569C44.6458 58.7018 44.8752 58.8423 45.1134 58.9659C45.9974 59.4247 46.9343 59.5201 47.9095 59.3712C47.9833 59.3599 48.1075 59.4331 48.1493 59.5024C48.297 59.7478 48.5094 59.8645 48.7756 59.7962C49.0347 59.7296 49.1961 59.5581 49.1648 59.2484C49.1558 59.1592 49.2302 59.028 49.3072 58.9693C49.8567 58.5507 50.4168 58.1459 51.0053 57.7134C51.3217 57.8518 51.6919 58.0634 52.0903 58.1744C52.4955 58.2872 52.9284 58.3009 53.3742 58.3615C53.4545 59.2198 53.1956 59.9864 52.6821 60.6926C52.1614 61.4087 51.513 61.95 50.6688 62.2298C50.2794 62.3588 49.8768 62.4691 49.4716 62.5206C49.2827 62.5446 49.0568 62.4385 48.8761 62.3398C48.1896 61.9646 47.5148 61.5684 46.8123 61.1757Z" fill="#2973A9"/>
<path d="M53.3072 63.0585C52.8527 63.0585 52.4262 63.0846 52.0042 63.0525C51.3611 63.0034 50.7212 62.914 50.0669 62.7737C51.3241 62.6441 52.276 62.0329 53.0243 61.0709C53.4893 61.2535 53.7764 61.2025 53.928 60.9103C54.0794 60.6184 53.9627 60.3294 53.6436 60.1154C53.6894 59.5485 53.7263 59.0109 53.7821 58.4754C53.792 58.3809 53.8639 58.2347 53.9363 58.214C54.5608 58.0357 55.0847 57.7093 55.5049 57.2012C56.0782 57.6013 56.4366 58.1421 56.5608 58.7928C56.7113 59.5815 56.7508 60.3914 56.3722 61.1394C56.159 61.5609 55.9463 62.0284 55.6032 62.3255C55.2797 62.6056 54.7933 62.714 54.3637 62.8519C54.0335 62.9578 53.6802 62.9922 53.3072 63.0585Z" fill="#31719D"/>
<path d="M57.6179 58.4096C57.4205 57.9533 57.1593 57.873 56.7148 58.0727C56.4327 57.7139 56.155 57.3668 55.8863 57.013C55.841 56.9534 55.7975 56.8544 55.8154 56.7911C55.9661 56.2588 56.1312 55.7306 56.3097 55.1431C57.0919 55.0559 57.8322 55.378 58.4946 55.9234C58.661 56.0604 58.7959 56.2347 58.9567 56.3793C59.4149 56.7914 59.2629 57.29 59.1563 57.7757C58.877 59.0488 58.2484 60.1431 57.3848 61.1056C57.1867 61.3264 56.9284 61.4936 56.641 61.7328C56.7721 61.2784 56.9114 60.9231 56.9705 60.555C57.0316 60.1747 57.0234 59.782 57.028 59.3945C57.0301 59.2233 57.0313 59.0877 57.2369 59.0296C57.5294 58.947 57.6465 58.7326 57.6179 58.4096Z" fill="#3780AC"/>
<path d="M56.8247 54.8145C56.5669 54.8145 56.34 54.8145 56.0943 54.8145C55.8687 54.1649 55.4626 53.6669 54.8262 53.3541C55.3291 52.7858 55.9649 52.5066 56.6988 52.4117C57.5615 52.3003 58.1845 52.5496 58.5918 53.3945C59.0233 54.2898 59.2864 55.1994 59.3139 56.1573C58.8804 55.7901 58.4496 55.4251 58.0559 55.0916C58.0559 54.9085 58.0964 54.6935 58.0376 54.5102C58.0111 54.4276 57.7421 54.3302 57.6618 54.3762C57.5022 54.4677 57.3971 54.6539 57.235 54.8407C57.1679 54.8361 57.0117 54.8253 56.8247 54.8145Z" fill="#548EB9"/>
<path d="M50.5228 52.7822C50.7061 53.2391 50.8707 53.6817 51.0345 54.1219C50.9845 54.2269 50.9007 54.3644 50.8612 54.5135C50.8513 54.551 50.9911 54.6806 51.0494 54.6729C51.1962 54.6534 51.3359 54.5798 51.4785 54.5278C51.4718 54.5026 51.465 54.4773 51.4583 54.4521C51.5229 54.4886 51.5842 54.5331 51.6525 54.5602C52.0004 54.6982 52.2272 54.9013 52.3583 55.2934C52.4617 55.6023 52.7754 55.8413 52.9972 56.1131C52.4263 56.6141 51.142 56.5696 50.6657 56.1115C50.3601 55.8176 50.1678 55.3209 50.0986 54.8874C49.9819 54.1566 50.0134 53.4058 50.5228 52.7822Z" fill="#5EB1D4"/>
<path d="M53.6265 51.5576C53.8441 51.3176 54.0434 51.0935 54.2475 50.8738C54.2814 50.8373 54.3386 50.7937 54.3809 50.7976C55.5354 50.9043 56.5946 51.244 57.516 52.1285C56.8848 51.8863 56.3289 51.9651 55.7495 52.1755C55.7495 51.8661 55.7038 51.5751 55.3497 51.5976C55.2122 51.6064 54.968 51.7957 54.9776 51.8794C54.9993 52.0678 55.149 52.2416 55.2608 52.4477C55.0505 52.6673 54.784 52.9455 54.5187 53.2225C54.1515 53.2225 53.7719 53.2225 53.3438 53.2225C53.1184 52.6464 53.3403 52.1076 53.6265 51.5576Z" fill="#4492C5"/>
<path d="M51.514 53.9535C51.0916 53.4275 51.0003 52.8358 51.0457 52.2106C51.0515 52.131 51.0734 52.0328 51.1253 51.9792C51.7996 51.2819 52.6253 50.9122 53.6079 50.8398C53.3682 51.2442 53.1432 51.6236 52.9554 51.9403C52.7308 52.0015 52.5144 52.0162 52.3596 52.1212C52.2823 52.1736 52.2531 52.4415 52.3166 52.5225C52.4196 52.6537 52.617 52.7113 52.7744 52.7999C52.7962 52.7759 52.818 52.7518 52.8398 52.7278C52.8887 52.9419 52.9459 53.1546 52.9803 53.371C52.9882 53.4201 52.921 53.4847 52.8817 53.5372C52.6448 53.8546 52.406 54.1706 52.1333 54.5328C51.9715 54.3819 51.7511 54.1763 51.514 53.9535Z" fill="#56A7CB"/>
<path d="M51.2423 56.6918C51.6134 56.6955 51.9844 56.6959 52.3552 56.7066C52.4081 56.7081 52.4885 56.7476 52.5066 56.7903C52.5944 56.9987 52.7395 57.0938 52.9375 56.9709C53.158 56.834 53.0758 56.6429 52.9603 56.4682C53.1005 56.2681 53.2417 56.1258 53.532 56.1639C53.7063 56.1867 53.8984 56.075 54.1577 56.0029C54.1411 56.1748 54.147 56.3363 54.1076 56.486C53.7941 57.678 53.5988 57.5312 52.6152 57.4535C52.0968 57.4126 51.621 57.1405 51.2293 56.739C51.2284 56.7094 51.2423 56.6918 51.2423 56.6918Z" fill="#75C0E0"/>
<path d="M54.4235 57.1523C54.2791 57.2212 54.1569 57.2826 53.9802 57.3715C54.1366 57.0551 54.2656 56.7941 54.3981 56.526C54.6061 56.5811 54.8369 56.6297 54.8785 56.3367C54.9345 55.9439 54.5984 56.0869 54.3814 56.0246C54.3753 55.9403 54.3525 55.8446 54.3648 55.7536C54.3952 55.528 54.3031 55.2215 54.6899 55.2043C55.0374 55.1888 55.3241 55.4382 55.3364 55.7809C55.3542 56.2773 55.0698 56.6229 54.7295 56.9338C54.6429 57.0129 54.5407 57.075 54.4235 57.1523Z" fill="#7FCBE8"/>
<path d="M51.2227 61.7197C51.1924 61.7045 51.169 61.6801 51.1455 61.6558C51.1722 61.6575 51.199 61.6592 51.2347 61.6767C51.2436 61.6924 51.2295 61.7105 51.2227 61.7197Z" fill="#75C0E0"/>
<path d="M56.5399 66.7158C56.558 66.7351 56.557 66.7669 56.5559 66.7986C56.5442 66.7752 56.5325 66.7517 56.5399 66.7158Z" fill="#3780AC"/>
</svg>
