<svg width="126" height="55" viewBox="0 0 126 55" fill="none" xmlns="http://www.w3.org/2000/svg">
<g clip-path="url(#clip0_282_6379)">
<path d="M21.4668 55.0517C14.3321 55.0517 7.19734 55.0517 0.052002 55.0517C0.052002 47.8411 0.052002 40.6304 0.0716384 33.4068C0.164175 34.0693 0.236013 34.7448 0.310213 35.4201C0.436983 36.5738 0.720436 37.6946 1.0636 38.7986C1.54721 40.3546 2.21951 41.8275 3.1295 43.1847C3.36957 43.5427 3.59375 43.9375 3.9151 44.2098C4.66111 44.8421 5.53549 45.2818 6.44809 45.6309C7.49717 46.0322 8.58959 46.2952 9.70822 46.3438C10.6139 46.3831 11.533 46.3486 12.4324 46.2369C13.4229 46.1139 14.3743 45.7896 15.2676 45.3301C16.239 44.8304 17.0897 44.1797 17.7914 43.3327C18.6191 42.3336 19.1302 41.1864 19.4335 39.9411C19.49 39.7093 19.5899 39.4664 19.3739 39.2092C19.0545 38.8289 18.7601 38.417 18.5205 37.9827C17.9509 36.95 17.629 35.8396 17.5167 34.659C17.4357 33.8084 17.4509 32.9635 17.591 32.1302C17.7965 30.9079 18.2157 29.7538 18.8375 28.6717C19.4804 27.5531 20.3187 26.6007 21.317 25.8028C22.4075 24.9312 23.6375 24.278 24.9755 23.8702C25.7399 23.6372 26.5326 23.4889 27.3201 23.3426C27.7539 23.262 28.203 23.2413 28.6458 23.2355C29.2229 23.2281 29.802 23.243 30.3774 23.286C30.7016 23.3102 30.8448 23.2807 30.944 23.0554C31.4067 22.0046 31.8719 20.9549 32.3397 19.9063C32.7182 19.0577 33.1071 18.2138 33.4814 17.3634C33.9233 16.3593 34.3693 15.3565 34.784 14.3412C34.9932 13.829 35.2402 13.2993 35.2872 12.7616C35.3599 11.9279 35.2897 11.0799 35.2509 10.2394C35.2387 9.97616 35.1676 9.70184 35.0604 9.46046C34.9385 9.18593 34.8771 8.91637 34.8956 8.62118C34.9165 8.28852 34.9286 7.95532 34.9492 7.62265C34.9608 7.43621 34.9803 7.2502 34.9991 7.0643C35.0154 6.90363 34.9851 6.77527 34.8545 6.65256C34.2903 6.1223 33.7339 5.58341 33.1868 5.03564C33.1022 4.95096 33.0435 4.80577 33.0368 4.68501C33.0171 4.33261 33.0479 3.9771 33.0224 3.62544C33.009 3.44044 32.963 3.22918 32.8571 3.08409C32.1132 2.06537 31.3499 1.06082 30.5927 0.0517388C53.0767 0.0517387 75.5607 0.0517387 98.0483 0.0517387C98.0483 18.3806 98.0483 36.7095 98.0483 55.0517C73.4036 55.0517 48.7551 55.0517 24.0916 55.0319C24.2561 54.9744 24.4579 54.9771 24.6117 54.8927C25.7518 54.2676 26.7606 53.4801 27.603 52.4801C28.2128 51.7561 28.6899 50.9567 28.9758 50.0635C29.3189 48.9917 29.561 47.8931 29.3979 46.7527C29.3314 46.2876 29.2772 45.8156 29.1506 45.3654C28.8443 44.2768 28.1995 43.3963 27.3647 42.6458C27.0642 42.3756 26.7376 42.1916 26.312 42.2725C25.5677 42.414 24.8363 42.2808 24.1117 42.1364C23.7322 42.0608 23.3668 41.9142 22.9765 41.7939C24.3745 44.1558 24.3899 46.5068 23.0377 48.887C23.3394 48.8844 23.5725 48.9646 23.6324 49.2373C23.6793 49.4506 23.6844 49.6771 23.4397 49.8271C23.0481 50.0672 22.8099 49.8569 22.6425 49.6097C22.0539 50.197 21.4962 50.7959 20.8924 51.3443C20.2842 51.8968 19.5701 52.31 18.7873 52.5584C18.1422 52.7631 17.4734 52.9045 16.8061 53.0238C16.4136 53.094 16.0028 53.0891 15.6015 53.077C15.0617 53.0607 14.5231 53.0047 13.9839 52.9658C13.9771 52.9929 13.9702 53.02 13.9633 53.0471C14.5312 53.2845 15.0903 53.5463 15.669 53.7534C16.4562 54.0351 17.2451 54.3337 18.0577 54.517C18.9516 54.7186 19.8493 54.9476 20.78 54.9533C21.0092 54.9548 21.2379 55.0173 21.4668 55.0517ZM24.9302 36.4481C24.9092 36.4468 24.8882 36.4455 24.8672 36.4441C24.8856 36.4631 24.9041 36.4821 24.9346 36.5339C25.246 36.8304 25.6251 37.0472 26.0381 37.0799C26.8218 37.1418 26.9774 37.2588 27.2272 36.3087C27.2586 36.1894 27.2539 36.0606 27.2671 35.9236C27.0605 35.9811 26.9075 36.0701 26.7686 36.0519C26.5373 36.0216 26.4248 36.135 26.3131 36.2945C26.4051 36.4337 26.4707 36.586 26.295 36.6952C26.1372 36.7932 26.0216 36.7174 25.9516 36.5513C25.9372 36.5172 25.8731 36.4858 25.831 36.4845C25.5356 36.476 25.2399 36.4756 24.9302 36.4481ZM5.07435 45.6021C5.05062 45.5989 5.02689 45.5956 5.00317 45.5924C5.0163 45.6171 5.02944 45.6417 5.06601 45.6934C5.69564 46.4091 6.29858 47.1506 6.9626 47.8329C7.59387 48.4815 8.26083 49.1028 8.96307 49.6737C9.87138 50.4121 10.8232 51.0982 11.7714 51.7862C12.081 52.0108 12.4176 52.2519 12.7778 52.3415C13.34 52.4815 13.9313 52.5299 14.5133 52.561C15.4286 52.61 16.3475 52.5813 17.2494 52.4068C18.6132 52.1428 19.8605 51.6241 20.9323 50.7062C21.7427 50.012 22.4046 49.2057 22.888 48.2655C23.2135 47.6325 23.4581 46.9546 23.4851 46.2304C23.5073 45.6357 23.5553 45.0294 23.4682 44.4467C23.3777 43.8418 23.1841 43.2406 22.9521 42.6717C22.7099 42.0781 22.4871 41.4333 21.7917 41.1702C21.699 41.1351 21.6132 41.0758 21.5326 41.0163C21.0258 40.6428 20.5213 40.266 20.0561 39.92C19.6704 42.4465 18.2 44.2705 16.0854 45.6575C16.3689 45.8624 16.4643 46.0788 16.3696 46.3342C16.2875 46.5558 16.1197 46.6952 15.8821 46.6702C15.744 46.6557 15.5868 46.5875 15.4891 46.4918C15.3927 46.3973 15.3605 46.2377 15.2942 46.0939C14.1355 46.7423 12.8601 47.0028 11.5593 47.1222C10.9222 47.1806 10.2718 47.1111 9.62834 47.0813C8.85832 47.0455 8.12053 46.8458 7.38388 46.6293C6.57385 46.3912 5.8295 46.0138 5.07435 45.6021ZM33.9641 42.4544C33.0633 41.4542 31.9463 40.8351 30.6257 40.584C30.4804 40.5564 30.2955 40.5415 30.1779 40.6075C29.989 40.7135 29.8569 40.9167 29.6726 41.0349C29.2226 41.3236 28.7679 41.6094 28.2927 41.8528C27.9977 42.0039 27.6617 42.0755 27.3382 42.1848C29.2435 43.6304 30.0499 45.5504 29.8984 47.8971C30.2556 47.8125 30.5209 47.8658 30.6273 48.0734C30.7391 48.2914 30.7574 48.5297 30.5696 48.712C30.4736 48.8051 30.3188 48.8762 30.1867 48.8832C30.0517 48.8903 29.9119 48.8067 29.7657 48.7602C29.2443 51.4797 27.9324 53.6458 25.2519 54.8932C25.4189 54.8932 25.4991 54.9062 25.5737 54.8912C26.2318 54.7583 26.8892 54.6213 27.5464 54.4839C29.0046 54.179 30.4031 53.6884 31.7388 53.0418C32.5371 52.6553 33.2978 52.1855 34.0512 51.7147C34.502 51.433 34.9654 51.176 35.1736 50.5925C35.5017 49.6727 35.7316 48.7441 35.7762 47.7714C35.8178 46.8661 35.6664 45.9816 35.408 45.1199C35.1164 44.1477 34.6572 43.2563 33.9641 42.4544ZM35.9306 45.6221C36.0013 46.1226 36.0595 46.6253 36.1459 47.1231C36.2617 47.7901 36.1773 48.4481 36.0574 49.0987C35.9738 49.552 35.8141 49.9914 35.6856 50.4467C35.7226 50.4385 35.7553 50.4413 35.7699 50.4264C36.422 49.7613 37.1277 49.1388 37.7085 48.4163C38.3583 47.6078 38.9121 46.7197 39.4759 45.8458C40.1097 44.8634 40.5416 43.7819 40.9359 42.6861C40.9552 42.6326 40.971 42.564 40.9545 42.5135C40.728 41.8213 40.4709 41.1443 40.073 40.525C39.5691 39.7408 38.9398 39.0763 38.2285 38.4793C37.3008 37.7007 36.2301 37.2347 35.0359 37.1093C34.1097 37.012 33.1854 37.112 32.3052 37.4615C32.0297 37.5709 31.8212 37.7026 31.7376 38.042C31.5347 38.8664 31.0819 39.5736 30.5465 40.2412C32.6724 40.5774 34.2105 41.7052 35.1952 43.59C35.5011 43.3388 35.7335 43.2916 35.966 43.4382C36.1723 43.5683 36.228 43.7811 36.1851 43.9994C36.1221 44.3204 35.8648 44.408 35.573 44.4133C35.6881 44.8151 35.7982 45.1996 35.9306 45.6221ZM39.5119 39.0391C40.2277 39.8314 40.8618 40.6776 41.2451 41.6917C41.271 41.6363 41.2656 41.5914 41.2772 41.5514C41.5863 40.4762 41.6736 39.3727 41.6854 38.2618C41.6902 37.8003 41.662 37.3379 41.635 36.8767C41.6102 36.4528 41.5995 36.0242 41.5244 35.6081C41.3949 34.8912 41.225 34.1813 41.0603 33.4711C41.0275 33.3297 40.975 33.163 40.8735 33.0738C40.6998 32.9213 40.4845 32.8131 40.2792 32.6999C39.3088 32.1649 38.2724 31.8666 37.1652 31.7582C36.3387 31.6773 35.5406 31.7399 34.7507 31.9733C33.6186 32.3078 32.7049 32.9644 31.9814 33.8846C31.8368 34.0686 31.683 34.2438 31.7929 34.5579C32.0969 35.4263 32.1219 36.3282 31.9484 37.2603C33.8934 36.3206 35.7781 36.4693 37.6157 37.5341C37.6818 37.1073 37.823 36.9203 38.0827 36.891C38.3591 36.8599 38.5737 36.9772 38.6613 37.2074C38.7716 37.4971 38.6753 37.685 38.2802 37.9511C38.6822 38.305 39.0842 38.6589 39.5119 39.0391ZM38.3946 28.5077C38.3565 28.4524 38.3271 28.3876 38.2789 28.3432C37.7173 27.8266 37.153 27.3129 36.589 26.7989C36.302 26.5373 36.0063 26.3066 35.5747 26.385C35.2919 26.4363 34.998 26.4361 34.7205 26.5049C33.383 26.8367 32.1581 27.3716 31.2384 28.4555C30.7954 28.9775 30.4721 29.5611 30.2877 30.2141C30.1854 30.5761 30.1229 30.9529 30.0821 31.3273C30.0484 31.6366 30.0323 31.9749 30.2906 32.2101C30.8333 32.7042 31.2837 33.2629 31.596 33.9309C32.4614 32.3554 33.7852 31.4607 35.5617 31.2302C35.4183 30.8385 35.5283 30.5166 35.8507 30.4414C35.9818 30.4108 36.1433 30.4367 36.2725 30.4855C36.616 30.6153 36.4633 30.9513 36.519 31.1884C38.0572 31.2989 39.4939 31.6471 40.7659 32.6428C40.7443 32.5525 40.7419 32.5216 40.7298 32.4952C40.408 31.796 40.1346 31.0687 39.7488 30.4065C39.3652 29.7481 38.8686 29.1552 38.3946 28.5077ZM26.6756 26.8038C26.4868 27.4457 26.3713 28.0888 26.4355 28.7695C26.5102 29.5605 26.7543 30.2769 27.1957 30.9298C27.2355 30.9886 27.3314 31.0241 27.4079 31.0413C27.801 31.1296 28.2063 31.1772 28.588 31.2992C28.9876 31.4269 29.3653 31.623 29.7578 31.7915C29.5943 30.7546 29.9167 29.2301 30.994 28.0609C30.7107 27.949 30.4851 27.7501 30.5089 27.4456C30.5208 27.2927 30.7059 27.0705 30.8554 27.0273C31.2236 26.921 31.5374 27.0341 31.58 27.4238C32.1878 27.0914 32.7565 26.7243 33.3699 26.4608C33.977 26.2 34.6293 26.0438 35.2251 25.8534C34.4015 25.3672 33.4805 24.9214 32.494 24.6364C31.8258 24.4433 31.1408 24.3045 30.4583 24.1663C30.0691 24.0876 29.6687 24.0661 29.2753 24.0059C28.7624 23.9274 28.3568 24.0929 28.0459 24.5047C27.9186 24.6734 27.7792 24.8331 27.6528 25.0024C27.2484 25.5445 26.9094 26.1223 26.6756 26.8038ZM24.8732 31.7712C25.4636 31.4131 26.0916 31.1562 26.8071 31.0806C26.283 30.1912 26.0201 29.2482 25.9656 28.2149C25.6739 28.4 25.4801 28.238 25.3287 28.0745C25.1973 27.9326 25.1484 27.735 25.2545 27.53C25.3617 27.3228 25.5658 27.2179 25.8139 27.2638C25.9884 27.2962 26.0897 27.2993 26.1501 27.0538C26.3105 26.4017 26.5459 25.7668 26.9601 25.2245C27.2696 24.8192 27.6109 24.4381 27.9247 24.0623C27.935 24.0629 27.9017 24.0575 27.8689 24.0598C26.9902 24.1229 26.1342 24.3002 25.2992 24.578C24.4174 24.8715 23.5791 25.2591 22.7947 25.7582C22.6857 25.8275 22.5517 25.9033 22.5008 26.01C22.2483 26.5388 22.1229 27.1054 22.0919 27.6885C22.0639 28.2167 22.1186 28.7362 22.2369 29.2571C22.5174 30.4919 23.1296 31.4768 24.2635 32.0961C24.3183 32.126 24.4209 32.1322 24.4683 32.1005C24.6017 32.0111 24.7178 31.8961 24.8732 31.7712ZM21.453 34.5083C22.0538 34.7577 22.6822 34.7326 23.3185 34.7086C23.376 33.9103 23.5185 33.1555 24.0752 32.5443C24.0957 32.5218 24.0612 32.4028 24.0222 32.38C23.3649 31.9953 22.771 31.5446 22.3603 30.8854C22.3324 30.8407 22.2171 30.8264 22.1474 30.8356C21.8967 30.8683 21.6724 30.7678 21.5839 30.5648C21.5076 30.39 21.61 30.1707 21.8193 30.0162C21.8744 29.9755 21.9359 29.8818 21.9258 29.8245C21.8606 29.4527 21.7608 29.0866 21.7033 28.7139C21.6556 28.4039 21.6103 28.0841 21.6358 27.7746C21.6733 27.3176 21.7746 26.8657 21.8624 26.3278C21.424 26.7657 21.0176 27.1584 20.6262 27.5654C19.9095 28.3107 19.3918 29.1867 18.9763 30.1264C18.8365 30.4427 18.7283 30.7455 18.8117 31.1217C19.1526 32.6594 19.9473 33.8289 21.453 34.5083ZM23.2774 37.904C23.6702 37.6296 24.0631 37.3552 24.4863 37.0596C23.8045 36.5112 23.5117 35.8322 23.3567 35.08C23.0742 35.08 22.8026 35.1049 22.5375 35.0743C22.1026 35.0242 21.6673 34.9576 21.242 34.8571C21.0788 34.8185 21.0297 34.8263 20.9633 34.9788C20.8599 35.2166 20.5828 35.2994 20.3862 35.1811C20.1004 35.0092 20.0437 34.7968 20.2159 34.5404C20.2515 34.4873 20.2892 34.4355 20.3255 34.3837C19.3834 33.6972 18.6998 32.8564 18.4645 31.6947C18.3934 32.1153 18.335 32.5329 18.3044 32.9526C18.2733 33.3786 18.2127 33.8139 18.2667 34.232C18.3579 34.9386 18.4999 35.6424 18.6788 36.3324C18.7756 36.7057 18.907 37.1417 19.1735 37.3848C19.7438 37.905 20.487 38.131 21.2604 38.1792C21.9332 38.2212 22.6065 38.2027 23.2774 37.904ZM74.7211 32.4717C73.5243 35.0961 72.3275 37.7205 71.1218 40.3641C71.0699 40.2664 71.031 40.2019 71.0002 40.1338C70.4334 38.8812 69.87 37.6271 69.3005 36.3757C68.9896 35.6927 68.6638 35.0164 68.3532 34.3332C67.8602 33.2483 67.3755 32.1595 66.8819 31.0748C66.8564 31.0186 66.7844 30.9526 66.7283 30.9469C66.5611 30.93 66.3911 30.9408 66.2319 30.9408C66.2319 34.2733 66.2319 37.5714 66.2319 40.8666C66.3504 40.8666 66.452 40.8666 66.5727 40.8666C66.5727 37.7002 66.5727 34.542 66.5727 31.3059C66.9134 32.0564 67.2188 32.7365 67.5304 33.4138C67.9451 34.3151 68.3687 35.2123 68.7812 36.1146C69.4673 37.6153 70.1518 39.1169 70.826 40.6231C70.9275 40.8498 71.0555 40.934 71.2656 40.8615C72.7222 37.6907 74.1719 34.5348 75.6217 31.3789C75.6374 31.383 75.6531 31.387 75.6688 31.3911C75.6688 34.551 75.6688 37.7109 75.6688 40.8651C75.7909 40.8651 75.8923 40.8651 76.004 40.8651C76.004 37.5575 76.004 34.2597 76.004 30.9408C75.8411 30.9408 75.6863 30.9282 75.5352 30.9465C75.4687 30.9545 75.3793 31.0112 75.3523 31.0697C75.1431 31.5232 74.9466 31.9825 74.7211 32.4717ZM21.4332 40.0505C21.9743 40.36 22.512 40.6759 23.059 40.9749C23.203 41.0536 23.3829 41.1382 23.5334 41.119C23.8563 41.078 24.177 40.9901 24.4873 40.8872C25.1599 40.6642 25.6765 40.2327 26.0914 39.662C26.5006 39.0991 26.7068 38.488 26.6428 37.8038C26.2876 37.7555 25.9427 37.7446 25.6199 37.6546C25.3025 37.5662 25.0075 37.3976 24.7554 37.2872C24.2865 37.632 23.8403 37.9547 23.4025 38.2883C23.3411 38.3351 23.2818 38.4397 23.289 38.5108C23.3139 38.7576 23.1853 38.8944 22.9789 38.9474C22.7668 39.0018 22.5976 38.9088 22.4799 38.7132C22.4466 38.658 22.3476 38.5997 22.2889 38.6086C21.5118 38.7274 20.7654 38.6513 20.061 38.2856C19.8712 38.1871 19.6885 38.0751 19.5025 37.9692C19.9771 38.814 20.6428 39.4694 21.4332 40.0505ZM80.0077 39.7626C80.9566 40.7089 82.1273 41.1332 83.4438 41.1805C84.1655 41.2064 84.8766 41.0983 85.5485 40.82C86.6575 40.3605 87.5333 39.6268 88.0924 38.5554C88.6292 37.527 88.8009 36.4338 88.6754 35.2766C88.5909 34.4976 88.3906 33.7689 87.99 33.0981C87.1425 31.679 85.8742 30.8703 84.2471 30.6956C83.0705 30.5693 81.9229 30.7369 80.8775 31.3815C80.0763 31.8755 79.4444 32.5231 79.0367 33.3564C78.478 34.4986 78.3177 35.7095 78.5522 36.9707C78.7511 38.0399 79.188 38.9778 80.0077 39.7626ZM39.1225 21.524C39.4593 21.524 39.7962 21.5296 40.1329 21.5229C41.0113 21.5053 41.89 21.572 42.7644 21.3768C43.8322 21.1383 44.7657 20.6994 45.5037 19.8696C46.2299 19.053 46.5418 18.0796 46.6079 17.0213C46.655 16.2678 46.5977 15.519 46.3622 14.7862C46.0806 13.9099 45.6003 13.1761 44.864 12.6306C43.8628 11.8888 42.691 11.6403 41.4761 11.597C40.4842 11.5617 39.4901 11.5896 38.4969 11.5904C38.4228 11.5905 38.3487 11.5983 38.2819 11.6022C38.2819 14.9194 38.2819 18.2155 38.2819 21.524C38.5549 21.524 38.8128 21.524 39.1225 21.524ZM26.6134 41.5475C26.8867 41.4947 27.1682 41.4673 27.4313 41.3828C27.7736 41.2729 28.1611 41.1865 28.4189 40.9633C28.6923 40.7264 28.8617 40.3538 29.0316 40.0178C29.3332 39.4216 29.3017 38.776 29.1818 38.1473C29.0829 37.6287 28.7973 37.1975 28.3406 36.8786C28.0057 37.2837 27.5883 37.5438 27.0908 37.686C27.0331 37.7024 26.9758 37.819 26.9679 37.8943C26.9234 38.3212 26.8941 38.7497 26.8576 39.2015C27.1118 39.3721 27.2048 39.6026 27.0842 39.8352C26.9634 40.0681 26.7347 40.1088 26.3641 39.9632C25.768 40.73 25.0095 41.2172 24.0078 41.3205C24.5291 41.4323 25.039 41.5036 25.5514 41.5427C25.8876 41.5684 26.2274 41.5475 26.6134 41.5475ZM91.2076 40.6845C91.2141 40.7477 91.2206 40.8108 91.226 40.8625C91.3527 40.8625 91.4532 40.8625 91.575 40.8625C91.575 39.2081 91.575 37.5659 91.575 35.9078C92.3211 35.9078 93.0453 35.9054 93.7694 35.9127C93.8258 35.9132 93.9028 35.9693 93.9343 36.0212C94.8573 37.5421 95.7868 39.0592 96.684 40.595C96.8378 40.8584 96.9963 40.9077 97.2595 40.8585C96.2612 39.1991 95.265 37.5431 94.2904 35.9228C94.7217 35.8317 95.1711 35.7877 95.5822 35.6385C96.2732 35.3876 96.7945 34.9301 97.0184 34.1935C97.1734 33.6838 97.1656 33.1674 97.0429 32.6622C96.9282 32.1899 96.6757 31.792 96.2619 31.4981C95.6783 31.0836 95.0074 30.9762 94.3272 30.9491C93.4645 30.9146 92.5993 30.9407 91.7351 30.9407C91.5649 30.9407 91.3947 30.9407 91.2076 30.9407C91.2076 34.1885 91.2076 37.4115 91.2076 40.6845ZM57.9012 40.8706C58.0028 40.8706 58.1045 40.8706 58.2369 40.8706C58.2369 39.2092 58.2369 37.5606 58.2369 35.9139C59.0275 35.9139 59.7872 35.9139 60.5415 35.9139C60.5599 35.9515 60.5727 35.9834 60.5902 36.0125C61.492 37.5164 62.3971 39.0185 63.2937 40.5256C63.4382 40.7685 63.5785 40.9749 63.9143 40.8522C62.9213 39.2009 61.9224 37.5397 60.9523 35.9264C61.3844 35.8332 61.8255 35.7844 62.2326 35.6401C62.9281 35.3937 63.4478 34.9347 63.6758 34.2024C63.834 33.6946 63.8296 33.1752 63.7052 32.6709C63.5711 32.1269 63.2673 31.686 62.7613 31.3914C62.2117 31.0714 61.6073 30.9691 60.9958 30.9491C60.0289 30.9176 59.0603 30.9405 58.0925 30.9413C58.0187 30.9413 57.945 30.9492 57.87 30.9534C57.87 34.2624 57.87 37.5474 57.9012 40.8706ZM63.4149 21.3443C63.43 21.1361 63.2698 21.217 63.1819 21.2168C61.4541 21.2124 59.7263 21.2135 57.9985 21.2135C57.9069 21.2135 57.8153 21.2135 57.7263 21.2135C57.7263 19.6456 57.7263 18.1075 57.7263 16.5488C59.4564 16.5488 61.1715 16.5488 62.8988 16.5488C62.8938 16.4374 62.8897 16.3475 62.8847 16.2372C61.1514 16.2372 59.437 16.2372 57.7271 16.2372C57.7271 14.7807 57.7271 13.3459 57.7271 11.8908C59.5616 11.8908 61.3804 11.8908 63.2104 11.8908C63.2049 11.7797 63.2005 11.6898 63.1963 11.6059C61.2364 11.6059 59.2975 11.6059 57.364 11.6059C57.364 14.919 57.364 18.2159 57.364 21.524C59.3398 21.524 61.2998 21.525 63.2598 21.5185C63.3117 21.5183 63.3632 21.4367 63.4149 21.3443ZM54.8682 11.8972C54.8869 11.8038 54.9055 11.7105 54.9258 11.6087C52.9476 11.6087 51.0022 11.6087 49.0705 11.6087C49.0705 14.9245 49.0705 18.2214 49.0705 21.5063C51.0974 21.5063 53.1058 21.5063 55.1099 21.5063C55.1099 21.4043 55.1099 21.3202 55.1099 21.2063C53.2075 21.2063 51.3137 21.2063 49.4339 21.2063C49.4339 19.638 49.4339 18.0998 49.4339 16.5409C51.1671 16.5409 52.8815 16.5409 54.5907 16.5409C54.5907 16.4358 54.5907 16.3519 54.5907 16.2382C52.8606 16.2382 51.1396 16.2382 49.4253 16.2382C49.4253 14.7793 49.4253 13.3507 49.4253 11.9C51.23 11.9 53.0244 11.9 54.8682 11.8972ZM50.8927 38.0292C52.0761 38.0292 53.2595 38.0269 54.4428 38.0341C54.5244 38.0346 54.6529 38.0855 54.6796 38.1474C55.022 38.9416 55.3699 39.7346 55.6705 40.5449C55.7766 40.8308 55.895 40.943 56.1885 40.8508C56.0274 40.4576 55.8695 40.0638 55.7051 39.6726C55.0669 38.1541 54.4228 36.6379 53.7882 35.1179C53.2241 33.767 52.6726 32.4109 52.1018 31.0629C52.0727 30.9941 51.9138 30.9504 51.8149 30.9496C51.7269 30.9489 51.5868 31.0016 51.5574 31.0689C50.928 32.5099 50.3152 33.9582 49.6904 35.4012C49.0288 36.929 48.3576 38.4525 47.6918 39.9784C47.5664 40.2659 47.4464 40.5557 47.3239 40.8444C47.3401 40.8682 47.3562 40.892 47.3724 40.9158C47.4998 40.8656 47.7029 40.8492 47.7428 40.7601C48.1267 39.9023 48.4799 39.0309 48.8539 38.1686C48.8826 38.1022 49.001 38.0367 49.0789 38.0352C49.6661 38.0241 50.2535 38.0292 50.8927 38.0292ZM66.0367 11.5898C65.9104 11.5898 65.7842 11.5898 65.6575 11.5898C65.6575 14.9155 65.6575 18.2123 65.6575 21.5107C65.7781 21.5107 65.8852 21.5107 66.0129 21.5107C66.0129 19.8904 66.0129 18.2833 66.0129 16.6604C66.8789 16.6604 67.7238 16.6517 68.5684 16.664C68.9978 16.6702 69.4089 16.603 69.8074 16.4531C70.5627 16.1691 71.1491 15.6991 71.3408 14.8854C71.4329 14.4948 71.4762 14.0738 71.4385 13.6763C71.3804 13.0654 71.0956 12.5503 70.5718 12.1805C69.9933 11.7722 69.3367 11.6196 68.6527 11.5967C67.7986 11.5681 66.9428 11.5898 66.0367 11.5898ZM30.0268 37.8628C30.0469 38.0994 29.9535 38.2703 29.7205 38.3362C29.5567 38.3825 29.5557 38.4905 29.5541 38.627C29.5504 38.9359 29.557 39.2489 29.5083 39.552C29.4612 39.8455 29.3502 40.1287 29.2458 40.4909C29.4747 40.3002 29.6805 40.167 29.8384 39.9909C30.5264 39.2237 31.0272 38.3514 31.2498 37.3367C31.3348 36.9495 31.4558 36.552 31.0907 36.2236C30.9626 36.1084 30.8552 35.9694 30.7226 35.8602C30.1948 35.4254 29.6049 35.1687 28.9817 35.2382C28.8396 35.7065 28.708 36.1275 28.5879 36.5518C28.5737 36.6023 28.6083 36.6812 28.6444 36.7287C28.8585 37.0108 29.0798 37.2874 29.3045 37.5734C29.6587 37.4142 29.8668 37.4783 30.0268 37.8628ZM29.4166 34.9765C29.5411 34.9851 29.6656 34.9937 29.719 34.9974C29.8482 34.8484 29.9319 34.7 30.0591 34.6271C30.123 34.5905 30.3374 34.668 30.3585 34.7339C30.4053 34.88 30.3731 35.0514 30.3731 35.1973C30.6867 35.4632 31.03 35.7541 31.3754 36.0468C31.3535 35.2833 31.1439 34.5582 30.8 33.8446C30.4755 33.1711 29.9792 32.9724 29.2918 33.0612C28.7071 33.1368 28.2005 33.3593 27.7998 33.8124C28.3069 34.0617 28.6304 34.4587 28.8101 34.9765C29.0059 34.9765 29.1867 34.9765 29.4166 34.9765ZM24.3562 33.3449C23.9652 33.8534 23.9401 34.4519 24.0331 35.0344C24.0882 35.3799 24.2414 35.7759 24.4849 36.0101C24.8644 36.3753 25.8876 36.4108 26.3425 36.0114C26.1658 35.7947 25.9158 35.6043 25.8335 35.358C25.729 35.0455 25.5483 34.8836 25.2711 34.7736C25.2167 34.752 25.1678 34.7165 25.1164 34.6874C25.1217 34.7076 25.1271 34.7277 25.1325 34.7478C25.0189 34.7892 24.9076 34.8479 24.7906 34.8634C24.7441 34.8696 24.6328 34.7662 24.6407 34.7364C24.6721 34.6175 24.7389 34.5079 24.7787 34.4243C24.6482 34.0733 24.5171 33.7206 24.3562 33.3449ZM26.8306 32.3941C26.6159 32.8187 26.4391 33.2482 26.6187 33.7074C26.9598 33.7074 27.2622 33.7074 27.5548 33.7074C27.7662 33.4866 27.9785 33.2648 28.1461 33.0898C28.0569 32.9255 27.9376 32.787 27.9204 32.6368C27.9128 32.5701 28.1073 32.4191 28.2169 32.4122C28.499 32.3942 28.5354 32.6262 28.5354 32.8728C28.997 32.7051 29.4399 32.6423 29.9429 32.8353C29.2088 32.1303 28.3648 31.8596 27.445 31.7745C27.4113 31.7714 27.3657 31.8061 27.3387 31.8352C27.1761 32.0104 27.0173 32.189 26.8306 32.3941ZM25.174 34.3038C25.3496 34.4677 25.5252 34.6315 25.6542 34.7519C25.8714 34.4631 26.0617 34.2112 26.2505 33.9583C26.2817 33.9164 26.3352 33.8649 26.329 33.8257C26.3016 33.6533 26.256 33.4837 26.217 33.3131C26.1997 33.3322 26.1823 33.3514 26.165 33.3705C26.0395 33.2999 25.8823 33.254 25.8002 33.1494C25.7496 33.0849 25.7729 32.8713 25.8344 32.8296C25.9578 32.7459 26.1302 32.7341 26.3091 32.6853C26.4588 32.4329 26.638 32.1305 26.8291 31.8082C26.0461 31.8659 25.3882 32.1605 24.851 32.7164C24.8097 32.7591 24.7922 32.8373 24.7876 32.9008C24.7515 33.3991 24.8242 33.8708 25.174 34.3038ZM27.4967 36.8339C27.5724 36.7782 27.6538 36.7287 27.7228 36.6657C27.9939 36.4179 28.2205 36.1424 28.2063 35.7467C28.1965 35.4735 27.968 35.2747 27.6912 35.2871C27.383 35.3008 27.4564 35.5451 27.4321 35.7249C27.4224 35.7974 27.4405 35.8737 27.4454 35.9409C27.6183 35.9906 27.886 35.8766 27.8415 36.1897C27.8083 36.4232 27.6245 36.3845 27.4587 36.3406C27.3531 36.5543 27.2504 36.7623 27.1258 37.0145C27.2665 36.9437 27.3639 36.8948 27.4967 36.8339ZM19.4302 37.9718C19.4334 37.9494 19.4366 37.927 19.4398 37.9046C19.4266 37.9198 19.4135 37.935 19.4302 37.9718ZM29.1499 40.4873C29.1592 40.506 29.1685 40.5247 29.1778 40.5434C29.1787 40.5181 29.1795 40.4928 29.1499 40.4873Z" fill="#ECF8FF"/>
<path d="M30.5687 0.0517389C31.3501 1.06082 32.1134 2.06537 32.8573 3.08409C32.9633 3.22918 33.0092 3.44044 33.0226 3.62544C33.0481 3.9771 33.0173 4.33261 33.037 4.68502C33.0437 4.80577 33.1024 4.95096 33.187 5.03564C33.7341 5.58341 34.2905 6.1223 34.8547 6.65256C34.9853 6.77527 35.0156 6.90363 34.9993 7.0643C34.9805 7.25021 34.961 7.43621 34.9494 7.62265C34.9288 7.95532 34.9167 8.28852 34.8958 8.62118C34.8773 8.91637 34.9387 9.18593 35.0606 9.46047C35.1678 9.70184 35.2389 9.97616 35.2511 10.2394C35.2899 11.08 35.3601 11.9279 35.2874 12.7616C35.2405 13.2993 34.9934 13.829 34.7842 14.3412C34.3695 15.3565 33.9235 16.3593 33.4816 17.3634C33.1073 18.2138 32.7184 19.0577 32.3399 19.9063C31.8721 20.9549 31.4069 22.0046 30.9442 23.0554C30.845 23.2807 30.7018 23.3102 30.3777 23.286C29.8022 23.243 29.2231 23.2281 28.646 23.2355C28.2032 23.2413 27.7542 23.262 27.3203 23.3426C26.5328 23.4889 25.7401 23.6372 24.9757 23.8702C23.6377 24.278 22.4077 24.9312 21.3172 25.8028C20.3189 26.6007 19.4806 27.5531 18.8378 28.6717C18.2159 29.7538 17.7967 30.9079 17.5912 32.1302C17.4511 32.9635 17.4359 33.8084 17.5169 34.659C17.6292 35.8396 17.9511 36.95 18.5208 37.9827C18.7603 38.417 19.0547 38.8289 19.3741 39.2092C19.5901 39.4664 19.4902 39.7093 19.4337 39.9411C19.1304 41.1865 18.6193 42.3336 17.7917 43.3327C17.0899 44.1797 16.2392 44.8305 15.2678 45.3301C14.3745 45.7896 13.4231 46.1139 12.4326 46.2369C11.5332 46.3486 10.6141 46.3831 9.70843 46.3438C8.5898 46.2952 7.49738 46.0322 6.4483 45.6309C5.5357 45.2818 4.66132 44.8421 3.91531 44.2099C3.59397 43.9375 3.36978 43.5427 3.12971 43.1847C2.21973 41.8275 1.54743 40.3546 1.06381 38.7987C0.720648 37.6946 0.437194 36.5738 0.310425 35.4201C0.236225 34.7448 0.164387 34.0693 0.0718501 33.3832C0.0522137 32.3022 0.0522137 31.2318 0.0718989 30.1264C0.16554 29.278 0.188554 28.456 0.325747 27.6534C0.517238 26.5331 0.771894 25.422 1.03915 24.3165C1.51864 22.3332 2.27094 20.4465 3.15035 18.6089C3.99202 16.8501 4.97204 15.1699 6.11878 13.5931C6.73694 12.7431 7.40283 11.9259 8.07785 11.1195C8.58814 10.5098 9.12298 9.91623 9.69074 9.36006C10.3189 8.74471 10.9797 8.15931 11.6581 7.59908C12.3765 7.00566 13.1158 6.43412 13.8752 5.89392C15.4309 4.78732 17.0771 3.82915 18.8253 3.05662C19.7752 2.63686 20.7318 2.22672 21.7067 1.87015C23.0864 1.36551 24.4924 0.935148 25.9413 0.668881C26.9397 0.48541 27.9423 0.325073 28.9431 0.15461C29.1473 0.11983 29.3516 0.0860043 29.5559 0.0517387C29.8854 0.0517388 30.2149 0.0517388 30.5687 0.0517389Z" fill="#3B80AD"/>
<path d="M29.5314 0.0517387C29.3514 0.0860043 29.1471 0.11983 28.9429 0.15461C27.9421 0.325073 26.9395 0.48541 25.9411 0.668881C24.4922 0.935147 23.0862 1.36551 21.7065 1.87015C20.7316 2.22672 19.7749 2.63685 18.825 3.05662C17.0769 3.82915 15.4307 4.78732 13.875 5.89392C13.1156 6.43412 12.3763 7.00566 11.6578 7.59908C10.9795 8.15931 10.3187 8.74471 9.69053 9.36006C9.12277 9.91623 8.58793 10.5098 8.07763 11.1195C7.40261 11.9259 6.73672 12.7431 6.11857 13.5931C4.97182 15.1699 3.99181 16.8501 3.15014 18.6089C2.27072 20.4465 1.51842 22.3332 1.03894 24.3165C0.771682 25.422 0.517026 26.5331 0.325535 27.6534C0.188342 28.456 0.165328 29.278 0.0716871 30.1021C0.052002 20.0963 0.052002 10.0797 0.052002 0.0517388C9.87037 0.0517388 19.6887 0.0517388 29.5314 0.0517387Z" fill="#ECF8FF"/>
<path d="M21.4912 55.0517C21.2379 55.0173 21.0092 54.9548 20.7801 54.9533C19.8494 54.9476 18.9517 54.7186 18.0577 54.517C17.2451 54.3337 16.4562 54.0351 15.669 53.7534C15.0903 53.5463 14.5312 53.2845 13.9634 53.0471C13.9702 53.02 13.9771 52.9929 13.984 52.9658C14.5231 53.0047 15.0617 53.0607 15.6015 53.077C16.0029 53.0891 16.4137 53.094 16.8062 53.0238C17.4735 52.9045 18.1423 52.7631 18.7873 52.5584C19.5701 52.31 20.2843 51.8968 20.8924 51.3443C21.4962 50.7959 22.054 50.197 22.6425 49.6097C22.8099 49.8569 23.0482 50.0672 23.4398 49.8271C23.6844 49.6771 23.6793 49.4506 23.6325 49.2373C23.5726 48.9646 23.3395 48.8844 23.0377 48.887C24.39 46.5068 24.3745 44.1558 22.9765 41.7939C23.3668 41.9142 23.7322 42.0608 24.1118 42.1364C24.8364 42.2808 25.5677 42.414 26.312 42.2725C26.7377 42.1916 27.0642 42.3756 27.3647 42.6458C28.1995 43.3963 28.8443 44.2768 29.1506 45.3654C29.2772 45.8156 29.3315 46.2876 29.398 46.7527C29.561 47.8931 29.319 48.9917 28.9759 50.0635C28.69 50.9567 28.2129 51.756 27.603 52.4801C26.7606 53.4801 25.7519 54.2676 24.6117 54.8927C24.4579 54.9771 24.2562 54.9744 24.068 55.0319C23.2115 55.0517 22.3635 55.0517 21.4912 55.0517Z" fill="#1B3E6E"/>
<path d="M5.08534 45.6307C5.82947 46.0138 6.57383 46.3912 7.38385 46.6293C8.1205 46.8458 8.85829 47.0455 9.62832 47.0813C10.2718 47.1112 10.9221 47.1806 11.5593 47.1222C12.86 47.0028 14.1355 46.7423 15.2942 46.0939C15.3604 46.2377 15.3927 46.3973 15.4891 46.4918C15.5868 46.5875 15.744 46.6557 15.882 46.6702C16.1197 46.6952 16.2875 46.5558 16.3696 46.3343C16.4643 46.0788 16.3688 45.8624 16.0853 45.6575C18.2 44.2705 19.6704 42.4465 20.0561 39.92C20.5213 40.266 21.0258 40.6428 21.5326 41.0164C21.6132 41.0758 21.699 41.1351 21.7916 41.1702C22.487 41.4333 22.7099 42.0781 22.952 42.6717C23.1841 43.2406 23.3777 43.8418 23.4681 44.4467C23.5553 45.0294 23.5073 45.6357 23.4851 46.2304C23.4581 46.9546 23.2135 47.6325 22.888 48.2655C22.4046 49.2057 21.7427 50.012 20.9322 50.7062C19.8605 51.6241 18.6132 52.1428 17.2494 52.4068C16.3474 52.5813 15.4286 52.61 14.5133 52.561C13.9313 52.5299 13.34 52.4815 12.7777 52.3415C12.4175 52.2519 12.081 52.0108 11.7714 51.7862C10.8232 51.0982 9.87136 50.4121 8.96305 49.6737C8.2608 49.1028 7.59385 48.4815 6.96258 47.8329C6.29856 47.1506 5.69561 46.4091 5.06543 45.6716C5.0717 45.6433 5.07852 45.637 5.08534 45.6307Z" fill="#1C3966"/>
<path d="M33.9776 42.4672C34.6573 43.2563 35.1164 44.1477 35.408 45.1199C35.6665 45.9816 35.8178 46.8661 35.7763 47.7714C35.7317 48.7441 35.5018 49.6727 35.1737 50.5925C34.9655 51.176 34.502 51.433 34.0513 51.7147C33.2978 52.1855 32.5372 52.6553 31.7388 53.0418C30.4032 53.6884 29.0046 54.1791 27.5465 54.4839C26.8893 54.6213 26.2319 54.7583 25.5738 54.8912C25.4992 54.9062 25.4189 54.8932 25.252 54.8932C27.9325 53.6458 29.2444 51.4797 29.7658 48.7602C29.912 48.8068 30.0518 48.8903 30.1868 48.8832C30.3189 48.8762 30.4737 48.8051 30.5697 48.712C30.7575 48.5297 30.7392 48.2914 30.6274 48.0734C30.521 47.8658 30.2557 47.8125 29.8984 47.8972C30.05 45.5504 29.2436 43.6304 27.3382 42.1848C27.6618 42.0755 27.9978 42.0039 28.2928 41.8528C28.768 41.6094 29.2227 41.3236 29.6726 41.0349C29.857 40.9167 29.9891 40.7135 30.178 40.6075C30.2956 40.5415 30.4805 40.5564 30.6258 40.584C31.9463 40.8352 33.0633 41.4542 33.9776 42.4672Z" fill="#183F6E"/>
<path d="M35.9196 45.6031C35.7984 45.1996 35.6883 44.8151 35.5732 44.4134C35.8649 44.408 36.1222 44.3204 36.1853 43.9994C36.2281 43.7811 36.1724 43.5683 35.9662 43.4382C35.7337 43.2916 35.5013 43.3388 35.1954 43.59C34.2106 41.7052 32.6726 40.5774 30.5466 40.2412C31.0821 39.5736 31.5349 38.8664 31.7378 38.042C31.8213 37.7026 32.0298 37.5709 32.3054 37.4615C33.1856 37.1121 34.1098 37.012 35.0361 37.1093C36.2302 37.2347 37.301 37.7007 38.2287 38.4793C38.9399 39.0763 39.5693 39.7408 40.0731 40.525C40.4711 41.1443 40.7281 41.8213 40.9546 42.5135C40.9711 42.564 40.9553 42.6326 40.936 42.6861C40.5418 43.7819 40.1098 44.8634 39.476 45.8458C38.9122 46.7197 38.3585 47.6078 37.7086 48.4163C37.1279 49.1388 36.4221 49.7613 35.77 50.4264C35.7554 50.4413 35.7227 50.4385 35.6858 50.4468C35.8142 49.9914 35.974 49.552 36.0575 49.0987C36.1775 48.4481 36.2618 47.7901 36.146 47.1231C36.0596 46.6253 36.0015 46.1226 35.9196 45.6031Z" fill="#0A4876"/>
<path d="M39.4991 39.026C39.0842 38.6589 38.6822 38.305 38.2801 37.9512C38.6753 37.6851 38.7717 37.4971 38.6614 37.2074C38.5737 36.9772 38.3591 36.8599 38.0827 36.891C37.8231 36.9203 37.6819 37.1073 37.6157 37.5341C35.7781 36.4693 33.8935 36.3206 31.9484 37.2603C32.122 36.3282 32.0969 35.4263 31.793 34.5579C31.683 34.2438 31.8369 34.0686 31.9815 33.8846C32.7049 32.9644 33.6186 32.3078 34.7507 31.9733C35.5407 31.7399 36.3388 31.6773 37.1653 31.7582C38.2724 31.8666 39.3089 32.1649 40.2792 32.6999C40.4846 32.8131 40.6998 32.9213 40.8735 33.0738C40.9751 33.163 41.0276 33.3297 41.0604 33.4711C41.2251 34.1813 41.3949 34.8912 41.5244 35.6081C41.5996 36.0242 41.6102 36.4528 41.635 36.8767C41.662 37.3379 41.6903 37.8003 41.6854 38.2618C41.6737 39.3727 41.5863 40.4762 41.2772 41.5514C41.2657 41.5914 41.271 41.6363 41.2451 41.6917C40.8619 40.6777 40.2278 39.8314 39.4991 39.026Z" fill="#0C4D7D"/>
<path d="M38.4082 28.5207C38.8687 29.1552 39.3653 29.7481 39.7488 30.4065C40.1346 31.0687 40.4081 31.796 40.7298 32.4952C40.742 32.5216 40.7443 32.5525 40.766 32.6428C39.4939 31.6471 38.0572 31.2989 36.5191 31.1884C36.4633 30.9513 36.6161 30.6153 36.2726 30.4855C36.1433 30.4367 35.9818 30.4108 35.8507 30.4414C35.5283 30.5166 35.4183 30.8385 35.5618 31.2302C33.7853 31.4607 32.4614 32.3554 31.5961 33.9309C31.2838 33.2629 30.8333 32.7042 30.2907 32.2101C30.0323 31.9749 30.0484 31.6366 30.0821 31.3273C30.1229 30.9529 30.1855 30.5761 30.2877 30.2141C30.4722 29.5611 30.7955 28.9775 31.2384 28.4555C32.1582 27.3716 33.383 26.8367 34.7205 26.5049C34.998 26.4361 35.292 26.4363 35.5747 26.385C36.0063 26.3066 36.3021 26.5373 36.5891 26.7989C37.153 27.3129 37.7173 27.8266 38.2789 28.3432C38.3272 28.3876 38.3565 28.4524 38.4082 28.5207Z" fill="#0C5086"/>
<path d="M26.6877 26.7866C26.9094 26.1223 27.2484 25.5445 27.6528 25.0024C27.7792 24.8331 27.9186 24.6734 28.046 24.5047C28.3568 24.0929 28.7624 23.9274 29.2753 24.0059C29.6687 24.0661 30.0691 24.0876 30.4583 24.1663C31.1408 24.3045 31.8258 24.4433 32.494 24.6364C33.4805 24.9214 34.4015 25.3672 35.2251 25.8534C34.6293 26.0438 33.977 26.2 33.3699 26.4608C32.7565 26.7243 32.1878 27.0914 31.58 27.4238C31.5374 27.0341 31.2236 26.921 30.8555 27.0273C30.7059 27.0705 30.5208 27.2927 30.5089 27.4456C30.4851 27.7501 30.7107 27.949 30.994 28.0609C29.9167 29.2301 29.5943 30.7546 29.7578 31.7915C29.3653 31.623 28.9876 31.4269 28.588 31.2992C28.2063 31.1772 27.801 31.1296 27.4079 31.0413C27.3314 31.0241 27.2355 30.9886 27.1957 30.9298C26.7543 30.2769 26.5102 29.5605 26.4355 28.7695C26.3713 28.0888 26.4868 27.4457 26.6877 26.7866Z" fill="#125D95"/>
<path d="M24.857 31.7812C24.7178 31.8961 24.6017 32.0111 24.4683 32.1005C24.4209 32.1322 24.3183 32.126 24.2635 32.0961C23.1296 31.4768 22.5174 30.4919 22.2369 29.2571C22.1186 28.7362 22.0639 28.2167 22.0919 27.6885C22.1229 27.1054 22.2483 26.5388 22.5008 26.01C22.5517 25.9033 22.6857 25.8275 22.7947 25.7582C23.5791 25.2591 24.4174 24.8715 25.2992 24.5781C26.1342 24.3002 26.9902 24.1229 27.8689 24.0598C27.9017 24.0575 27.935 24.0629 27.9247 24.0623C27.6109 24.4381 27.2696 24.8192 26.9601 25.2245C26.5459 25.7668 26.3105 26.4017 26.1501 27.0538C26.0897 27.2994 25.9884 27.2962 25.8139 27.2638C25.5658 27.2179 25.3617 27.3228 25.2545 27.53C25.1484 27.735 25.1974 27.9326 25.3287 28.0745C25.4801 28.238 25.6739 28.4 25.9656 28.2149C26.0201 29.2482 26.283 30.1913 26.8071 31.0806C26.0916 31.1562 25.4636 31.4131 24.857 31.7812Z" fill="#1F608F"/>
<path d="M21.4354 34.4978C19.9475 33.8289 19.1528 32.6594 18.8119 31.1217C18.7285 30.7455 18.8367 30.4427 18.9765 30.1264C19.3919 29.1867 19.9096 28.3107 20.6264 27.5654C21.0178 27.1584 21.4241 26.7657 21.8626 26.3278C21.7747 26.8657 21.6735 27.3176 21.636 27.7746C21.6105 28.0841 21.6558 28.4039 21.7035 28.7139C21.7609 29.0866 21.8608 29.4527 21.926 29.8245C21.936 29.8818 21.8746 29.9755 21.8194 30.0162C21.6102 30.1707 21.5078 30.39 21.584 30.5648C21.6726 30.7678 21.8968 30.8683 22.1476 30.8356C22.2173 30.8265 22.3326 30.8407 22.3604 30.8854C22.7712 31.5446 23.3651 31.9953 24.0224 32.38C24.0614 32.4028 24.0959 32.5218 24.0754 32.5443C23.5187 33.1555 23.3762 33.9103 23.3187 34.7086C22.6823 34.7326 22.054 34.7577 21.4354 34.4978Z" fill="#20669C"/>
<path d="M23.2594 37.9133C22.6065 38.2027 21.9332 38.2212 21.2605 38.1792C20.487 38.131 19.7438 37.905 19.1736 37.3848C18.907 37.1417 18.7757 36.7057 18.6789 36.3324C18.5 35.6425 18.358 34.9386 18.2667 34.232C18.2127 33.8139 18.2733 33.3786 18.3044 32.9526C18.335 32.5329 18.3934 32.1153 18.4645 31.6947C18.6999 32.8564 19.3834 33.6972 20.3255 34.3837C20.2892 34.4355 20.2516 34.4873 20.2159 34.5404C20.0438 34.7968 20.1004 35.0092 20.3863 35.1811C20.5829 35.2994 20.8599 35.2166 20.9634 34.9788C21.0297 34.8263 21.0788 34.8185 21.242 34.8571C21.6674 34.9577 22.1027 35.0242 22.5375 35.0743C22.8026 35.1049 23.0742 35.08 23.3568 35.08C23.5117 35.8322 23.8045 36.5112 24.4864 37.0596C24.0631 37.3552 23.6703 37.6296 23.2594 37.9133Z" fill="#22689B"/>
<path d="M21.4148 40.047C20.643 39.4694 19.9772 38.814 19.5027 37.9692C19.6887 38.0751 19.8714 38.1871 20.0612 38.2856C20.7656 38.6513 21.512 38.7274 22.2891 38.6086C22.3478 38.5997 22.4468 38.658 22.4801 38.7132C22.5978 38.9088 22.767 39.0018 22.9791 38.9474C23.1855 38.8944 23.3141 38.7576 23.2892 38.5108C23.282 38.4397 23.3413 38.3351 23.4026 38.2883C23.8405 37.9547 24.2867 37.632 24.7556 37.2872C25.0077 37.3976 25.3027 37.5662 25.6201 37.6547C25.9429 37.7446 26.2878 37.7555 26.643 37.8038C26.707 38.488 26.5008 39.0991 26.0916 39.662C25.6767 40.2327 25.1601 40.6642 24.4875 40.8872C24.1772 40.9901 23.8565 41.078 23.5336 41.119C23.3831 41.1382 23.2032 41.0536 23.0592 40.9749C22.5122 40.6759 21.9745 40.36 21.4148 40.047Z" fill="#2973A9"/>
<path d="M26.5895 41.5475C26.2274 41.5475 25.8876 41.5684 25.5513 41.5427C25.039 41.5036 24.5291 41.4323 24.0078 41.3205C25.0095 41.2172 25.7679 40.73 26.3641 39.9632C26.7346 40.1088 26.9634 40.0681 27.0842 39.8352C27.2048 39.6026 27.1118 39.3721 26.8576 39.2015C26.894 38.7497 26.9234 38.3212 26.9679 37.8943C26.9758 37.819 27.0331 37.7024 27.0908 37.686C27.5883 37.5438 28.0057 37.2837 28.3406 36.8786C28.7973 37.1975 29.0829 37.6287 29.1818 38.1473C29.3017 38.776 29.3332 39.4216 29.0316 40.0178C28.8616 40.3538 28.6922 40.7264 28.4188 40.9633C28.1611 41.1865 27.7736 41.2729 27.4313 41.3828C27.1682 41.4673 26.8867 41.4947 26.5895 41.5475Z" fill="#31719D"/>
<path d="M30.0242 37.842C29.8669 37.4783 29.6588 37.4142 29.3046 37.5734C29.0798 37.2874 28.8586 37.0108 28.6445 36.7287C28.6084 36.6812 28.5737 36.6023 28.588 36.5518C28.708 36.1275 28.8396 35.7065 28.9818 35.2382C29.605 35.1687 30.1948 35.4254 30.7227 35.8602C30.8552 35.9694 30.9627 36.1084 31.0908 36.2236C31.4559 36.552 31.3348 36.9495 31.2499 37.3367C31.0273 38.3514 30.5265 39.2237 29.8384 39.9909C29.6806 40.167 29.4748 40.3002 29.2458 40.4909C29.3502 40.1287 29.4612 39.8455 29.5084 39.552C29.557 39.2489 29.5505 38.9359 29.5542 38.627C29.5558 38.4905 29.5567 38.3825 29.7206 38.3362C29.9536 38.2703 30.047 38.0994 30.0242 37.842Z" fill="#3780AC"/>
<path d="M29.3921 34.9765C29.1867 34.9765 29.0059 34.9765 28.8101 34.9765C28.6304 34.4587 28.3069 34.0617 27.7998 33.8124C28.2005 33.3593 28.7071 33.1368 29.2918 33.0612C29.9792 32.9724 30.4755 33.1711 30.8 33.8446C31.1439 34.5582 31.3535 35.2833 31.3754 36.0468C31.03 35.7541 30.6867 35.4632 30.3731 35.1974C30.3731 35.0514 30.4053 34.88 30.3585 34.7339C30.3374 34.668 30.123 34.5905 30.0591 34.6271C29.9319 34.7 29.8482 34.8484 29.719 34.9974C29.6656 34.9937 29.5411 34.9851 29.3921 34.9765Z" fill="#548EB9"/>
<path d="M24.3712 33.3564C24.5172 33.7206 24.6484 34.0733 24.7789 34.4243C24.7391 34.5079 24.6723 34.6175 24.6409 34.7364C24.633 34.7662 24.7443 34.8696 24.7907 34.8634C24.9078 34.8479 25.0191 34.7892 25.1327 34.7478C25.1273 34.7277 25.1219 34.7076 25.1166 34.6874C25.168 34.7165 25.2169 34.752 25.2713 34.7736C25.5485 34.8836 25.7292 35.0455 25.8337 35.358C25.916 35.6043 26.166 35.7947 26.3427 36.0114C25.8878 36.4108 24.8646 36.3753 24.4851 36.0101C24.2416 35.7759 24.0884 35.3799 24.0332 35.0344C23.9403 34.4519 23.9653 33.8534 24.3712 33.3564Z" fill="#5EB1D4"/>
<path d="M26.8439 32.3803C27.0173 32.189 27.1761 32.0104 27.3387 31.8352C27.3657 31.8061 27.4113 31.7714 27.445 31.7745C28.3648 31.8596 29.2088 32.1303 29.9429 32.8353C29.44 32.6423 28.997 32.7051 28.5354 32.8728C28.5354 32.6262 28.499 32.3942 28.2169 32.4122C28.1073 32.4192 27.9128 32.5701 27.9204 32.6368C27.9377 32.787 28.0569 32.9255 28.1461 33.0898C27.9785 33.2648 27.7662 33.4866 27.5548 33.7074C27.2623 33.7074 26.9598 33.7074 26.6187 33.7074C26.4391 33.2482 26.6159 32.8187 26.8439 32.3803Z" fill="#4492C5"/>
<path d="M25.1608 34.2901C24.8243 33.8708 24.7516 33.3991 24.7877 32.9008C24.7923 32.8373 24.8098 32.7591 24.8511 32.7164C25.3883 32.1605 26.0462 31.8659 26.8292 31.8082C26.6381 32.1305 26.4589 32.4329 26.3092 32.6853C26.1303 32.7341 25.9579 32.7459 25.8345 32.8296C25.773 32.8713 25.7497 33.0849 25.8003 33.1494C25.8824 33.254 26.0396 33.2999 26.1651 33.3705C26.1824 33.3514 26.1998 33.3322 26.2171 33.3131C26.2561 33.4837 26.3017 33.6533 26.3291 33.8257C26.3353 33.8649 26.2818 33.9164 26.2506 33.9583C26.0618 34.2112 25.8715 34.4631 25.6543 34.7519C25.5253 34.6315 25.3497 34.4677 25.1608 34.2901Z" fill="#56A7CB"/>
<path d="M24.9445 36.4727C25.2401 36.4757 25.5358 36.476 25.8312 36.4845C25.8733 36.4858 25.9374 36.5172 25.9518 36.5513C26.0218 36.7174 26.1374 36.7932 26.2951 36.6952C26.4708 36.5861 26.4053 36.4337 26.3133 36.2945C26.425 36.135 26.5375 36.0216 26.7688 36.0519C26.9077 36.0701 27.0607 35.9811 27.2673 35.9236C27.2541 36.0606 27.2588 36.1894 27.2274 36.3087C26.9776 37.2588 26.822 37.1418 26.0383 37.0799C25.6253 37.0472 25.2462 36.8304 24.9341 36.5103C24.9334 36.4867 24.9445 36.4727 24.9445 36.4727Z" fill="#75C0E0"/>
<path d="M27.4791 36.8398C27.3641 36.8948 27.2667 36.9437 27.126 37.0145C27.2506 36.7623 27.3533 36.5543 27.4589 36.3406C27.6247 36.3845 27.8085 36.4232 27.8417 36.1897C27.8863 35.8766 27.6185 35.9906 27.4456 35.9409C27.4407 35.8737 27.4226 35.7974 27.4324 35.7249C27.4566 35.5451 27.3832 35.3008 27.6914 35.2871C27.9682 35.2747 28.1967 35.4735 28.2065 35.7467C28.2207 36.1424 27.9941 36.4179 27.723 36.6657C27.654 36.7287 27.5726 36.7782 27.4791 36.8398Z" fill="#7FCBE8"/>
<path d="M24.9287 36.4951C24.9046 36.483 24.8859 36.4636 24.8672 36.4441C24.8885 36.4455 24.9098 36.4469 24.9382 36.4608C24.9454 36.4734 24.9341 36.4877 24.9287 36.4951Z" fill="#75C0E0"/>
<path d="M19.4154 37.9609C19.4137 37.935 19.4268 37.9198 19.4399 37.9046C19.4367 37.927 19.4335 37.9494 19.4154 37.9609Z" fill="#2973A9"/>
<path d="M29.1652 40.4774C29.1796 40.4928 29.1788 40.5181 29.1779 40.5434C29.1686 40.5247 29.1593 40.506 29.1652 40.4774Z" fill="#3780AC"/>
<path d="M5.05375 45.658C5.02945 45.6417 5.01631 45.617 5.00317 45.5924C5.0269 45.5956 5.05063 45.5989 5.07986 45.6164C5.07855 45.637 5.07173 45.6433 5.05375 45.658Z" fill="#1C3966"/>
<path d="M86.3504 31.8587C87.3988 32.6015 88.0021 33.603 88.2541 34.8327C88.4542 35.8097 88.4016 36.7773 88.0693 37.7074C87.5363 39.1996 86.5082 40.2147 84.9677 40.6633C84.239 40.8755 83.4983 40.9123 82.739 40.7801C81.7151 40.6017 80.8439 40.1599 80.1296 39.4151C79.4793 38.737 79.0886 37.9147 78.9284 36.9997C78.8395 36.4917 78.7944 35.9631 78.827 35.4499C78.8879 34.4903 79.2088 33.6047 79.7996 32.832C80.5251 31.8833 81.4806 31.2702 82.6509 31.0618C83.1788 30.9677 83.738 31.0265 84.2817 31.0478C84.9872 31.0755 85.6061 31.3756 86.202 31.7257C86.2527 31.7555 86.2909 31.8064 86.3504 31.8587Z" fill="#ECF8FF"/>
<path d="M39.6669 21.2135C39.314 21.2135 38.987 21.2135 38.645 21.2135C38.645 18.112 38.645 15.0228 38.645 11.9126C38.7119 11.9088 38.786 11.9009 38.8601 11.9008C39.6287 11.8999 40.3979 11.8815 41.1658 11.9049C42.2069 11.9366 43.2177 12.1046 44.1534 12.6128C44.7876 12.9572 45.2693 13.4338 45.6396 14.0466C46.0793 14.7741 46.2367 15.5641 46.2554 16.4003C46.2744 17.2466 46.175 18.0664 45.7845 18.8289C45.2048 19.9611 44.2418 20.604 43.0472 20.9569C41.9457 21.2822 40.817 21.2079 39.6669 21.2135Z" fill="#ECF8FF"/>
<path d="M91.5706 35.0272C91.5706 33.7623 91.5706 32.5231 91.5706 31.2512C91.7567 31.2512 91.9343 31.2512 92.112 31.2512C92.7764 31.2512 93.4411 31.2415 94.1053 31.2541C94.698 31.2652 95.276 31.3641 95.7999 31.6636C96.3897 32.0008 96.7332 32.496 96.756 33.1897C96.771 33.6476 96.7549 34.092 96.5024 34.5064C96.2623 34.9003 95.9322 35.1855 95.5108 35.3275C95.1179 35.4599 94.6999 35.568 94.2886 35.5856C93.394 35.6237 92.4967 35.5973 91.5706 35.5973C91.5706 35.4083 91.5706 35.2306 91.5706 35.0272Z" fill="#ECF8FF"/>
<path d="M61.2398 35.5456C60.849 35.5629 60.4821 35.5902 60.1149 35.5951C59.4953 35.6034 58.8755 35.5974 58.2429 35.5974C58.2429 34.1469 58.2429 32.7131 58.2429 31.2512C58.3783 31.2512 58.5135 31.2512 58.6487 31.2512C59.3824 31.2512 60.1164 31.2385 60.8497 31.2551C61.4599 31.2689 62.0618 31.3857 62.5751 31.7243C63.0713 32.0516 63.3944 32.5176 63.4165 33.1461C63.4338 33.6402 63.4352 34.1358 63.1287 34.5535C62.9713 34.7679 62.7752 34.9692 62.5578 35.1211C62.1754 35.3883 61.7301 35.5104 61.2398 35.5456Z" fill="#ECF8FF"/>
<path d="M52.8249 33.5997C53.0383 34.127 53.2368 34.6383 53.4455 35.1455C53.803 36.014 54.167 36.8799 54.5336 37.7599C52.7057 37.7599 50.8893 37.7599 49.0347 37.7599C49.9695 35.5697 50.8981 33.394 51.8222 31.2287C52.1506 32.0075 52.4826 32.7947 52.8249 33.5997Z" fill="#ECF8FF"/>
<path d="M66.7338 11.9003C67.4157 11.9003 68.0729 11.8751 68.7274 11.9066C69.5746 11.9474 70.3404 12.2003 70.8256 12.963C71.0944 13.3855 71.1458 13.8548 71.0971 14.3549C71.0455 14.8842 70.8287 15.322 70.4719 15.6911C70.1297 16.0451 69.6845 16.2695 69.2028 16.2866C68.1484 16.324 67.0918 16.2982 66.0217 16.2982C66.0217 14.8674 66.0217 13.399 66.0217 11.9003C66.2485 11.9003 66.4782 11.9003 66.7338 11.9003Z" fill="#ECF8FF"/>
</g>
<path d="M61.5247 47.2088H58.4309L57.5344 44.4051H53.052L52.1643 47.2088H49.0881L53.676 34.6053H57.0422L61.5247 47.2088ZM56.884 42.2254L55.5305 37.989C55.4309 37.6726 55.3606 37.2947 55.3196 36.8553H55.2493C55.22 37.2244 55.1467 37.5906 55.0295 37.9539L53.6584 42.2254H56.884ZM73.6711 47.2088H70.4104L68.4504 43.9656C68.304 43.7195 68.1633 43.4998 68.0286 43.3064C67.8938 43.1131 67.7561 42.949 67.6155 42.8142C67.4807 42.6736 67.3372 42.5681 67.1848 42.4978C67.0383 42.4217 66.8772 42.3836 66.7014 42.3836H65.9368V47.2088H63.0979V34.6053H67.5979C70.6565 34.6053 72.1858 35.7478 72.1858 38.033C72.1858 38.4724 72.1184 38.8797 71.9836 39.2547C71.8489 39.6238 71.6584 39.9578 71.4124 40.2566C71.1663 40.5555 70.8674 40.8133 70.5159 41.0301C70.1702 41.2469 69.7834 41.4168 69.3557 41.5398V41.575C69.5432 41.6336 69.7249 41.7303 69.9006 41.865C70.0764 41.9939 70.2463 42.1463 70.4104 42.3221C70.5745 42.4978 70.7297 42.6883 70.8762 42.8933C71.0286 43.0926 71.1663 43.2888 71.2893 43.4822L73.6711 47.2088ZM65.9368 36.7322V40.239H67.1672C67.7766 40.239 68.2659 40.0633 68.635 39.7117C69.01 39.3543 69.1975 38.9119 69.1975 38.3846C69.1975 37.283 68.5383 36.7322 67.22 36.7322H65.9368ZM89.219 47.2088H86.4153V39.6678C86.4153 38.8533 86.4504 37.9539 86.5208 36.9695H86.4504C86.304 37.743 86.1721 38.2996 86.0549 38.6394L83.1018 47.2088H80.7815L77.7756 38.7273C77.6936 38.4988 77.5618 37.9129 77.3801 36.9695H77.301C77.3772 38.2117 77.4153 39.3015 77.4153 40.239V47.2088H74.8577V34.6053H79.0149L81.5901 42.076C81.7952 42.6736 81.9446 43.2742 82.0383 43.8777H82.0911C82.2493 43.1805 82.4163 42.574 82.592 42.0584L85.1672 34.6053H89.219V47.2088ZM97.4104 47.4285C95.6057 47.4285 94.135 46.8426 92.9983 45.6707C91.8616 44.493 91.2932 42.9607 91.2932 41.074C91.2932 39.0818 91.8704 37.4705 93.0247 36.24C94.179 35.0096 95.7083 34.3943 97.6125 34.3943C99.4114 34.3943 100.865 34.9832 101.972 36.1609C103.085 37.3387 103.642 38.8914 103.642 40.8191C103.642 42.7996 103.065 44.3963 101.91 45.6092C100.762 46.8221 99.262 47.4285 97.4104 47.4285ZM97.5334 36.8377C96.5374 36.8377 95.7463 37.2127 95.1604 37.9627C94.5745 38.7068 94.2815 39.6941 94.2815 40.9246C94.2815 42.1726 94.5745 43.1599 95.1604 43.8865C95.7463 44.6131 96.5139 44.9763 97.4631 44.9763C98.4417 44.9763 99.218 44.6248 99.7922 43.9217C100.366 43.2127 100.654 42.2312 100.654 40.9773C100.654 39.6707 100.375 38.6541 99.8186 37.9275C99.262 37.201 98.5002 36.8377 97.5334 36.8377ZM116.316 47.2088H113.055L111.095 43.9656C110.948 43.7195 110.808 43.4998 110.673 43.3064C110.538 43.1131 110.401 42.949 110.26 42.8142C110.125 42.6736 109.982 42.5681 109.829 42.4978C109.683 42.4217 109.522 42.3836 109.346 42.3836H108.581V47.2088H105.742V34.6053H110.242C113.301 34.6053 114.83 35.7478 114.83 38.033C114.83 38.4724 114.763 38.8797 114.628 39.2547C114.493 39.6238 114.303 39.9578 114.057 40.2566C113.811 40.5555 113.512 40.8133 113.16 41.0301C112.815 41.2469 112.428 41.4168 112 41.5398V41.575C112.188 41.6336 112.369 41.7303 112.545 41.865C112.721 41.9939 112.891 42.1463 113.055 42.3221C113.219 42.4978 113.374 42.6883 113.521 42.8933C113.673 43.0926 113.811 43.2888 113.934 43.4822L116.316 47.2088ZM108.581 36.7322V40.239H109.812C110.421 40.239 110.91 40.0633 111.28 39.7117C111.655 39.3543 111.842 38.9119 111.842 38.3846C111.842 37.283 111.183 36.7322 109.865 36.7322H108.581Z" fill="black"/>
<path d="M50.4417 23V10.3965H54.9065C59.3831 10.3965 61.6213 12.4443 61.6213 16.54C61.6213 18.5029 61.009 20.0703 59.7844 21.2422C58.5657 22.4141 56.9397 23 54.9065 23H50.4417ZM53.2805 12.708V20.6973H54.6868C55.9172 20.6973 56.8811 20.3281 57.5784 19.5898C58.2815 18.8516 58.6331 17.8467 58.6331 16.5752C58.6331 15.374 58.2844 14.4307 57.5872 13.7451C56.8958 13.0537 55.9231 12.708 54.6692 12.708H53.2805ZM71.2717 23H63.7131V10.3965H70.9817V12.708H66.552V15.5117H70.6741V17.8145H66.552V20.6973H71.2717V23ZM80.8518 23H73.2932V10.3965H80.5618V12.708H76.1321V15.5117H80.2542V17.8145H76.1321V20.6973H80.8518V23ZM85.7122 18.6582V23H82.8733V10.3965H87.3206C90.4963 10.3965 92.0842 11.7354 92.0842 14.4131C92.0842 15.6787 91.6272 16.7041 90.7131 17.4893C89.8049 18.2686 88.5891 18.6582 87.0657 18.6582H85.7122ZM85.7122 12.5762V16.5049H86.8284C88.3401 16.5049 89.0959 15.8428 89.0959 14.5186C89.0959 13.2236 88.3401 12.5762 86.8284 12.5762H85.7122Z" fill="black"/>
<defs>
<clipPath id="clip0_282_6379">
<rect width="98" height="55" fill="white" transform="translate(0.000244141)"/>
</clipPath>
</defs>
</svg>
