<svg width="126" height="55" viewBox="0 0 126 55" fill="none" xmlns="http://www.w3.org/2000/svg">
<g clip-path="url(#clip0_282_6379)">
<path d="M30.5687 0.0517389C31.3501 1.06082 32.1134 2.06537 32.8573 3.08409C32.9633 3.22918 33.0092 3.44044 33.0226 3.62544C33.0481 3.9771 33.0173 4.33261 33.037 4.68502C33.0437 4.80577 33.1024 4.95096 33.187 5.03564C33.7341 5.58341 34.2905 6.1223 34.8547 6.65256C34.9853 6.77527 35.0156 6.90363 34.9993 7.0643C34.9805 7.25021 34.961 7.43621 34.9494 7.62265C34.9288 7.95532 34.9167 8.28852 34.8958 8.62118C34.8773 8.91637 34.9387 9.18593 35.0606 9.46047C35.1678 9.70184 35.2389 9.97616 35.2511 10.2394C35.2899 11.08 35.3601 11.9279 35.2874 12.7616C35.2405 13.2993 34.9934 13.829 34.7842 14.3412C34.3695 15.3565 33.9235 16.3593 33.4816 17.3634C33.1073 18.2138 32.7184 19.0577 32.3399 19.9063C31.8721 20.9549 31.4069 22.0046 30.9442 23.0554C30.845 23.2807 30.7018 23.3102 30.3777 23.286C29.8022 23.243 29.2231 23.2281 28.646 23.2355C28.2032 23.2413 27.7542 23.262 27.3203 23.3426C26.5328 23.4889 25.7401 23.6372 24.9757 23.8702C23.6377 24.278 22.4077 24.9312 21.3172 25.8028C20.3189 26.6007 19.4806 27.5531 18.8378 28.6717C18.2159 29.7538 17.7967 30.9079 17.5912 32.1302C17.4511 32.9635 17.4359 33.8084 17.5169 34.659C17.6292 35.8396 17.9511 36.95 18.5208 37.9827C18.7603 38.417 19.0547 38.8289 19.3741 39.2092C19.5901 39.4664 19.4902 39.7093 19.4337 39.9411C19.1304 41.1865 18.6193 42.3336 17.7916 43.3327C17.0899 44.1797 16.2392 44.8305 15.2678 45.3301C14.3745 45.7896 13.4231 46.1139 12.4326 46.2369C11.5332 46.3486 10.6141 46.3831 9.70843 46.3438C8.5898 46.2953 7.49738 46.0322 6.4483 45.6309C5.5357 45.2818 4.66132 44.8421 3.91531 44.2099C3.59397 43.9375 3.36978 43.5427 3.12971 43.1847C2.21973 41.8275 1.54743 40.3546 1.06381 38.7987C0.720648 37.6946 0.437194 36.5738 0.310425 35.4201C0.236225 34.7448 0.164387 34.0693 0.0718501 33.3832C0.0522137 32.3022 0.0522137 31.2318 0.0718989 30.1264C0.16554 29.278 0.188554 28.456 0.325747 27.6534C0.517238 26.5331 0.771893 25.422 1.03915 24.3165C1.51864 22.3332 2.27094 20.4465 3.15035 18.6089C3.99202 16.8501 4.97204 15.1699 6.11878 13.5931C6.73694 12.7431 7.40283 11.9259 8.07785 11.1195C8.58814 10.5098 9.12298 9.91623 9.69074 9.36006C10.3189 8.74471 10.9798 8.15931 11.6581 7.59908C12.3765 7.00566 13.1158 6.43412 13.8752 5.89392C15.4309 4.78732 17.0771 3.82915 18.8253 3.05662C19.7752 2.63686 20.7318 2.22672 21.7067 1.87015C23.0864 1.36551 24.4924 0.935148 25.9413 0.668881C26.9397 0.48541 27.9423 0.325073 28.9431 0.15461C29.1473 0.11983 29.3516 0.0860043 29.5559 0.0517387C29.8854 0.0517388 30.2149 0.0517388 30.5687 0.0517389Z" fill="#3B80AD"/>
<path d="M21.4912 55.0517C21.2379 55.0173 21.0092 54.9548 20.7801 54.9533C19.8494 54.9476 18.9517 54.7186 18.0577 54.517C17.2451 54.3337 16.4562 54.0351 15.669 53.7534C15.0903 53.5463 14.5312 53.2845 13.9634 53.0471C13.9702 53.02 13.9771 52.9929 13.984 52.9658C14.5231 53.0047 15.0617 53.0607 15.6015 53.077C16.0029 53.0891 16.4137 53.094 16.8062 53.0238C17.4735 52.9045 18.1423 52.7631 18.7873 52.5584C19.5701 52.31 20.2843 51.8968 20.8924 51.3443C21.4962 50.7959 22.054 50.197 22.6425 49.6097C22.8099 49.8569 23.0482 50.0672 23.4398 49.8271C23.6844 49.6771 23.6793 49.4506 23.6325 49.2373C23.5726 48.9646 23.3395 48.8844 23.0377 48.887C24.39 46.5068 24.3745 44.1558 22.9765 41.7939C23.3668 41.9142 23.7322 42.0608 24.1118 42.1364C24.8364 42.2808 25.5677 42.414 26.312 42.2725C26.7377 42.1916 27.0642 42.3756 27.3647 42.6458C28.1995 43.3963 28.8443 44.2768 29.1506 45.3654C29.2772 45.8156 29.3315 46.2876 29.398 46.7527C29.561 47.8931 29.319 48.9917 28.9759 50.0635C28.69 50.9567 28.2129 51.756 27.603 52.4801C26.7606 53.4801 25.7519 54.2676 24.6117 54.8927C24.4579 54.9771 24.2562 54.9744 24.068 55.0319C23.2115 55.0517 22.3635 55.0517 21.4912 55.0517Z" fill="#1B3E6E"/>
<path d="M5.08534 45.6307C5.82947 46.0138 6.57383 46.3912 7.38385 46.6293C8.1205 46.8458 8.85829 47.0455 9.62832 47.0813C10.2718 47.1112 10.9221 47.1806 11.5593 47.1222C12.86 47.0028 14.1355 46.7423 15.2942 46.0939C15.3604 46.2377 15.3927 46.3973 15.4891 46.4918C15.5868 46.5875 15.744 46.6557 15.882 46.6702C16.1197 46.6952 16.2875 46.5558 16.3696 46.3343C16.4643 46.0788 16.3688 45.8624 16.0853 45.6575C18.2 44.2705 19.6704 42.4465 20.0561 39.92C20.5213 40.266 21.0258 40.6428 21.5326 41.0164C21.6132 41.0758 21.699 41.1351 21.7916 41.1702C22.487 41.4333 22.7099 42.0781 22.952 42.6717C23.1841 43.2406 23.3777 43.8418 23.4681 44.4467C23.5553 45.0294 23.5073 45.6357 23.4851 46.2304C23.4581 46.9546 23.2135 47.6325 22.888 48.2655C22.4046 49.2057 21.7427 50.012 20.9322 50.7062C19.8605 51.6241 18.6132 52.1428 17.2494 52.4068C16.3474 52.5813 15.4286 52.61 14.5133 52.561C13.9313 52.5299 13.34 52.4815 12.7777 52.3415C12.4175 52.2519 12.081 52.0108 11.7714 51.7862C10.8232 51.0982 9.87136 50.4121 8.96305 49.6737C8.2608 49.1028 7.59385 48.4815 6.96258 47.8329C6.29856 47.1506 5.69561 46.4091 5.06543 45.6716C5.0717 45.6433 5.07852 45.637 5.08534 45.6307Z" fill="#1C3966"/>
<path d="M33.9776 42.4672C34.6573 43.2563 35.1164 44.1477 35.408 45.1199C35.6665 45.9816 35.8178 46.8661 35.7763 47.7714C35.7317 48.7441 35.5018 49.6727 35.1737 50.5925C34.9655 51.176 34.502 51.433 34.0513 51.7147C33.2978 52.1855 32.5372 52.6553 31.7388 53.0418C30.4032 53.6884 29.0046 54.1791 27.5465 54.4839C26.8893 54.6213 26.2319 54.7583 25.5738 54.8912C25.4992 54.9062 25.4189 54.8932 25.252 54.8932C27.9325 53.6458 29.2444 51.4797 29.7658 48.7602C29.912 48.8067 30.0518 48.8903 30.1868 48.8832C30.3189 48.8762 30.4737 48.8051 30.5697 48.712C30.7575 48.5297 30.7392 48.2914 30.6274 48.0734C30.521 47.8658 30.2557 47.8125 29.8984 47.8972C30.05 45.5504 29.2436 43.6304 27.3382 42.1848C27.6618 42.0755 27.9978 42.0039 28.2928 41.8528C28.768 41.6094 29.2227 41.3236 29.6726 41.0349C29.857 40.9167 29.9891 40.7135 30.178 40.6075C30.2956 40.5415 30.4805 40.5564 30.6258 40.584C31.9463 40.8352 33.0633 41.4542 33.9776 42.4672Z" fill="#183F6E"/>
<path d="M35.9196 45.6031C35.7984 45.1996 35.6883 44.8151 35.5732 44.4134C35.8649 44.408 36.1222 44.3204 36.1853 43.9994C36.2281 43.7811 36.1724 43.5683 35.9662 43.4382C35.7337 43.2916 35.5013 43.3388 35.1954 43.59C34.2106 41.7052 32.6726 40.5774 30.5466 40.2412C31.0821 39.5736 31.5349 38.8664 31.7378 38.042C31.8213 37.7026 32.0298 37.5709 32.3054 37.4615C33.1856 37.1121 34.1098 37.012 35.0361 37.1093C36.2302 37.2347 37.301 37.7007 38.2287 38.4793C38.9399 39.0763 39.5693 39.7408 40.0731 40.525C40.4711 41.1443 40.7281 41.8213 40.9546 42.5135C40.9711 42.564 40.9553 42.6326 40.936 42.6861C40.5418 43.7819 40.1098 44.8634 39.476 45.8458C38.9122 46.7197 38.3585 47.6078 37.7086 48.4163C37.1279 49.1388 36.4221 49.7613 35.77 50.4264C35.7554 50.4413 35.7227 50.4385 35.6858 50.4468C35.8142 49.9914 35.974 49.552 36.0575 49.0987C36.1775 48.4481 36.2618 47.7901 36.146 47.1231C36.0596 46.6253 36.0015 46.1226 35.9196 45.6031Z" fill="#0A4876"/>
<path d="M39.4991 39.026C39.0842 38.6589 38.6822 38.305 38.2801 37.9512C38.6753 37.6851 38.7717 37.4971 38.6614 37.2074C38.5737 36.9772 38.3591 36.8599 38.0827 36.891C37.8231 36.9203 37.6819 37.1073 37.6157 37.5341C35.7781 36.4693 33.8935 36.3206 31.9484 37.2603C32.122 36.3282 32.0969 35.4263 31.793 34.5579C31.683 34.2438 31.8369 34.0686 31.9815 33.8846C32.7049 32.9644 33.6186 32.3078 34.7507 31.9733C35.5407 31.7399 36.3388 31.6773 37.1653 31.7582C38.2724 31.8666 39.3089 32.1649 40.2792 32.6999C40.4846 32.8131 40.6998 32.9213 40.8735 33.0738C40.9751 33.163 41.0276 33.3297 41.0604 33.4711C41.2251 34.1813 41.3949 34.8912 41.5244 35.6081C41.5996 36.0242 41.6102 36.4528 41.635 36.8767C41.662 37.3379 41.6903 37.8003 41.6854 38.2618C41.6737 39.3727 41.5863 40.4762 41.2772 41.5514C41.2657 41.5914 41.271 41.6363 41.2451 41.6917C40.8619 40.6777 40.2278 39.8314 39.4991 39.026Z" fill="#0C4D7D"/>
<path d="M38.4082 28.5207C38.8687 29.1552 39.3653 29.7481 39.7488 30.4065C40.1346 31.0687 40.4081 31.796 40.7298 32.4952C40.742 32.5216 40.7443 32.5525 40.766 32.6428C39.4939 31.6471 38.0572 31.2989 36.5191 31.1884C36.4633 30.9513 36.6161 30.6153 36.2726 30.4855C36.1433 30.4367 35.9818 30.4108 35.8507 30.4414C35.5283 30.5166 35.4183 30.8385 35.5618 31.2302C33.7853 31.4607 32.4614 32.3554 31.5961 33.9309C31.2838 33.2629 30.8333 32.7042 30.2907 32.2101C30.0323 31.9749 30.0484 31.6366 30.0821 31.3273C30.1229 30.9529 30.1855 30.5761 30.2877 30.2141C30.4722 29.5611 30.7955 28.9775 31.2384 28.4555C32.1582 27.3716 33.383 26.8367 34.7205 26.5049C34.998 26.4361 35.292 26.4363 35.5747 26.385C36.0063 26.3066 36.3021 26.5373 36.5891 26.7989C37.153 27.3129 37.7173 27.8266 38.2789 28.3432C38.3272 28.3876 38.3565 28.4524 38.4082 28.5207Z" fill="#0C5086"/>
<path d="M26.6877 26.7866C26.9094 26.1223 27.2484 25.5445 27.6528 25.0024C27.7792 24.8331 27.9186 24.6734 28.046 24.5047C28.3568 24.0929 28.7624 23.9274 29.2753 24.0059C29.6687 24.0661 30.0691 24.0876 30.4583 24.1663C31.1408 24.3045 31.8258 24.4433 32.494 24.6364C33.4805 24.9214 34.4015 25.3672 35.2251 25.8534C34.6293 26.0438 33.977 26.2 33.3699 26.4608C32.7565 26.7243 32.1878 27.0914 31.58 27.4238C31.5374 27.0341 31.2236 26.921 30.8555 27.0273C30.7059 27.0705 30.5208 27.2927 30.5089 27.4456C30.4851 27.7501 30.7107 27.949 30.994 28.0609C29.9167 29.2301 29.5943 30.7546 29.7578 31.7915C29.3653 31.623 28.9876 31.4269 28.588 31.2992C28.2063 31.1772 27.801 31.1296 27.4079 31.0413C27.3314 31.0241 27.2355 30.9886 27.1957 30.9298C26.7543 30.2769 26.5102 29.5605 26.4355 28.7695C26.3713 28.0888 26.4868 27.4457 26.6877 26.7866Z" fill="#125D95"/>
<path d="M24.857 31.7812C24.7178 31.8961 24.6017 32.0111 24.4683 32.1005C24.4209 32.1322 24.3183 32.126 24.2635 32.0961C23.1296 31.4768 22.5174 30.4919 22.2369 29.2571C22.1186 28.7362 22.0639 28.2167 22.0919 27.6885C22.1229 27.1054 22.2483 26.5388 22.5008 26.01C22.5517 25.9033 22.6857 25.8275 22.7947 25.7582C23.5791 25.2591 24.4174 24.8715 25.2992 24.5781C26.1342 24.3002 26.9902 24.1229 27.8689 24.0598C27.9017 24.0575 27.935 24.0629 27.9247 24.0623C27.6109 24.4381 27.2696 24.8192 26.9601 25.2245C26.5459 25.7668 26.3105 26.4017 26.1501 27.0538C26.0897 27.2994 25.9884 27.2962 25.8139 27.2638C25.5658 27.2179 25.3617 27.3228 25.2545 27.53C25.1484 27.735 25.1974 27.9326 25.3287 28.0745C25.4801 28.238 25.6739 28.4 25.9656 28.2149C26.0201 29.2482 26.283 30.1913 26.8071 31.0806C26.0916 31.1562 25.4636 31.4131 24.857 31.7812Z" fill="#1F608F"/>
<path d="M21.4354 34.4978C19.9475 33.8289 19.1528 32.6594 18.8119 31.1217C18.7285 30.7455 18.8367 30.4427 18.9765 30.1264C19.3919 29.1867 19.9096 28.3107 20.6264 27.5654C21.0178 27.1584 21.4241 26.7657 21.8626 26.3278C21.7747 26.8657 21.6735 27.3176 21.636 27.7746C21.6105 28.0841 21.6558 28.4039 21.7035 28.7139C21.7609 29.0866 21.8608 29.4527 21.926 29.8245C21.936 29.8818 21.8746 29.9755 21.8194 30.0162C21.6102 30.1707 21.5078 30.39 21.584 30.5648C21.6726 30.7678 21.8968 30.8683 22.1476 30.8356C22.2173 30.8265 22.3326 30.8407 22.3604 30.8854C22.7712 31.5446 23.3651 31.9953 24.0224 32.38C24.0614 32.4028 24.0959 32.5218 24.0754 32.5443C23.5187 33.1555 23.3762 33.9103 23.3187 34.7086C22.6823 34.7326 22.054 34.7577 21.4354 34.4978Z" fill="#20669C"/>
<path d="M23.2594 37.9133C22.6065 38.2027 21.9332 38.2212 21.2605 38.1792C20.487 38.131 19.7438 37.905 19.1736 37.3848C18.907 37.1417 18.7757 36.7057 18.6789 36.3324C18.5 35.6425 18.358 34.9386 18.2667 34.232C18.2127 33.8139 18.2733 33.3786 18.3044 32.9526C18.335 32.5329 18.3934 32.1153 18.4645 31.6947C18.6999 32.8564 19.3834 33.6972 20.3255 34.3837C20.2892 34.4355 20.2516 34.4873 20.2159 34.5404C20.0438 34.7968 20.1004 35.0092 20.3863 35.1811C20.5829 35.2994 20.8599 35.2166 20.9634 34.9788C21.0297 34.8263 21.0788 34.8185 21.242 34.8571C21.6674 34.9577 22.1027 35.0242 22.5375 35.0743C22.8026 35.1049 23.0742 35.08 23.3567 35.08C23.5117 35.8322 23.8045 36.5112 24.4864 37.0596C24.0631 37.3552 23.6703 37.6296 23.2594 37.9133Z" fill="#22689B"/>
<path d="M21.4148 40.047C20.643 39.4694 19.9772 38.814 19.5027 37.9692C19.6887 38.0751 19.8714 38.1871 20.0612 38.2856C20.7656 38.6513 21.512 38.7274 22.2891 38.6086C22.3478 38.5997 22.4468 38.658 22.4801 38.7132C22.5978 38.9088 22.767 39.0018 22.9791 38.9474C23.1855 38.8944 23.3141 38.7576 23.2892 38.5108C23.282 38.4397 23.3413 38.3351 23.4026 38.2883C23.8405 37.9547 24.2867 37.632 24.7556 37.2872C25.0077 37.3976 25.3027 37.5662 25.6201 37.6547C25.9429 37.7446 26.2878 37.7555 26.643 37.8038C26.707 38.488 26.5008 39.0991 26.0916 39.662C25.6767 40.2327 25.1601 40.6642 24.4875 40.8872C24.1772 40.9901 23.8565 41.078 23.5336 41.119C23.3831 41.1382 23.2032 41.0536 23.0592 40.9749C22.5122 40.6759 21.9745 40.36 21.4148 40.047Z" fill="#2973A9"/>
<path d="M26.5895 41.5475C26.2274 41.5475 25.8876 41.5684 25.5513 41.5427C25.039 41.5036 24.5291 41.4323 24.0078 41.3205C25.0095 41.2172 25.7679 40.73 26.3641 39.9632C26.7346 40.1088 26.9634 40.0681 27.0842 39.8352C27.2048 39.6026 27.1118 39.3721 26.8576 39.2015C26.894 38.7497 26.9234 38.3212 26.9679 37.8943C26.9758 37.819 27.0331 37.7024 27.0908 37.686C27.5883 37.5438 28.0057 37.2837 28.3406 36.8786C28.7973 37.1975 29.0829 37.6287 29.1818 38.1473C29.3017 38.776 29.3332 39.4216 29.0316 40.0178C28.8616 40.3538 28.6922 40.7264 28.4188 40.9633C28.1611 41.1865 27.7736 41.2729 27.4313 41.3828C27.1682 41.4673 26.8867 41.4947 26.5895 41.5475Z" fill="#31719D"/>
<path d="M30.0242 37.842C29.8669 37.4783 29.6588 37.4142 29.3046 37.5734C29.0798 37.2874 28.8586 37.0108 28.6445 36.7287C28.6084 36.6812 28.5737 36.6023 28.588 36.5518C28.708 36.1275 28.8396 35.7065 28.9818 35.2382C29.605 35.1687 30.1948 35.4254 30.7227 35.8602C30.8552 35.9694 30.9627 36.1084 31.0908 36.2236C31.4559 36.552 31.3348 36.9495 31.2499 37.3367C31.0273 38.3514 30.5265 39.2237 29.8384 39.9909C29.6806 40.167 29.4748 40.3002 29.2458 40.4909C29.3502 40.1287 29.4612 39.8455 29.5084 39.552C29.557 39.2489 29.5505 38.9359 29.5542 38.627C29.5558 38.4905 29.5567 38.3825 29.7206 38.3362C29.9536 38.2703 30.047 38.0994 30.0242 37.842Z" fill="#3780AC"/>
<path d="M29.3921 34.9765C29.1867 34.9765 29.0059 34.9765 28.8101 34.9765C28.6304 34.4587 28.3069 34.0617 27.7998 33.8124C28.2005 33.3593 28.7071 33.1368 29.2918 33.0612C29.9792 32.9724 30.4755 33.1711 30.8 33.8446C31.1439 34.5582 31.3535 35.2833 31.3754 36.0468C31.03 35.7541 30.6867 35.4632 30.3731 35.1974C30.3731 35.0514 30.4053 34.88 30.3585 34.7339C30.3374 34.668 30.123 34.5905 30.0591 34.6271C29.9319 34.7 29.8482 34.8484 29.719 34.9974C29.6656 34.9937 29.5411 34.9851 29.3921 34.9765Z" fill="#548EB9"/>
<path d="M24.3712 33.3564C24.5172 33.7206 24.6484 34.0733 24.7789 34.4243C24.7391 34.5079 24.6723 34.6175 24.6409 34.7364C24.633 34.7662 24.7443 34.8696 24.7907 34.8634C24.9078 34.8479 25.0191 34.7892 25.1327 34.7478C25.1273 34.7277 25.1219 34.7076 25.1166 34.6874C25.168 34.7165 25.2169 34.752 25.2713 34.7736C25.5485 34.8836 25.7292 35.0455 25.8337 35.358C25.916 35.6043 26.166 35.7947 26.3427 36.0114C25.8878 36.4108 24.8646 36.3753 24.4851 36.0101C24.2416 35.7759 24.0884 35.3799 24.0332 35.0344C23.9403 34.4519 23.9653 33.8534 24.3712 33.3564Z" fill="#5EB1D4"/>
<path d="M26.8439 32.3803C27.0173 32.189 27.1761 32.0104 27.3387 31.8352C27.3657 31.8061 27.4113 31.7714 27.445 31.7745C28.3648 31.8596 29.2088 32.1303 29.9429 32.8353C29.44 32.6423 28.997 32.7051 28.5354 32.8728C28.5354 32.6262 28.499 32.3942 28.2169 32.4122C28.1073 32.4192 27.9128 32.5701 27.9204 32.6368C27.9377 32.787 28.0569 32.9255 28.1461 33.0898C27.9785 33.2648 27.7662 33.4866 27.5548 33.7074C27.2623 33.7074 26.9598 33.7074 26.6187 33.7074C26.4391 33.2482 26.6159 32.8187 26.8439 32.3803Z" fill="#4492C5"/>
<path d="M25.1608 34.2901C24.8243 33.8708 24.7516 33.3991 24.7877 32.9008C24.7923 32.8373 24.8098 32.7591 24.8511 32.7164C25.3883 32.1605 26.0462 31.8659 26.8292 31.8082C26.6381 32.1305 26.4589 32.4329 26.3092 32.6853C26.1303 32.7341 25.9579 32.7459 25.8345 32.8296C25.773 32.8713 25.7497 33.0849 25.8003 33.1494C25.8824 33.254 26.0396 33.2999 26.1651 33.3705C26.1824 33.3514 26.1998 33.3322 26.2171 33.3131C26.2561 33.4837 26.3017 33.6533 26.3291 33.8257C26.3353 33.8649 26.2818 33.9164 26.2506 33.9583C26.0618 34.2112 25.8715 34.4631 25.6543 34.7519C25.5253 34.6315 25.3497 34.4677 25.1608 34.2901Z" fill="#56A7CB"/>
<path d="M24.9445 36.4727C25.2401 36.4757 25.5358 36.476 25.8312 36.4845C25.8733 36.4858 25.9374 36.5172 25.9518 36.5513C26.0218 36.7174 26.1374 36.7932 26.2951 36.6952C26.4708 36.5861 26.4053 36.4337 26.3133 36.2945C26.425 36.135 26.5375 36.0216 26.7688 36.0519C26.9077 36.0701 27.0607 35.9811 27.2673 35.9236C27.2541 36.0606 27.2588 36.1894 27.2274 36.3087C26.9776 37.2588 26.822 37.1418 26.0383 37.0799C25.6253 37.0472 25.2462 36.8304 24.9341 36.5103C24.9334 36.4867 24.9445 36.4727 24.9445 36.4727Z" fill="#75C0E0"/>
<path d="M27.4791 36.8398C27.3641 36.8948 27.2667 36.9437 27.126 37.0145C27.2506 36.7623 27.3533 36.5543 27.4589 36.3406C27.6247 36.3845 27.8085 36.4232 27.8417 36.1897C27.8863 35.8766 27.6185 35.9906 27.4456 35.9409C27.4407 35.8737 27.4226 35.7974 27.4324 35.7249C27.4566 35.5451 27.3832 35.3008 27.6914 35.2871C27.9682 35.2747 28.1967 35.4735 28.2065 35.7467C28.2207 36.1424 27.9941 36.4179 27.723 36.6657C27.654 36.7287 27.5726 36.7782 27.4791 36.8398Z" fill="#7FCBE8"/>
<path d="M24.9287 36.4951C24.9046 36.483 24.8859 36.4636 24.8672 36.4441C24.8885 36.4455 24.9098 36.4469 24.9382 36.4608C24.9454 36.4734 24.9341 36.4877 24.9287 36.4951Z" fill="#75C0E0"/>
<path d="M19.4154 37.9609C19.4137 37.935 19.4268 37.9198 19.4399 37.9046C19.4367 37.927 19.4335 37.9494 19.4154 37.9609Z" fill="#2973A9"/>
<path d="M29.1652 40.4774C29.1796 40.4928 29.1788 40.5181 29.1779 40.5434C29.1686 40.5247 29.1593 40.506 29.1652 40.4774Z" fill="#3780AC"/>
<path d="M5.05375 45.658C5.02945 45.6417 5.01631 45.617 5.00317 45.5924C5.0269 45.5956 5.05063 45.5989 5.07986 45.6164C5.07855 45.637 5.07173 45.6433 5.05375 45.658Z" fill="#1C3966"/>
</g>
<path d="M61.5247 47.2088H58.4309L57.5344 44.4051H53.052L52.1643 47.2088H49.0881L53.676 34.6053H57.0422L61.5247 47.2088ZM56.884 42.2254L55.5305 37.989C55.4309 37.6726 55.3606 37.2947 55.3196 36.8553H55.2493C55.22 37.2244 55.1467 37.5906 55.0295 37.9539L53.6584 42.2254H56.884ZM73.6711 47.2088H70.4104L68.4504 43.9656C68.304 43.7195 68.1633 43.4998 68.0286 43.3064C67.8938 43.1131 67.7561 42.949 67.6155 42.8142C67.4807 42.6736 67.3372 42.5681 67.1848 42.4978C67.0383 42.4217 66.8772 42.3836 66.7014 42.3836H65.9368V47.2088H63.0979V34.6053H67.5979C70.6565 34.6053 72.1858 35.7478 72.1858 38.033C72.1858 38.4724 72.1184 38.8797 71.9836 39.2547C71.8489 39.6238 71.6584 39.9578 71.4124 40.2566C71.1663 40.5555 70.8674 40.8133 70.5159 41.0301C70.1702 41.2469 69.7834 41.4168 69.3557 41.5398V41.575C69.5432 41.6336 69.7249 41.7303 69.9006 41.865C70.0764 41.9939 70.2463 42.1463 70.4104 42.3221C70.5745 42.4978 70.7297 42.6883 70.8762 42.8933C71.0286 43.0926 71.1663 43.2888 71.2893 43.4822L73.6711 47.2088ZM65.9368 36.7322V40.239H67.1672C67.7766 40.239 68.2659 40.0633 68.635 39.7117C69.01 39.3543 69.1975 38.9119 69.1975 38.3846C69.1975 37.283 68.5383 36.7322 67.22 36.7322H65.9368ZM89.219 47.2088H86.4153V39.6678C86.4153 38.8533 86.4504 37.9539 86.5208 36.9695H86.4504C86.304 37.743 86.1721 38.2996 86.0549 38.6394L83.1018 47.2088H80.7815L77.7756 38.7273C77.6936 38.4988 77.5618 37.9129 77.3801 36.9695H77.301C77.3772 38.2117 77.4153 39.3015 77.4153 40.239V47.2088H74.8577V34.6053H79.0149L81.5901 42.076C81.7952 42.6736 81.9446 43.2742 82.0383 43.8777H82.0911C82.2493 43.1805 82.4163 42.574 82.592 42.0584L85.1672 34.6053H89.219V47.2088ZM97.4104 47.4285C95.6057 47.4285 94.135 46.8426 92.9983 45.6707C91.8616 44.493 91.2932 42.9607 91.2932 41.074C91.2932 39.0818 91.8704 37.4705 93.0247 36.24C94.179 35.0096 95.7083 34.3943 97.6125 34.3943C99.4114 34.3943 100.865 34.9832 101.972 36.1609C103.085 37.3387 103.642 38.8914 103.642 40.8191C103.642 42.7996 103.065 44.3963 101.91 45.6092C100.762 46.8221 99.262 47.4285 97.4104 47.4285ZM97.5334 36.8377C96.5374 36.8377 95.7463 37.2127 95.1604 37.9627C94.5745 38.7068 94.2815 39.6941 94.2815 40.9246C94.2815 42.1726 94.5745 43.1599 95.1604 43.8865C95.7463 44.6131 96.5139 44.9763 97.4631 44.9763C98.4417 44.9763 99.218 44.6248 99.7922 43.9217C100.366 43.2127 100.654 42.2312 100.654 40.9773C100.654 39.6707 100.375 38.6541 99.8186 37.9275C99.262 37.201 98.5002 36.8377 97.5334 36.8377ZM116.316 47.2088H113.055L111.095 43.9656C110.948 43.7195 110.808 43.4998 110.673 43.3064C110.538 43.1131 110.401 42.949 110.26 42.8142C110.125 42.6736 109.982 42.5681 109.829 42.4978C109.683 42.4217 109.522 42.3836 109.346 42.3836H108.581V47.2088H105.742V34.6053H110.242C113.301 34.6053 114.83 35.7478 114.83 38.033C114.83 38.4724 114.763 38.8797 114.628 39.2547C114.493 39.6238 114.303 39.9578 114.057 40.2566C113.811 40.5555 113.512 40.8133 113.16 41.0301C112.815 41.2469 112.428 41.4168 112 41.5398V41.575C112.188 41.6336 112.369 41.7303 112.545 41.865C112.721 41.9939 112.891 42.1463 113.055 42.3221C113.219 42.4978 113.374 42.6883 113.521 42.8933C113.673 43.0926 113.811 43.2888 113.934 43.4822L116.316 47.2088ZM108.581 36.7322V40.239H109.812C110.421 40.239 110.91 40.0633 111.28 39.7117C111.655 39.3543 111.842 38.9119 111.842 38.3846C111.842 37.283 111.183 36.7322 109.865 36.7322H108.581Z" fill="black"/>
<path d="M50.4417 23V10.3965H54.9065C59.3831 10.3965 61.6213 12.4443 61.6213 16.54C61.6213 18.5029 61.009 20.0703 59.7844 21.2422C58.5657 22.4141 56.9397 23 54.9065 23H50.4417ZM53.2805 12.708V20.6973H54.6868C55.9172 20.6973 56.8811 20.3281 57.5784 19.5898C58.2815 18.8516 58.6331 17.8467 58.6331 16.5752C58.6331 15.374 58.2844 14.4307 57.5872 13.7451C56.8958 13.0537 55.9231 12.708 54.6692 12.708H53.2805ZM71.2717 23H63.7131V10.3965H70.9817V12.708H66.552V15.5117H70.6741V17.8145H66.552V20.6973H71.2717V23ZM80.8518 23H73.2932V10.3965H80.5618V12.708H76.1321V15.5117H80.2542V17.8145H76.1321V20.6973H80.8518V23ZM85.7122 18.6582V23H82.8733V10.3965H87.3206C90.4963 10.3965 92.0842 11.7354 92.0842 14.4131C92.0842 15.6787 91.6272 16.7041 90.7131 17.4893C89.8049 18.2686 88.5891 18.6582 87.0657 18.6582H85.7122ZM85.7122 12.5762V16.5049H86.8284C88.3401 16.5049 89.0959 15.8428 89.0959 14.5186C89.0959 13.2236 88.3401 12.5762 86.8284 12.5762H85.7122Z" fill="black"/>
<defs>
<clipPath id="clip0_282_6379">
<rect width="98" height="55" fill="white" transform="translate(0.000244141)"/>
</clipPath>
</defs>
</svg>
