<svg width="67" height="67" viewBox="0 0 67 67" fill="none" xmlns="http://www.w3.org/2000/svg">
<path d="M36.2917 53.0417H39.0834C39.8238 53.0417 40.5338 53.3358 41.0574 53.8593C41.5809 54.3829 41.875 55.0929 41.875 55.8333H61.4167V61.4167H41.875C41.875 62.1571 41.5809 62.8671 41.0574 63.3907C40.5338 63.9142 39.8238 64.2083 39.0834 64.2083H27.9167C27.1763 64.2083 26.4662 63.9142 25.9427 63.3907C25.4192 62.8671 25.125 62.1571 25.125 61.4167H5.58337V55.8333H25.125C25.125 55.0929 25.4192 54.3829 25.9427 53.8593C26.4662 53.3358 27.1763 53.0417 27.9167 53.0417H30.7084V48.4075C22.5288 45.0296 16.75 36.2917 16.75 26.9954V15.8287L33.5 8.375L50.25 15.8287V26.9954C50.25 36.2917 44.4713 45.0296 36.2917 48.4075V53.0417ZM33.5 13.9583L22.3334 18.6762V27.9167H33.5V13.9583ZM33.5 27.9167V44.6667C38.8321 43.3546 44.6667 36.4592 44.6667 30.7083V27.9167H33.5Z" fill="black"/>
</svg>
