<svg width="70" height="70" viewBox="0 0 70 70" fill="none" xmlns="http://www.w3.org/2000/svg">
<path d="M58.3333 11.6666C59.8804 11.6666 61.3642 12.2812 62.4581 13.3752C63.5521 14.4691 64.1667 15.9529 64.1667 17.5V46.6666C64.1667 49.9041 61.5708 52.5 58.3333 52.5H70V58.3333H0V52.5H11.6667C10.1196 52.5 8.63584 51.8854 7.54188 50.7914C6.44791 49.6975 5.83333 48.2137 5.83333 46.6666V17.5C5.83333 14.2625 8.42917 11.6666 11.6667 11.6666H58.3333ZM58.3333 17.5H11.6667V46.6666H58.3333V17.5ZM35 35C41.4458 35 46.6667 37.625 46.6667 40.8333V43.75H23.3333V40.8333C23.3333 37.625 28.5542 35 35 35ZM35 20.4166C36.5471 20.4166 38.0308 21.0312 39.1248 22.1252C40.2188 23.2191 40.8333 24.7029 40.8333 26.25C40.8333 27.7971 40.2188 29.2808 39.1248 30.3747C38.0308 31.4687 36.5471 32.0833 35 32.0833C31.7625 32.0833 29.1667 29.4875 29.1667 26.25C29.1667 23.0125 31.7917 20.4166 35 20.4166Z" fill="black"/>
</svg>
