<svg width="59" height="59" viewBox="0 0 59 59" fill="none" xmlns="http://www.w3.org/2000/svg">
<path d="M29.5001 49.1666H8.60425C7.62626 49.1666 6.68833 48.7781 5.99679 48.0866C5.30525 47.3951 4.91675 46.4571 4.91675 45.4791V13.5208C4.91675 12.5428 5.30525 11.6049 5.99679 10.9134C6.68833 10.2218 7.62626 9.83331 8.60425 9.83331H50.3959C51.3739 9.83331 52.3118 10.2218 53.0034 10.9134C53.6949 11.6049 54.0834 12.5428 54.0834 13.5208V28.3433" stroke="black" stroke-width="4" stroke-linecap="round" stroke-linejoin="round"/>
<path d="M4.91675 13.5208C4.91675 12.5428 5.30525 11.6049 5.99679 10.9134C6.68833 10.2218 7.62626 9.83331 8.60425 9.83331H50.3959C51.3739 9.83331 52.3118 10.2218 53.0034 10.9134C53.6949 11.6049 54.0834 12.5428 54.0834 13.5208V24.5833H4.91675V13.5208Z" stroke="black" stroke-width="4"/>
<path d="M50.396 40.5625H43.021C40.9844 40.5625 39.3335 42.2134 39.3335 44.25V46.7083C39.3335 48.7449 40.9844 50.3958 43.021 50.3958H50.396C52.4325 50.3958 54.0835 48.7449 54.0835 46.7083V44.25C54.0835 42.2134 52.4325 40.5625 50.396 40.5625Z" stroke="black" stroke-width="4" stroke-linejoin="round"/>
<path d="M46.7085 33.1875C47.6865 33.1875 48.6244 33.576 49.316 34.2675C50.0075 34.9591 50.396 35.897 50.396 36.875V40.5625H43.021V36.875C43.021 35.897 43.4095 34.9591 44.101 34.2675C44.7926 33.576 45.7305 33.1875 46.7085 33.1875Z" stroke="black" stroke-width="4" stroke-linejoin="round"/>
<path d="M9.83333 17.2083C9.83333 15.8506 10.934 14.75 12.2917 14.75C13.6494 14.75 14.75 15.8506 14.75 17.2083C14.75 18.566 13.6494 19.6666 12.2917 19.6666C10.934 19.6666 9.83333 18.566 9.83333 17.2083Z" fill="black"/>
<path d="M17.2083 17.2083C17.2083 15.8506 18.309 14.75 19.6667 14.75C21.0244 14.75 22.125 15.8506 22.125 17.2083C22.125 18.566 21.0244 19.6666 19.6667 19.6666C18.309 19.6666 17.2083 18.566 17.2083 17.2083Z" fill="black"/>
</svg>
